<?xml version="1.0" encoding="utf-8" standalone="no"?>
<!DOCTYPE svg PUBLIC "-//W3C//DTD SVG 1.1//EN"
  "http://www.w3.org/Graphics/SVG/1.1/DTD/svg11.dtd">
<!-- Created with matplotlib (http://matplotlib.org/) -->
<svg height="223pt" version="1.1" viewBox="0 0 1133 223" width="1133pt" xmlns="http://www.w3.org/2000/svg" xmlns:xlink="http://www.w3.org/1999/xlink">
 <defs>
  <style type="text/css">
*{stroke-linecap:butt;stroke-linejoin:round;stroke-miterlimit:100000;}
  </style>
 </defs>
 <g id="figure_1">
  <g id="patch_1">
   <path d="M 0 223.5 
L 1133.6119 223.5 
L 1133.6119 -0 
L 0 -0 
z
" style="fill:#ffffff;"/>
  </g>
  <g id="axes_1">
   <g id="patch_2">
    <path d="M 83.25 185.7 
L 326.25 185.7 
L 326.25 23.7 
L 83.25 23.7 
L 83.25 185.7 
z
" style="fill:none;"/>
   </g>
   <g id="line2d_1">
    <path clip-path="url(#pfaa3354c65)" d="M 83.25 185.7 
L 91.35 185.7 
L 99.45 185.7 
L 107.55 185.7 
L 115.65 138.33463 
L 123.75 112.353606 
L 131.85 102.129122 
L 139.95 99.426264 
L 148.05 97.602245 
L 156.15 91.808501 
L 164.25 89.541529 
L 172.35 89.114315 
L 180.45 88.181673 
L 188.55 84.975349 
L 196.65 76.46978 
L 204.75 69.051858 
L 212.85 64.055512 
L 220.95 66.14561 
L 229.05 71.624135 
L 237.15 76.133293 
L 245.25 78.32759 
L 253.35 80.089327 
L 261.45 80.882583 
L 269.55 80.846195 
L 277.65 80.491786 
L 285.75 80.530752 
L 293.85 81.169247 
L 301.95 82.368281 
L 310.05 84.337508 
L 318.15 86.031039 
L 326.25 87.649133 
" style="fill:none;stroke:#b5b5b5;stroke-width:2.0;"/>
   </g>
   <g id="matplotlib.axis_1">
    <g id="xtick_1">
     <g id="line2d_2">
      <path clip-path="url(#pfaa3354c65)" d="M 83.25 185.7 
L 83.25 23.7 
" style="fill:none;stroke:#000000;stroke-dasharray:1.000000,3.000000;stroke-dashoffset:0.0;"/>
     </g>
     <g id="line2d_3">
      <defs>
       <path d="M 0 0 
L 0 -0.1 
" id="m1e4bb1310e" style="stroke:#000000;stroke-width:0.5;"/>
      </defs>
      <g>
       <use style="stroke:#000000;stroke-width:0.5;" x="83.25" xlink:href="#m1e4bb1310e" y="185.7"/>
      </g>
     </g>
     <g id="text_1">
      <!-- 0.0 -->
      <defs>
       <path d="M 31.78125 66.40625 
Q 24.171875 66.40625 20.328125 58.90625 
Q 16.5 51.421875 16.5 36.375 
Q 16.5 21.390625 20.328125 13.890625 
Q 24.171875 6.390625 31.78125 6.390625 
Q 39.453125 6.390625 43.28125 13.890625 
Q 47.125 21.390625 47.125 36.375 
Q 47.125 51.421875 43.28125 58.90625 
Q 39.453125 66.40625 31.78125 66.40625 
M 31.78125 74.21875 
Q 44.046875 74.21875 50.515625 64.515625 
Q 56.984375 54.828125 56.984375 36.375 
Q 56.984375 17.96875 50.515625 8.265625 
Q 44.046875 -1.421875 31.78125 -1.421875 
Q 19.53125 -1.421875 13.0625 8.265625 
Q 6.59375 17.96875 6.59375 36.375 
Q 6.59375 54.828125 13.0625 64.515625 
Q 19.53125 74.21875 31.78125 74.21875 
" id="DejaVuSans-30"/>
       <path d="M 10.6875 12.40625 
L 21 12.40625 
L 21 0 
L 10.6875 0 
z
" id="DejaVuSans-2e"/>
      </defs>
      <g transform="translate(74.50328125 198.05828125)scale(0.11 -0.11)">
       <use xlink:href="#DejaVuSans-30"/>
       <use x="63.623046875" xlink:href="#DejaVuSans-2e"/>
       <use x="95.41015625" xlink:href="#DejaVuSans-30"/>
      </g>
     </g>
    </g>
    <g id="xtick_2">
     <g id="line2d_4">
      <path clip-path="url(#pfaa3354c65)" d="M 123.75 185.7 
L 123.75 23.7 
" style="fill:none;stroke:#000000;stroke-dasharray:1.000000,3.000000;stroke-dashoffset:0.0;"/>
     </g>
     <g id="line2d_5">
      <g>
       <use style="stroke:#000000;stroke-width:0.5;" x="123.75" xlink:href="#m1e4bb1310e" y="185.7"/>
      </g>
     </g>
     <g id="text_2">
      <!-- 0.5 -->
      <defs>
       <path d="M 10.796875 72.90625 
L 49.515625 72.90625 
L 49.515625 64.59375 
L 19.828125 64.59375 
L 19.828125 46.734375 
Q 21.96875 47.46875 24.109375 47.828125 
Q 26.265625 48.1875 28.421875 48.1875 
Q 40.625 48.1875 47.75 41.5 
Q 54.890625 34.8125 54.890625 23.390625 
Q 54.890625 11.625 47.5625 5.09375 
Q 40.234375 -1.421875 26.90625 -1.421875 
Q 22.3125 -1.421875 17.546875 -0.640625 
Q 12.796875 0.140625 7.71875 1.703125 
L 7.71875 11.625 
Q 12.109375 9.234375 16.796875 8.0625 
Q 21.484375 6.890625 26.703125 6.890625 
Q 35.15625 6.890625 40.078125 11.328125 
Q 45.015625 15.765625 45.015625 23.390625 
Q 45.015625 31 40.078125 35.4375 
Q 35.15625 39.890625 26.703125 39.890625 
Q 22.75 39.890625 18.8125 39.015625 
Q 14.890625 38.140625 10.796875 36.28125 
z
" id="DejaVuSans-35"/>
      </defs>
      <g transform="translate(115.00328125 198.05828125)scale(0.11 -0.11)">
       <use xlink:href="#DejaVuSans-30"/>
       <use x="63.623046875" xlink:href="#DejaVuSans-2e"/>
       <use x="95.41015625" xlink:href="#DejaVuSans-35"/>
      </g>
     </g>
    </g>
    <g id="xtick_3">
     <g id="line2d_6">
      <path clip-path="url(#pfaa3354c65)" d="M 164.25 185.7 
L 164.25 23.7 
" style="fill:none;stroke:#000000;stroke-dasharray:1.000000,3.000000;stroke-dashoffset:0.0;"/>
     </g>
     <g id="line2d_7">
      <g>
       <use style="stroke:#000000;stroke-width:0.5;" x="164.25" xlink:href="#m1e4bb1310e" y="185.7"/>
      </g>
     </g>
     <g id="text_3">
      <!-- 1.0 -->
      <defs>
       <path d="M 12.40625 8.296875 
L 28.515625 8.296875 
L 28.515625 63.921875 
L 10.984375 60.40625 
L 10.984375 69.390625 
L 28.421875 72.90625 
L 38.28125 72.90625 
L 38.28125 8.296875 
L 54.390625 8.296875 
L 54.390625 0 
L 12.40625 0 
z
" id="DejaVuSans-31"/>
      </defs>
      <g transform="translate(155.50328125 198.05828125)scale(0.11 -0.11)">
       <use xlink:href="#DejaVuSans-31"/>
       <use x="63.623046875" xlink:href="#DejaVuSans-2e"/>
       <use x="95.41015625" xlink:href="#DejaVuSans-30"/>
      </g>
     </g>
    </g>
    <g id="xtick_4">
     <g id="line2d_8">
      <path clip-path="url(#pfaa3354c65)" d="M 204.75 185.7 
L 204.75 23.7 
" style="fill:none;stroke:#000000;stroke-dasharray:1.000000,3.000000;stroke-dashoffset:0.0;"/>
     </g>
     <g id="line2d_9">
      <g>
       <use style="stroke:#000000;stroke-width:0.5;" x="204.75" xlink:href="#m1e4bb1310e" y="185.7"/>
      </g>
     </g>
     <g id="text_4">
      <!-- 1.5 -->
      <g transform="translate(196.00328125 198.05828125)scale(0.11 -0.11)">
       <use xlink:href="#DejaVuSans-31"/>
       <use x="63.623046875" xlink:href="#DejaVuSans-2e"/>
       <use x="95.41015625" xlink:href="#DejaVuSans-35"/>
      </g>
     </g>
    </g>
    <g id="xtick_5">
     <g id="line2d_10">
      <path clip-path="url(#pfaa3354c65)" d="M 245.25 185.7 
L 245.25 23.7 
" style="fill:none;stroke:#000000;stroke-dasharray:1.000000,3.000000;stroke-dashoffset:0.0;"/>
     </g>
     <g id="line2d_11">
      <g>
       <use style="stroke:#000000;stroke-width:0.5;" x="245.25" xlink:href="#m1e4bb1310e" y="185.7"/>
      </g>
     </g>
     <g id="text_5">
      <!-- 2.0 -->
      <defs>
       <path d="M 19.1875 8.296875 
L 53.609375 8.296875 
L 53.609375 0 
L 7.328125 0 
L 7.328125 8.296875 
Q 12.9375 14.109375 22.625 23.890625 
Q 32.328125 33.6875 34.8125 36.53125 
Q 39.546875 41.84375 41.421875 45.53125 
Q 43.3125 49.21875 43.3125 52.78125 
Q 43.3125 58.59375 39.234375 62.25 
Q 35.15625 65.921875 28.609375 65.921875 
Q 23.96875 65.921875 18.8125 64.3125 
Q 13.671875 62.703125 7.8125 59.421875 
L 7.8125 69.390625 
Q 13.765625 71.78125 18.9375 73 
Q 24.125 74.21875 28.421875 74.21875 
Q 39.75 74.21875 46.484375 68.546875 
Q 53.21875 62.890625 53.21875 53.421875 
Q 53.21875 48.921875 51.53125 44.890625 
Q 49.859375 40.875 45.40625 35.40625 
Q 44.1875 33.984375 37.640625 27.21875 
Q 31.109375 20.453125 19.1875 8.296875 
" id="DejaVuSans-32"/>
      </defs>
      <g transform="translate(236.50328125 198.05828125)scale(0.11 -0.11)">
       <use xlink:href="#DejaVuSans-32"/>
       <use x="63.623046875" xlink:href="#DejaVuSans-2e"/>
       <use x="95.41015625" xlink:href="#DejaVuSans-30"/>
      </g>
     </g>
    </g>
    <g id="xtick_6">
     <g id="line2d_12">
      <path clip-path="url(#pfaa3354c65)" d="M 285.75 185.7 
L 285.75 23.7 
" style="fill:none;stroke:#000000;stroke-dasharray:1.000000,3.000000;stroke-dashoffset:0.0;"/>
     </g>
     <g id="line2d_13">
      <g>
       <use style="stroke:#000000;stroke-width:0.5;" x="285.75" xlink:href="#m1e4bb1310e" y="185.7"/>
      </g>
     </g>
     <g id="text_6">
      <!-- 2.5 -->
      <g transform="translate(277.00328125 198.05828125)scale(0.11 -0.11)">
       <use xlink:href="#DejaVuSans-32"/>
       <use x="63.623046875" xlink:href="#DejaVuSans-2e"/>
       <use x="95.41015625" xlink:href="#DejaVuSans-35"/>
      </g>
     </g>
    </g>
    <g id="xtick_7">
     <g id="line2d_14">
      <path clip-path="url(#pfaa3354c65)" d="M 326.25 185.7 
L 326.25 23.7 
" style="fill:none;stroke:#000000;stroke-dasharray:1.000000,3.000000;stroke-dashoffset:0.0;"/>
     </g>
     <g id="line2d_15">
      <g>
       <use style="stroke:#000000;stroke-width:0.5;" x="326.25" xlink:href="#m1e4bb1310e" y="185.7"/>
      </g>
     </g>
     <g id="text_7">
      <!-- 3.0 -->
      <defs>
       <path d="M 40.578125 39.3125 
Q 47.65625 37.796875 51.625 33 
Q 55.609375 28.21875 55.609375 21.1875 
Q 55.609375 10.40625 48.1875 4.484375 
Q 40.765625 -1.421875 27.09375 -1.421875 
Q 22.515625 -1.421875 17.65625 -0.515625 
Q 12.796875 0.390625 7.625 2.203125 
L 7.625 11.71875 
Q 11.71875 9.328125 16.59375 8.109375 
Q 21.484375 6.890625 26.8125 6.890625 
Q 36.078125 6.890625 40.9375 10.546875 
Q 45.796875 14.203125 45.796875 21.1875 
Q 45.796875 27.640625 41.28125 31.265625 
Q 36.765625 34.90625 28.71875 34.90625 
L 20.21875 34.90625 
L 20.21875 43.015625 
L 29.109375 43.015625 
Q 36.375 43.015625 40.234375 45.921875 
Q 44.09375 48.828125 44.09375 54.296875 
Q 44.09375 59.90625 40.109375 62.90625 
Q 36.140625 65.921875 28.71875 65.921875 
Q 24.65625 65.921875 20.015625 65.03125 
Q 15.375 64.15625 9.8125 62.3125 
L 9.8125 71.09375 
Q 15.4375 72.65625 20.34375 73.4375 
Q 25.25 74.21875 29.59375 74.21875 
Q 40.828125 74.21875 47.359375 69.109375 
Q 53.90625 64.015625 53.90625 55.328125 
Q 53.90625 49.265625 50.4375 45.09375 
Q 46.96875 40.921875 40.578125 39.3125 
" id="DejaVuSans-33"/>
      </defs>
      <g transform="translate(317.50328125 198.05828125)scale(0.11 -0.11)">
       <use xlink:href="#DejaVuSans-33"/>
       <use x="63.623046875" xlink:href="#DejaVuSans-2e"/>
       <use x="95.41015625" xlink:href="#DejaVuSans-30"/>
      </g>
     </g>
    </g>
    <g id="text_8">
     <!-- Size -->
     <defs>
      <path d="M 53.515625 70.515625 
L 53.515625 60.890625 
Q 47.90625 63.578125 42.921875 64.890625 
Q 37.9375 66.21875 33.296875 66.21875 
Q 25.25 66.21875 20.875 63.09375 
Q 16.5 59.96875 16.5 54.203125 
Q 16.5 49.359375 19.40625 46.890625 
Q 22.3125 44.4375 30.421875 42.921875 
L 36.375 41.703125 
Q 47.40625 39.59375 52.65625 34.296875 
Q 57.90625 29 57.90625 20.125 
Q 57.90625 9.515625 50.796875 4.046875 
Q 43.703125 -1.421875 29.984375 -1.421875 
Q 24.8125 -1.421875 18.96875 -0.25 
Q 13.140625 0.921875 6.890625 3.21875 
L 6.890625 13.375 
Q 12.890625 10.015625 18.65625 8.296875 
Q 24.421875 6.59375 29.984375 6.59375 
Q 38.421875 6.59375 43.015625 9.90625 
Q 47.609375 13.234375 47.609375 19.390625 
Q 47.609375 24.75 44.3125 27.78125 
Q 41.015625 30.8125 33.5 32.328125 
L 27.484375 33.5 
Q 16.453125 35.6875 11.515625 40.375 
Q 6.59375 45.0625 6.59375 53.421875 
Q 6.59375 63.09375 13.40625 68.65625 
Q 20.21875 74.21875 32.171875 74.21875 
Q 37.3125 74.21875 42.625 73.28125 
Q 47.953125 72.359375 53.515625 70.515625 
" id="DejaVuSans-53"/>
      <path d="M 56.203125 29.59375 
L 56.203125 25.203125 
L 14.890625 25.203125 
Q 15.484375 15.921875 20.484375 11.0625 
Q 25.484375 6.203125 34.421875 6.203125 
Q 39.59375 6.203125 44.453125 7.46875 
Q 49.3125 8.734375 54.109375 11.28125 
L 54.109375 2.78125 
Q 49.265625 0.734375 44.1875 -0.34375 
Q 39.109375 -1.421875 33.890625 -1.421875 
Q 20.796875 -1.421875 13.15625 6.1875 
Q 5.515625 13.8125 5.515625 26.8125 
Q 5.515625 40.234375 12.765625 48.109375 
Q 20.015625 56 32.328125 56 
Q 43.359375 56 49.78125 48.890625 
Q 56.203125 41.796875 56.203125 29.59375 
M 47.21875 32.234375 
Q 47.125 39.59375 43.09375 43.984375 
Q 39.0625 48.390625 32.421875 48.390625 
Q 24.90625 48.390625 20.390625 44.140625 
Q 15.875 39.890625 15.1875 32.171875 
z
" id="DejaVuSans-65"/>
      <path d="M 5.515625 54.6875 
L 48.1875 54.6875 
L 48.1875 46.484375 
L 14.40625 7.171875 
L 48.1875 7.171875 
L 48.1875 0 
L 4.296875 0 
L 4.296875 8.203125 
L 38.09375 47.515625 
L 5.515625 47.515625 
z
" id="DejaVuSans-7a"/>
      <path d="M 9.421875 54.6875 
L 18.40625 54.6875 
L 18.40625 0 
L 9.421875 0 
z
M 9.421875 75.984375 
L 18.40625 75.984375 
L 18.40625 64.59375 
L 9.421875 64.59375 
z
" id="DejaVuSans-69"/>
     </defs>
     <g transform="translate(193.45953125 213.70421875)scale(0.11 -0.11)">
      <use xlink:href="#DejaVuSans-53"/>
      <use x="63.4765625" xlink:href="#DejaVuSans-69"/>
      <use x="91.259765625" xlink:href="#DejaVuSans-7a"/>
      <use x="143.75" xlink:href="#DejaVuSans-65"/>
     </g>
    </g>
   </g>
   <g id="matplotlib.axis_2">
    <g id="ytick_1">
     <g id="line2d_16">
      <path clip-path="url(#pfaa3354c65)" d="M 83.25 185.7 
L 326.25 185.7 
" style="fill:none;stroke:#000000;stroke-dasharray:1.000000,3.000000;stroke-dashoffset:0.0;"/>
     </g>
     <g id="line2d_17">
      <defs>
       <path d="M 0 0 
L 0.1 0 
" id="m66642a1c13" style="stroke:#000000;stroke-width:0.5;"/>
      </defs>
      <g>
       <use style="stroke:#000000;stroke-width:0.5;" x="83.25" xlink:href="#m66642a1c13" y="185.7"/>
      </g>
     </g>
     <g id="text_9">
      <!-- 0.00 -->
      <g transform="translate(54.7578125 188.7353125)scale(0.11 -0.11)">
       <use xlink:href="#DejaVuSans-30"/>
       <use x="63.623046875" xlink:href="#DejaVuSans-2e"/>
       <use x="95.41015625" xlink:href="#DejaVuSans-30"/>
       <use x="159.033203125" xlink:href="#DejaVuSans-30"/>
      </g>
     </g>
    </g>
    <g id="ytick_2">
     <g id="line2d_18">
      <path clip-path="url(#pfaa3354c65)" d="M 83.25 163.795432 
L 326.25 163.795432 
" style="fill:none;stroke:#000000;stroke-dasharray:1.000000,3.000000;stroke-dashoffset:0.0;"/>
     </g>
     <g id="line2d_19">
      <g>
       <use style="stroke:#000000;stroke-width:0.5;" x="83.25" xlink:href="#m66642a1c13" y="163.795432449"/>
      </g>
     </g>
     <g id="text_10">
      <!-- 0.05 -->
      <g transform="translate(54.7578125 166.830744949)scale(0.11 -0.11)">
       <use xlink:href="#DejaVuSans-30"/>
       <use x="63.623046875" xlink:href="#DejaVuSans-2e"/>
       <use x="95.41015625" xlink:href="#DejaVuSans-30"/>
       <use x="159.033203125" xlink:href="#DejaVuSans-35"/>
      </g>
     </g>
    </g>
    <g id="ytick_3">
     <g id="line2d_20">
      <path clip-path="url(#pfaa3354c65)" d="M 83.25 141.890865 
L 326.25 141.890865 
" style="fill:none;stroke:#000000;stroke-dasharray:1.000000,3.000000;stroke-dashoffset:0.0;"/>
     </g>
     <g id="line2d_21">
      <g>
       <use style="stroke:#000000;stroke-width:0.5;" x="83.25" xlink:href="#m66642a1c13" y="141.890864897"/>
      </g>
     </g>
     <g id="text_11">
      <!-- 0.10 -->
      <g transform="translate(54.7578125 144.926177397)scale(0.11 -0.11)">
       <use xlink:href="#DejaVuSans-30"/>
       <use x="63.623046875" xlink:href="#DejaVuSans-2e"/>
       <use x="95.41015625" xlink:href="#DejaVuSans-31"/>
       <use x="159.033203125" xlink:href="#DejaVuSans-30"/>
      </g>
     </g>
    </g>
    <g id="ytick_4">
     <g id="line2d_22">
      <path clip-path="url(#pfaa3354c65)" d="M 83.25 119.986297 
L 326.25 119.986297 
" style="fill:none;stroke:#000000;stroke-dasharray:1.000000,3.000000;stroke-dashoffset:0.0;"/>
     </g>
     <g id="line2d_23">
      <g>
       <use style="stroke:#000000;stroke-width:0.5;" x="83.25" xlink:href="#m66642a1c13" y="119.986297346"/>
      </g>
     </g>
     <g id="text_12">
      <!-- 0.15 -->
      <g transform="translate(54.7578125 123.021609846)scale(0.11 -0.11)">
       <use xlink:href="#DejaVuSans-30"/>
       <use x="63.623046875" xlink:href="#DejaVuSans-2e"/>
       <use x="95.41015625" xlink:href="#DejaVuSans-31"/>
       <use x="159.033203125" xlink:href="#DejaVuSans-35"/>
      </g>
     </g>
    </g>
    <g id="ytick_5">
     <g id="line2d_24">
      <path clip-path="url(#pfaa3354c65)" d="M 83.25 98.08173 
L 326.25 98.08173 
" style="fill:none;stroke:#000000;stroke-dasharray:1.000000,3.000000;stroke-dashoffset:0.0;"/>
     </g>
     <g id="line2d_25">
      <g>
       <use style="stroke:#000000;stroke-width:0.5;" x="83.25" xlink:href="#m66642a1c13" y="98.0817297949"/>
      </g>
     </g>
     <g id="text_13">
      <!-- 0.20 -->
      <g transform="translate(54.7578125 101.117042295)scale(0.11 -0.11)">
       <use xlink:href="#DejaVuSans-30"/>
       <use x="63.623046875" xlink:href="#DejaVuSans-2e"/>
       <use x="95.41015625" xlink:href="#DejaVuSans-32"/>
       <use x="159.033203125" xlink:href="#DejaVuSans-30"/>
      </g>
     </g>
    </g>
    <g id="ytick_6">
     <g id="line2d_26">
      <path clip-path="url(#pfaa3354c65)" d="M 83.25 76.177162 
L 326.25 76.177162 
" style="fill:none;stroke:#000000;stroke-dasharray:1.000000,3.000000;stroke-dashoffset:0.0;"/>
     </g>
     <g id="line2d_27">
      <g>
       <use style="stroke:#000000;stroke-width:0.5;" x="83.25" xlink:href="#m66642a1c13" y="76.1771622437"/>
      </g>
     </g>
     <g id="text_14">
      <!-- 0.25 -->
      <g transform="translate(54.7578125 79.2124747437)scale(0.11 -0.11)">
       <use xlink:href="#DejaVuSans-30"/>
       <use x="63.623046875" xlink:href="#DejaVuSans-2e"/>
       <use x="95.41015625" xlink:href="#DejaVuSans-32"/>
       <use x="159.033203125" xlink:href="#DejaVuSans-35"/>
      </g>
     </g>
    </g>
    <g id="ytick_7">
     <g id="line2d_28">
      <path clip-path="url(#pfaa3354c65)" d="M 83.25 54.272595 
L 326.25 54.272595 
" style="fill:none;stroke:#000000;stroke-dasharray:1.000000,3.000000;stroke-dashoffset:0.0;"/>
     </g>
     <g id="line2d_29">
      <g>
       <use style="stroke:#000000;stroke-width:0.5;" x="83.25" xlink:href="#m66642a1c13" y="54.2725946924"/>
      </g>
     </g>
     <g id="text_15">
      <!-- 0.30 -->
      <g transform="translate(54.7578125 57.3079071924)scale(0.11 -0.11)">
       <use xlink:href="#DejaVuSans-30"/>
       <use x="63.623046875" xlink:href="#DejaVuSans-2e"/>
       <use x="95.41015625" xlink:href="#DejaVuSans-33"/>
       <use x="159.033203125" xlink:href="#DejaVuSans-30"/>
      </g>
     </g>
    </g>
    <g id="ytick_8">
     <g id="line2d_30">
      <path clip-path="url(#pfaa3354c65)" d="M 83.25 32.368027 
L 326.25 32.368027 
" style="fill:none;stroke:#000000;stroke-dasharray:1.000000,3.000000;stroke-dashoffset:0.0;"/>
     </g>
     <g id="line2d_31">
      <g>
       <use style="stroke:#000000;stroke-width:0.5;" x="83.25" xlink:href="#m66642a1c13" y="32.3680271411"/>
      </g>
     </g>
     <g id="text_16">
      <!-- 0.35 -->
      <g transform="translate(54.7578125 35.4033396411)scale(0.11 -0.11)">
       <use xlink:href="#DejaVuSans-30"/>
       <use x="63.623046875" xlink:href="#DejaVuSans-2e"/>
       <use x="95.41015625" xlink:href="#DejaVuSans-33"/>
       <use x="159.033203125" xlink:href="#DejaVuSans-35"/>
      </g>
     </g>
    </g>
    <g id="text_17">
     <!-- Response -->
     <defs>
      <path d="M 30.609375 48.390625 
Q 23.390625 48.390625 19.1875 42.75 
Q 14.984375 37.109375 14.984375 27.296875 
Q 14.984375 17.484375 19.15625 11.84375 
Q 23.34375 6.203125 30.609375 6.203125 
Q 37.796875 6.203125 41.984375 11.859375 
Q 46.1875 17.53125 46.1875 27.296875 
Q 46.1875 37.015625 41.984375 42.703125 
Q 37.796875 48.390625 30.609375 48.390625 
M 30.609375 56 
Q 42.328125 56 49.015625 48.375 
Q 55.71875 40.765625 55.71875 27.296875 
Q 55.71875 13.875 49.015625 6.21875 
Q 42.328125 -1.421875 30.609375 -1.421875 
Q 18.84375 -1.421875 12.171875 6.21875 
Q 5.515625 13.875 5.515625 27.296875 
Q 5.515625 40.765625 12.171875 48.375 
Q 18.84375 56 30.609375 56 
" id="DejaVuSans-6f"/>
      <path d="M 44.390625 34.1875 
Q 47.5625 33.109375 50.5625 29.59375 
Q 53.5625 26.078125 56.59375 19.921875 
L 66.609375 0 
L 56 0 
L 46.6875 18.703125 
Q 43.0625 26.03125 39.671875 28.421875 
Q 36.28125 30.8125 30.421875 30.8125 
L 19.671875 30.8125 
L 19.671875 0 
L 9.8125 0 
L 9.8125 72.90625 
L 32.078125 72.90625 
Q 44.578125 72.90625 50.734375 67.671875 
Q 56.890625 62.453125 56.890625 51.90625 
Q 56.890625 45.015625 53.6875 40.46875 
Q 50.484375 35.9375 44.390625 34.1875 
M 19.671875 64.796875 
L 19.671875 38.921875 
L 32.078125 38.921875 
Q 39.203125 38.921875 42.84375 42.21875 
Q 46.484375 45.515625 46.484375 51.90625 
Q 46.484375 58.296875 42.84375 61.546875 
Q 39.203125 64.796875 32.078125 64.796875 
z
" id="DejaVuSans-52"/>
      <path d="M 54.890625 33.015625 
L 54.890625 0 
L 45.90625 0 
L 45.90625 32.71875 
Q 45.90625 40.484375 42.875 44.328125 
Q 39.84375 48.1875 33.796875 48.1875 
Q 26.515625 48.1875 22.3125 43.546875 
Q 18.109375 38.921875 18.109375 30.90625 
L 18.109375 0 
L 9.078125 0 
L 9.078125 54.6875 
L 18.109375 54.6875 
L 18.109375 46.1875 
Q 21.34375 51.125 25.703125 53.5625 
Q 30.078125 56 35.796875 56 
Q 45.21875 56 50.046875 50.171875 
Q 54.890625 44.34375 54.890625 33.015625 
" id="DejaVuSans-6e"/>
      <path d="M 18.109375 8.203125 
L 18.109375 -20.796875 
L 9.078125 -20.796875 
L 9.078125 54.6875 
L 18.109375 54.6875 
L 18.109375 46.390625 
Q 20.953125 51.265625 25.265625 53.625 
Q 29.59375 56 35.59375 56 
Q 45.5625 56 51.78125 48.09375 
Q 58.015625 40.1875 58.015625 27.296875 
Q 58.015625 14.40625 51.78125 6.484375 
Q 45.5625 -1.421875 35.59375 -1.421875 
Q 29.59375 -1.421875 25.265625 0.953125 
Q 20.953125 3.328125 18.109375 8.203125 
M 48.6875 27.296875 
Q 48.6875 37.203125 44.609375 42.84375 
Q 40.53125 48.484375 33.40625 48.484375 
Q 26.265625 48.484375 22.1875 42.84375 
Q 18.109375 37.203125 18.109375 27.296875 
Q 18.109375 17.390625 22.1875 11.75 
Q 26.265625 6.109375 33.40625 6.109375 
Q 40.53125 6.109375 44.609375 11.75 
Q 48.6875 17.390625 48.6875 27.296875 
" id="DejaVuSans-70"/>
      <path d="M 44.28125 53.078125 
L 44.28125 44.578125 
Q 40.484375 46.53125 36.375 47.5 
Q 32.28125 48.484375 27.875 48.484375 
Q 21.1875 48.484375 17.84375 46.4375 
Q 14.5 44.390625 14.5 40.28125 
Q 14.5 37.15625 16.890625 35.375 
Q 19.28125 33.59375 26.515625 31.984375 
L 29.59375 31.296875 
Q 39.15625 29.25 43.1875 25.515625 
Q 47.21875 21.78125 47.21875 15.09375 
Q 47.21875 7.46875 41.1875 3.015625 
Q 35.15625 -1.421875 24.609375 -1.421875 
Q 20.21875 -1.421875 15.453125 -0.5625 
Q 10.6875 0.296875 5.421875 2 
L 5.421875 11.28125 
Q 10.40625 8.6875 15.234375 7.390625 
Q 20.0625 6.109375 24.8125 6.109375 
Q 31.15625 6.109375 34.5625 8.28125 
Q 37.984375 10.453125 37.984375 14.40625 
Q 37.984375 18.0625 35.515625 20.015625 
Q 33.0625 21.96875 24.703125 23.78125 
L 21.578125 24.515625 
Q 13.234375 26.265625 9.515625 29.90625 
Q 5.8125 33.546875 5.8125 39.890625 
Q 5.8125 47.609375 11.28125 51.796875 
Q 16.75 56 26.8125 56 
Q 31.78125 56 36.171875 55.265625 
Q 40.578125 54.546875 44.28125 53.078125 
" id="DejaVuSans-73"/>
     </defs>
     <g transform="translate(47.47015625 131.35953125)rotate(-90.0)scale(0.11 -0.11)">
      <use xlink:href="#DejaVuSans-52"/>
      <use x="69.419921875" xlink:href="#DejaVuSans-65"/>
      <use x="130.943359375" xlink:href="#DejaVuSans-73"/>
      <use x="183.04296875" xlink:href="#DejaVuSans-70"/>
      <use x="246.51953125" xlink:href="#DejaVuSans-6f"/>
      <use x="307.701171875" xlink:href="#DejaVuSans-6e"/>
      <use x="371.080078125" xlink:href="#DejaVuSans-73"/>
      <use x="423.1796875" xlink:href="#DejaVuSans-65"/>
     </g>
    </g>
   </g>
   <g id="line2d_32">
    <path clip-path="url(#pfaa3354c65)" d="M 83.25 185.7 
L 91.35 185.7 
L 99.45 185.7 
L 107.55 113.406997 
L 115.65 71.2059 
L 123.75 50.512756 
L 131.85 39.145443 
L 139.95 35.298153 
L 148.05 34.436111 
L 156.15 34.029694 
L 164.25 37.722554 
L 172.35 45.975868 
L 180.45 54.06615 
L 188.55 62.216486 
L 196.65 65.663626 
L 204.75 71.100054 
L 212.85 80.307183 
L 220.95 90.286714 
L 229.05 97.986879 
L 237.15 101.613039 
L 245.25 102.394733 
L 253.35 103.077489 
L 261.45 103.620994 
L 269.55 102.767313 
L 277.65 101.423754 
L 285.75 100.424631 
L 293.85 100.527138 
L 301.95 101.216414 
L 310.05 102.859999 
L 318.15 104.377543 
L 326.25 105.906116 
" style="fill:none;stroke:#7a7a7a;stroke-width:2.0;"/>
   </g>
   <g id="line2d_33">
    <path clip-path="url(#pfaa3354c65)" d="M 83.25 185.7 
L 91.35 185.7 
L 99.45 85.588151 
L 107.55 51.775973 
L 115.65 33.717871 
L 123.75 25.964464 
L 131.85 23.7 
L 139.95 28.311035 
L 148.05 41.490974 
L 156.15 53.318092 
L 164.25 57.686865 
L 172.35 60.468501 
L 180.45 63.749396 
L 188.55 73.308497 
L 196.65 79.567438 
L 204.75 90.101476 
L 212.85 103.651351 
L 220.95 116.945824 
L 229.05 128.540543 
L 237.15 135.441115 
L 245.25 139.280875 
L 253.35 142.297687 
L 261.45 143.492268 
L 269.55 143.037456 
L 277.65 142.244622 
L 285.75 141.4615 
L 293.85 141.3443 
L 301.95 141.055168 
L 310.05 140.637422 
L 318.15 140.103264 
L 326.25 140.0324 
" style="fill:none;stroke:#404040;stroke-width:2.0;"/>
   </g>
   <g id="patch_3">
    <path d="M 83.25 23.7 
L 326.25 23.7 
" style="fill:none;stroke:#000000;stroke-linecap:square;stroke-linejoin:miter;"/>
   </g>
   <g id="patch_4">
    <path d="M 326.25 185.7 
L 326.25 23.7 
" style="fill:none;stroke:#000000;stroke-linecap:square;stroke-linejoin:miter;"/>
   </g>
   <g id="patch_5">
    <path d="M 83.25 185.7 
L 326.25 185.7 
" style="fill:none;stroke:#000000;stroke-linecap:square;stroke-linejoin:miter;"/>
   </g>
   <g id="patch_6">
    <path d="M 83.25 185.7 
L 83.25 23.7 
" style="fill:none;stroke:#000000;stroke-linecap:square;stroke-linejoin:miter;"/>
   </g>
   <g id="line2d_34">
    <path clip-path="url(#pfaa3354c65)" d="M 83.25 185.7 
L 91.35 118.205972 
L 99.45 55.486139 
L 107.55 42.955271 
L 115.65 30.088728 
L 123.75 24.567604 
L 131.85 25.393875 
L 139.95 32.23627 
L 148.05 42.906398 
L 156.15 49.880137 
L 164.25 53.655224 
L 172.35 60.561875 
L 180.45 71.230772 
L 188.55 88.675803 
L 196.65 101.92888 
L 204.75 116.294068 
L 212.85 130.862649 
L 220.95 144.176872 
L 229.05 155.348167 
L 237.15 161.749042 
L 245.25 164.579806 
L 253.35 166.39125 
L 261.45 166.749719 
L 269.55 165.671502 
L 277.65 164.010839 
L 285.75 162.128697 
L 293.85 160.53597 
L 301.95 158.800054 
L 310.05 157.218549 
L 318.15 155.946528 
L 326.25 155.422758 
" style="fill:none;stroke:#000000;stroke-width:2.0;"/>
   </g>
   <g id="text_18">
    <!-- Excitatory -->
    <defs>
     <path d="M 9.8125 72.90625 
L 55.90625 72.90625 
L 55.90625 64.59375 
L 19.671875 64.59375 
L 19.671875 43.015625 
L 54.390625 43.015625 
L 54.390625 34.71875 
L 19.671875 34.71875 
L 19.671875 8.296875 
L 56.78125 8.296875 
L 56.78125 0 
L 9.8125 0 
z
" id="DejaVuSans-45"/>
     <path d="M 32.171875 -5.078125 
Q 28.375 -14.84375 24.75 -17.8125 
Q 21.140625 -20.796875 15.09375 -20.796875 
L 7.90625 -20.796875 
L 7.90625 -13.28125 
L 13.1875 -13.28125 
Q 16.890625 -13.28125 18.9375 -11.515625 
Q 21 -9.765625 23.484375 -3.21875 
L 25.09375 0.875 
L 2.984375 54.6875 
L 12.5 54.6875 
L 29.59375 11.921875 
L 46.6875 54.6875 
L 56.203125 54.6875 
z
" id="DejaVuSans-79"/>
     <path d="M 54.890625 54.6875 
L 35.109375 28.078125 
L 55.90625 0 
L 45.3125 0 
L 29.390625 21.484375 
L 13.484375 0 
L 2.875 0 
L 24.125 28.609375 
L 4.6875 54.6875 
L 15.28125 54.6875 
L 29.78125 35.203125 
L 44.28125 54.6875 
z
" id="DejaVuSans-78"/>
     <path d="M 18.3125 70.21875 
L 18.3125 54.6875 
L 36.8125 54.6875 
L 36.8125 47.703125 
L 18.3125 47.703125 
L 18.3125 18.015625 
Q 18.3125 11.328125 20.140625 9.421875 
Q 21.96875 7.515625 27.59375 7.515625 
L 36.8125 7.515625 
L 36.8125 0 
L 27.59375 0 
Q 17.1875 0 13.234375 3.875 
Q 9.28125 7.765625 9.28125 18.015625 
L 9.28125 47.703125 
L 2.6875 47.703125 
L 2.6875 54.6875 
L 9.28125 54.6875 
L 9.28125 70.21875 
z
" id="DejaVuSans-74"/>
     <path d="M 34.28125 27.484375 
Q 23.390625 27.484375 19.1875 25 
Q 14.984375 22.515625 14.984375 16.5 
Q 14.984375 11.71875 18.140625 8.90625 
Q 21.296875 6.109375 26.703125 6.109375 
Q 34.1875 6.109375 38.703125 11.40625 
Q 43.21875 16.703125 43.21875 25.484375 
L 43.21875 27.484375 
z
M 52.203125 31.203125 
L 52.203125 0 
L 43.21875 0 
L 43.21875 8.296875 
Q 40.140625 3.328125 35.546875 0.953125 
Q 30.953125 -1.421875 24.3125 -1.421875 
Q 15.921875 -1.421875 10.953125 3.296875 
Q 6 8.015625 6 15.921875 
Q 6 25.140625 12.171875 29.828125 
Q 18.359375 34.515625 30.609375 34.515625 
L 43.21875 34.515625 
L 43.21875 35.40625 
Q 43.21875 41.609375 39.140625 45 
Q 35.0625 48.390625 27.6875 48.390625 
Q 23 48.390625 18.546875 47.265625 
Q 14.109375 46.140625 10.015625 43.890625 
L 10.015625 52.203125 
Q 14.9375 54.109375 19.578125 55.046875 
Q 24.21875 56 28.609375 56 
Q 40.484375 56 46.34375 49.84375 
Q 52.203125 43.703125 52.203125 31.203125 
" id="DejaVuSans-61"/>
     <path d="M 48.78125 52.59375 
L 48.78125 44.1875 
Q 44.96875 46.296875 41.140625 47.34375 
Q 37.3125 48.390625 33.40625 48.390625 
Q 24.65625 48.390625 19.8125 42.84375 
Q 14.984375 37.3125 14.984375 27.296875 
Q 14.984375 17.28125 19.8125 11.734375 
Q 24.65625 6.203125 33.40625 6.203125 
Q 37.3125 6.203125 41.140625 7.25 
Q 44.96875 8.296875 48.78125 10.40625 
L 48.78125 2.09375 
Q 45.015625 0.34375 40.984375 -0.53125 
Q 36.96875 -1.421875 32.421875 -1.421875 
Q 20.0625 -1.421875 12.78125 6.34375 
Q 5.515625 14.109375 5.515625 27.296875 
Q 5.515625 40.671875 12.859375 48.328125 
Q 20.21875 56 33.015625 56 
Q 37.15625 56 41.109375 55.140625 
Q 45.0625 54.296875 48.78125 52.59375 
" id="DejaVuSans-63"/>
     <path d="M 41.109375 46.296875 
Q 39.59375 47.171875 37.8125 47.578125 
Q 36.03125 48 33.890625 48 
Q 26.265625 48 22.1875 43.046875 
Q 18.109375 38.09375 18.109375 28.8125 
L 18.109375 0 
L 9.078125 0 
L 9.078125 54.6875 
L 18.109375 54.6875 
L 18.109375 46.1875 
Q 20.953125 51.171875 25.484375 53.578125 
Q 30.03125 56 36.53125 56 
Q 37.453125 56 38.578125 55.875 
Q 39.703125 55.765625 41.0625 55.515625 
z
" id="DejaVuSans-72"/>
    </defs>
    <g transform="translate(176.903671875 18.7)scale(0.11 -0.11)">
     <use xlink:href="#DejaVuSans-45"/>
     <use x="63.18359375" xlink:href="#DejaVuSans-78"/>
     <use x="122.34765625" xlink:href="#DejaVuSans-63"/>
     <use x="177.328125" xlink:href="#DejaVuSans-69"/>
     <use x="205.111328125" xlink:href="#DejaVuSans-74"/>
     <use x="244.3203125" xlink:href="#DejaVuSans-61"/>
     <use x="305.599609375" xlink:href="#DejaVuSans-74"/>
     <use x="344.80859375" xlink:href="#DejaVuSans-6f"/>
     <use x="405.990234375" xlink:href="#DejaVuSans-72"/>
     <use x="447.103515625" xlink:href="#DejaVuSans-79"/>
    </g>
   </g>
   <g id="text_19">
    <!-- A -->
    <defs>
     <path d="M 34.1875 63.1875 
L 20.796875 26.90625 
L 47.609375 26.90625 
z
M 28.609375 72.90625 
L 39.796875 72.90625 
L 67.578125 0 
L 57.328125 0 
L 50.6875 18.703125 
L 17.828125 18.703125 
L 11.1875 0 
L 0.78125 0 
z
" id="DejaVuSans-41"/>
    </defs>
    <g transform="translate(14.4 28.0565625)scale(0.18 -0.18)">
     <use xlink:href="#DejaVuSans-41"/>
    </g>
   </g>
  </g>
  <g id="axes_2">
   <g id="patch_7">
    <path d="M 447.75 185.7 
L 690.75 185.7 
L 690.75 23.7 
L 447.75 23.7 
L 447.75 185.7 
z
" style="fill:none;"/>
   </g>
   <g id="line2d_35">
    <path clip-path="url(#p7895ac2adb)" d="M 447.75 185.7 
L 455.85 177.497157 
L 463.95 161.685275 
L 472.05 147.58968 
L 480.15 130.750912 
L 488.25 120.891124 
L 496.35 117.97722 
L 504.45 117.550629 
L 512.55 116.427878 
L 520.65 113.528357 
L 528.75 110.989105 
L 536.85 109.660717 
L 544.95 108.662061 
L 553.05 109.108634 
L 561.15 108.725258 
L 569.25 107.251781 
L 577.35 106.439353 
L 585.45 106.969075 
L 593.55 108.244389 
L 601.65 109.219663 
L 609.75 109.78869 
L 617.85 110.231162 
L 625.95 110.471581 
L 634.05 110.642648 
L 642.15 110.796288 
L 650.25 111.034182 
L 658.35 111.366497 
L 666.45 111.72467 
L 674.55 112.150488 
L 682.65 112.469678 
L 690.75 112.732867 
" style="fill:none;stroke:#b5b5b5;stroke-width:2.0;"/>
   </g>
   <g id="matplotlib.axis_3">
    <g id="xtick_8">
     <g id="line2d_36">
      <path clip-path="url(#p7895ac2adb)" d="M 447.75 185.7 
L 447.75 23.7 
" style="fill:none;stroke:#000000;stroke-dasharray:1.000000,3.000000;stroke-dashoffset:0.0;"/>
     </g>
     <g id="line2d_37">
      <g>
       <use style="stroke:#000000;stroke-width:0.5;" x="447.75" xlink:href="#m1e4bb1310e" y="185.7"/>
      </g>
     </g>
     <g id="text_20">
      <!-- 0.0 -->
      <g transform="translate(439.00328125 198.05828125)scale(0.11 -0.11)">
       <use xlink:href="#DejaVuSans-30"/>
       <use x="63.623046875" xlink:href="#DejaVuSans-2e"/>
       <use x="95.41015625" xlink:href="#DejaVuSans-30"/>
      </g>
     </g>
    </g>
    <g id="xtick_9">
     <g id="line2d_38">
      <path clip-path="url(#p7895ac2adb)" d="M 488.25 185.7 
L 488.25 23.7 
" style="fill:none;stroke:#000000;stroke-dasharray:1.000000,3.000000;stroke-dashoffset:0.0;"/>
     </g>
     <g id="line2d_39">
      <g>
       <use style="stroke:#000000;stroke-width:0.5;" x="488.25" xlink:href="#m1e4bb1310e" y="185.7"/>
      </g>
     </g>
     <g id="text_21">
      <!-- 0.5 -->
      <g transform="translate(479.50328125 198.05828125)scale(0.11 -0.11)">
       <use xlink:href="#DejaVuSans-30"/>
       <use x="63.623046875" xlink:href="#DejaVuSans-2e"/>
       <use x="95.41015625" xlink:href="#DejaVuSans-35"/>
      </g>
     </g>
    </g>
    <g id="xtick_10">
     <g id="line2d_40">
      <path clip-path="url(#p7895ac2adb)" d="M 528.75 185.7 
L 528.75 23.7 
" style="fill:none;stroke:#000000;stroke-dasharray:1.000000,3.000000;stroke-dashoffset:0.0;"/>
     </g>
     <g id="line2d_41">
      <g>
       <use style="stroke:#000000;stroke-width:0.5;" x="528.75" xlink:href="#m1e4bb1310e" y="185.7"/>
      </g>
     </g>
     <g id="text_22">
      <!-- 1.0 -->
      <g transform="translate(520.00328125 198.05828125)scale(0.11 -0.11)">
       <use xlink:href="#DejaVuSans-31"/>
       <use x="63.623046875" xlink:href="#DejaVuSans-2e"/>
       <use x="95.41015625" xlink:href="#DejaVuSans-30"/>
      </g>
     </g>
    </g>
    <g id="xtick_11">
     <g id="line2d_42">
      <path clip-path="url(#p7895ac2adb)" d="M 569.25 185.7 
L 569.25 23.7 
" style="fill:none;stroke:#000000;stroke-dasharray:1.000000,3.000000;stroke-dashoffset:0.0;"/>
     </g>
     <g id="line2d_43">
      <g>
       <use style="stroke:#000000;stroke-width:0.5;" x="569.25" xlink:href="#m1e4bb1310e" y="185.7"/>
      </g>
     </g>
     <g id="text_23">
      <!-- 1.5 -->
      <g transform="translate(560.50328125 198.05828125)scale(0.11 -0.11)">
       <use xlink:href="#DejaVuSans-31"/>
       <use x="63.623046875" xlink:href="#DejaVuSans-2e"/>
       <use x="95.41015625" xlink:href="#DejaVuSans-35"/>
      </g>
     </g>
    </g>
    <g id="xtick_12">
     <g id="line2d_44">
      <path clip-path="url(#p7895ac2adb)" d="M 609.75 185.7 
L 609.75 23.7 
" style="fill:none;stroke:#000000;stroke-dasharray:1.000000,3.000000;stroke-dashoffset:0.0;"/>
     </g>
     <g id="line2d_45">
      <g>
       <use style="stroke:#000000;stroke-width:0.5;" x="609.75" xlink:href="#m1e4bb1310e" y="185.7"/>
      </g>
     </g>
     <g id="text_24">
      <!-- 2.0 -->
      <g transform="translate(601.00328125 198.05828125)scale(0.11 -0.11)">
       <use xlink:href="#DejaVuSans-32"/>
       <use x="63.623046875" xlink:href="#DejaVuSans-2e"/>
       <use x="95.41015625" xlink:href="#DejaVuSans-30"/>
      </g>
     </g>
    </g>
    <g id="xtick_13">
     <g id="line2d_46">
      <path clip-path="url(#p7895ac2adb)" d="M 650.25 185.7 
L 650.25 23.7 
" style="fill:none;stroke:#000000;stroke-dasharray:1.000000,3.000000;stroke-dashoffset:0.0;"/>
     </g>
     <g id="line2d_47">
      <g>
       <use style="stroke:#000000;stroke-width:0.5;" x="650.25" xlink:href="#m1e4bb1310e" y="185.7"/>
      </g>
     </g>
     <g id="text_25">
      <!-- 2.5 -->
      <g transform="translate(641.50328125 198.05828125)scale(0.11 -0.11)">
       <use xlink:href="#DejaVuSans-32"/>
       <use x="63.623046875" xlink:href="#DejaVuSans-2e"/>
       <use x="95.41015625" xlink:href="#DejaVuSans-35"/>
      </g>
     </g>
    </g>
    <g id="xtick_14">
     <g id="line2d_48">
      <path clip-path="url(#p7895ac2adb)" d="M 690.75 185.7 
L 690.75 23.7 
" style="fill:none;stroke:#000000;stroke-dasharray:1.000000,3.000000;stroke-dashoffset:0.0;"/>
     </g>
     <g id="line2d_49">
      <g>
       <use style="stroke:#000000;stroke-width:0.5;" x="690.75" xlink:href="#m1e4bb1310e" y="185.7"/>
      </g>
     </g>
     <g id="text_26">
      <!-- 3.0 -->
      <g transform="translate(682.00328125 198.05828125)scale(0.11 -0.11)">
       <use xlink:href="#DejaVuSans-33"/>
       <use x="63.623046875" xlink:href="#DejaVuSans-2e"/>
       <use x="95.41015625" xlink:href="#DejaVuSans-30"/>
      </g>
     </g>
    </g>
    <g id="text_27">
     <!-- Size -->
     <g transform="translate(557.95953125 213.70421875)scale(0.11 -0.11)">
      <use xlink:href="#DejaVuSans-53"/>
      <use x="63.4765625" xlink:href="#DejaVuSans-69"/>
      <use x="91.259765625" xlink:href="#DejaVuSans-7a"/>
      <use x="143.75" xlink:href="#DejaVuSans-65"/>
     </g>
    </g>
   </g>
   <g id="matplotlib.axis_4">
    <g id="ytick_9">
     <g id="line2d_50">
      <path clip-path="url(#p7895ac2adb)" d="M 447.75 185.7 
L 690.75 185.7 
" style="fill:none;stroke:#000000;stroke-dasharray:1.000000,3.000000;stroke-dashoffset:0.0;"/>
     </g>
     <g id="line2d_51">
      <g>
       <use style="stroke:#000000;stroke-width:0.5;" x="447.75" xlink:href="#m66642a1c13" y="185.7"/>
      </g>
     </g>
     <g id="text_28">
      <!-- 0.0 -->
      <g transform="translate(426.2565625 188.7353125)scale(0.11 -0.11)">
       <use xlink:href="#DejaVuSans-30"/>
       <use x="63.623046875" xlink:href="#DejaVuSans-2e"/>
       <use x="95.41015625" xlink:href="#DejaVuSans-30"/>
      </g>
     </g>
    </g>
    <g id="ytick_10">
     <g id="line2d_52">
      <path clip-path="url(#p7895ac2adb)" d="M 447.75 164.159594 
L 690.75 164.159594 
" style="fill:none;stroke:#000000;stroke-dasharray:1.000000,3.000000;stroke-dashoffset:0.0;"/>
     </g>
     <g id="line2d_53">
      <g>
       <use style="stroke:#000000;stroke-width:0.5;" x="447.75" xlink:href="#m66642a1c13" y="164.159594499"/>
      </g>
     </g>
     <g id="text_29">
      <!-- 0.1 -->
      <g transform="translate(426.2565625 167.194906999)scale(0.11 -0.11)">
       <use xlink:href="#DejaVuSans-30"/>
       <use x="63.623046875" xlink:href="#DejaVuSans-2e"/>
       <use x="95.41015625" xlink:href="#DejaVuSans-31"/>
      </g>
     </g>
    </g>
    <g id="ytick_11">
     <g id="line2d_54">
      <path clip-path="url(#p7895ac2adb)" d="M 447.75 142.619189 
L 690.75 142.619189 
" style="fill:none;stroke:#000000;stroke-dasharray:1.000000,3.000000;stroke-dashoffset:0.0;"/>
     </g>
     <g id="line2d_55">
      <g>
       <use style="stroke:#000000;stroke-width:0.5;" x="447.75" xlink:href="#m66642a1c13" y="142.619188997"/>
      </g>
     </g>
     <g id="text_30">
      <!-- 0.2 -->
      <g transform="translate(426.2565625 145.654501497)scale(0.11 -0.11)">
       <use xlink:href="#DejaVuSans-30"/>
       <use x="63.623046875" xlink:href="#DejaVuSans-2e"/>
       <use x="95.41015625" xlink:href="#DejaVuSans-32"/>
      </g>
     </g>
    </g>
    <g id="ytick_12">
     <g id="line2d_56">
      <path clip-path="url(#p7895ac2adb)" d="M 447.75 121.078783 
L 690.75 121.078783 
" style="fill:none;stroke:#000000;stroke-dasharray:1.000000,3.000000;stroke-dashoffset:0.0;"/>
     </g>
     <g id="line2d_57">
      <g>
       <use style="stroke:#000000;stroke-width:0.5;" x="447.75" xlink:href="#m66642a1c13" y="121.078783496"/>
      </g>
     </g>
     <g id="text_31">
      <!-- 0.3 -->
      <g transform="translate(426.2565625 124.114095996)scale(0.11 -0.11)">
       <use xlink:href="#DejaVuSans-30"/>
       <use x="63.623046875" xlink:href="#DejaVuSans-2e"/>
       <use x="95.41015625" xlink:href="#DejaVuSans-33"/>
      </g>
     </g>
    </g>
    <g id="ytick_13">
     <g id="line2d_58">
      <path clip-path="url(#p7895ac2adb)" d="M 447.75 99.538378 
L 690.75 99.538378 
" style="fill:none;stroke:#000000;stroke-dasharray:1.000000,3.000000;stroke-dashoffset:0.0;"/>
     </g>
     <g id="line2d_59">
      <g>
       <use style="stroke:#000000;stroke-width:0.5;" x="447.75" xlink:href="#m66642a1c13" y="99.5383779944"/>
      </g>
     </g>
     <g id="text_32">
      <!-- 0.4 -->
      <defs>
       <path d="M 37.796875 64.3125 
L 12.890625 25.390625 
L 37.796875 25.390625 
z
M 35.203125 72.90625 
L 47.609375 72.90625 
L 47.609375 25.390625 
L 58.015625 25.390625 
L 58.015625 17.1875 
L 47.609375 17.1875 
L 47.609375 0 
L 37.796875 0 
L 37.796875 17.1875 
L 4.890625 17.1875 
L 4.890625 26.703125 
z
" id="DejaVuSans-34"/>
      </defs>
      <g transform="translate(426.2565625 102.573690494)scale(0.11 -0.11)">
       <use xlink:href="#DejaVuSans-30"/>
       <use x="63.623046875" xlink:href="#DejaVuSans-2e"/>
       <use x="95.41015625" xlink:href="#DejaVuSans-34"/>
      </g>
     </g>
    </g>
    <g id="ytick_14">
     <g id="line2d_60">
      <path clip-path="url(#p7895ac2adb)" d="M 447.75 77.997972 
L 690.75 77.997972 
" style="fill:none;stroke:#000000;stroke-dasharray:1.000000,3.000000;stroke-dashoffset:0.0;"/>
     </g>
     <g id="line2d_61">
      <g>
       <use style="stroke:#000000;stroke-width:0.5;" x="447.75" xlink:href="#m66642a1c13" y="77.9979724929"/>
      </g>
     </g>
     <g id="text_33">
      <!-- 0.5 -->
      <g transform="translate(426.2565625 81.0332849929)scale(0.11 -0.11)">
       <use xlink:href="#DejaVuSans-30"/>
       <use x="63.623046875" xlink:href="#DejaVuSans-2e"/>
       <use x="95.41015625" xlink:href="#DejaVuSans-35"/>
      </g>
     </g>
    </g>
    <g id="ytick_15">
     <g id="line2d_62">
      <path clip-path="url(#p7895ac2adb)" d="M 447.75 56.457567 
L 690.75 56.457567 
" style="fill:none;stroke:#000000;stroke-dasharray:1.000000,3.000000;stroke-dashoffset:0.0;"/>
     </g>
     <g id="line2d_63">
      <g>
       <use style="stroke:#000000;stroke-width:0.5;" x="447.75" xlink:href="#m66642a1c13" y="56.4575669915"/>
      </g>
     </g>
     <g id="text_34">
      <!-- 0.6 -->
      <defs>
       <path d="M 33.015625 40.375 
Q 26.375 40.375 22.484375 35.828125 
Q 18.609375 31.296875 18.609375 23.390625 
Q 18.609375 15.53125 22.484375 10.953125 
Q 26.375 6.390625 33.015625 6.390625 
Q 39.65625 6.390625 43.53125 10.953125 
Q 47.40625 15.53125 47.40625 23.390625 
Q 47.40625 31.296875 43.53125 35.828125 
Q 39.65625 40.375 33.015625 40.375 
M 52.59375 71.296875 
L 52.59375 62.3125 
Q 48.875 64.0625 45.09375 64.984375 
Q 41.3125 65.921875 37.59375 65.921875 
Q 27.828125 65.921875 22.671875 59.328125 
Q 17.53125 52.734375 16.796875 39.40625 
Q 19.671875 43.65625 24.015625 45.921875 
Q 28.375 48.1875 33.59375 48.1875 
Q 44.578125 48.1875 50.953125 41.515625 
Q 57.328125 34.859375 57.328125 23.390625 
Q 57.328125 12.15625 50.6875 5.359375 
Q 44.046875 -1.421875 33.015625 -1.421875 
Q 20.359375 -1.421875 13.671875 8.265625 
Q 6.984375 17.96875 6.984375 36.375 
Q 6.984375 53.65625 15.1875 63.9375 
Q 23.390625 74.21875 37.203125 74.21875 
Q 40.921875 74.21875 44.703125 73.484375 
Q 48.484375 72.75 52.59375 71.296875 
" id="DejaVuSans-36"/>
      </defs>
      <g transform="translate(426.2565625 59.4928794915)scale(0.11 -0.11)">
       <use xlink:href="#DejaVuSans-30"/>
       <use x="63.623046875" xlink:href="#DejaVuSans-2e"/>
       <use x="95.41015625" xlink:href="#DejaVuSans-36"/>
      </g>
     </g>
    </g>
    <g id="ytick_16">
     <g id="line2d_64">
      <path clip-path="url(#p7895ac2adb)" d="M 447.75 34.917161 
L 690.75 34.917161 
" style="fill:none;stroke:#000000;stroke-dasharray:1.000000,3.000000;stroke-dashoffset:0.0;"/>
     </g>
     <g id="line2d_65">
      <g>
       <use style="stroke:#000000;stroke-width:0.5;" x="447.75" xlink:href="#m66642a1c13" y="34.9171614901"/>
      </g>
     </g>
     <g id="text_35">
      <!-- 0.7 -->
      <defs>
       <path d="M 8.203125 72.90625 
L 55.078125 72.90625 
L 55.078125 68.703125 
L 28.609375 0 
L 18.3125 0 
L 43.21875 64.59375 
L 8.203125 64.59375 
z
" id="DejaVuSans-37"/>
      </defs>
      <g transform="translate(426.2565625 37.9524739901)scale(0.11 -0.11)">
       <use xlink:href="#DejaVuSans-30"/>
       <use x="63.623046875" xlink:href="#DejaVuSans-2e"/>
       <use x="95.41015625" xlink:href="#DejaVuSans-37"/>
      </g>
     </g>
    </g>
    <g id="text_36">
     <!-- Response -->
     <g transform="translate(418.96890625 131.35953125)rotate(-90.0)scale(0.11 -0.11)">
      <use xlink:href="#DejaVuSans-52"/>
      <use x="69.419921875" xlink:href="#DejaVuSans-65"/>
      <use x="130.943359375" xlink:href="#DejaVuSans-73"/>
      <use x="183.04296875" xlink:href="#DejaVuSans-70"/>
      <use x="246.51953125" xlink:href="#DejaVuSans-6f"/>
      <use x="307.701171875" xlink:href="#DejaVuSans-6e"/>
      <use x="371.080078125" xlink:href="#DejaVuSans-73"/>
      <use x="423.1796875" xlink:href="#DejaVuSans-65"/>
     </g>
    </g>
   </g>
   <g id="line2d_66">
    <path clip-path="url(#p7895ac2adb)" d="M 447.75 185.7 
L 455.85 170.388804 
L 463.95 145.550458 
L 472.05 109.79318 
L 480.15 88.94411 
L 488.25 80.617532 
L 496.35 78.614496 
L 504.45 79.405113 
L 512.55 79.048846 
L 520.65 76.705723 
L 528.75 74.985383 
L 536.85 75.288895 
L 544.95 77.494218 
L 553.05 83.497764 
L 561.15 88.306453 
L 569.25 90.904773 
L 577.35 93.701552 
L 585.45 96.562024 
L 593.55 99.049088 
L 601.65 100.337337 
L 609.75 100.984425 
L 617.85 101.4643 
L 625.95 101.74105 
L 634.05 101.820937 
L 642.15 101.838618 
L 650.25 101.96405 
L 658.35 102.277418 
L 666.45 102.612583 
L 674.55 103.030422 
L 682.65 103.343427 
L 690.75 103.611813 
" style="fill:none;stroke:#7a7a7a;stroke-width:2.0;"/>
   </g>
   <g id="line2d_67">
    <path clip-path="url(#p7895ac2adb)" d="M 447.75 185.7 
L 455.85 149.189513 
L 463.95 85.461596 
L 472.05 56.593573 
L 480.15 44.270442 
L 488.25 40.085874 
L 496.35 40.562794 
L 504.45 44.084216 
L 512.55 47.945897 
L 520.65 49.389802 
L 528.75 48.901892 
L 536.85 50.308544 
L 544.95 54.671057 
L 553.05 65.425432 
L 561.15 75.212559 
L 569.25 81.206352 
L 577.35 85.736834 
L 585.45 89.534169 
L 593.55 92.648157 
L 601.65 94.228414 
L 609.75 95.095726 
L 617.85 95.675291 
L 625.95 95.938815 
L 634.05 96.055241 
L 642.15 96.106263 
L 650.25 96.18934 
L 658.35 96.360962 
L 666.45 96.450576 
L 674.55 96.465929 
L 682.65 96.406521 
L 690.75 96.400547 
" style="fill:none;stroke:#404040;stroke-width:2.0;"/>
   </g>
   <g id="patch_8">
    <path d="M 447.75 23.7 
L 690.75 23.7 
" style="fill:none;stroke:#000000;stroke-linecap:square;stroke-linejoin:miter;"/>
   </g>
   <g id="patch_9">
    <path d="M 690.75 185.7 
L 690.75 23.7 
" style="fill:none;stroke:#000000;stroke-linecap:square;stroke-linejoin:miter;"/>
   </g>
   <g id="patch_10">
    <path d="M 447.75 185.7 
L 690.75 185.7 
" style="fill:none;stroke:#000000;stroke-linecap:square;stroke-linejoin:miter;"/>
   </g>
   <g id="patch_11">
    <path d="M 447.75 185.7 
L 447.75 23.7 
" style="fill:none;stroke:#000000;stroke-linecap:square;stroke-linejoin:miter;"/>
   </g>
   <g id="line2d_68">
    <path clip-path="url(#p7895ac2adb)" d="M 447.75 185.7 
L 455.85 107.11737 
L 463.95 53.126598 
L 472.05 34.543363 
L 480.15 26.120302 
L 488.25 23.7 
L 496.35 26.086616 
L 504.45 31.228151 
L 512.55 36.217717 
L 520.65 38.136213 
L 528.75 38.476419 
L 536.85 41.89263 
L 544.95 49.412895 
L 553.05 63.621772 
L 561.15 75.042779 
L 569.25 81.05815 
L 577.35 85.340985 
L 585.45 88.777793 
L 593.55 91.533275 
L 601.65 92.847897 
L 609.75 93.498367 
L 617.85 93.887068 
L 625.95 94.056953 
L 634.05 94.156134 
L 642.15 94.195915 
L 650.25 94.273429 
L 658.35 94.376997 
L 666.45 94.398159 
L 674.55 94.364547 
L 682.65 94.277377 
L 690.75 94.240755 
" style="fill:none;stroke:#000000;stroke-width:2.0;"/>
   </g>
   <g id="text_37">
    <!-- PV Inhibitory -->
    <defs>
     <path d="M 9.8125 72.90625 
L 19.671875 72.90625 
L 19.671875 0 
L 9.8125 0 
z
" id="DejaVuSans-49"/>
     <path id="DejaVuSans-20"/>
     <path d="M 54.890625 33.015625 
L 54.890625 0 
L 45.90625 0 
L 45.90625 32.71875 
Q 45.90625 40.484375 42.875 44.328125 
Q 39.84375 48.1875 33.796875 48.1875 
Q 26.515625 48.1875 22.3125 43.546875 
Q 18.109375 38.921875 18.109375 30.90625 
L 18.109375 0 
L 9.078125 0 
L 9.078125 75.984375 
L 18.109375 75.984375 
L 18.109375 46.1875 
Q 21.34375 51.125 25.703125 53.5625 
Q 30.078125 56 35.796875 56 
Q 45.21875 56 50.046875 50.171875 
Q 54.890625 44.34375 54.890625 33.015625 
" id="DejaVuSans-68"/>
     <path d="M 19.671875 64.796875 
L 19.671875 37.40625 
L 32.078125 37.40625 
Q 38.96875 37.40625 42.71875 40.96875 
Q 46.484375 44.53125 46.484375 51.125 
Q 46.484375 57.671875 42.71875 61.234375 
Q 38.96875 64.796875 32.078125 64.796875 
z
M 9.8125 72.90625 
L 32.078125 72.90625 
Q 44.34375 72.90625 50.609375 67.359375 
Q 56.890625 61.8125 56.890625 51.125 
Q 56.890625 40.328125 50.609375 34.8125 
Q 44.34375 29.296875 32.078125 29.296875 
L 19.671875 29.296875 
L 19.671875 0 
L 9.8125 0 
z
" id="DejaVuSans-50"/>
     <path d="M 48.6875 27.296875 
Q 48.6875 37.203125 44.609375 42.84375 
Q 40.53125 48.484375 33.40625 48.484375 
Q 26.265625 48.484375 22.1875 42.84375 
Q 18.109375 37.203125 18.109375 27.296875 
Q 18.109375 17.390625 22.1875 11.75 
Q 26.265625 6.109375 33.40625 6.109375 
Q 40.53125 6.109375 44.609375 11.75 
Q 48.6875 17.390625 48.6875 27.296875 
M 18.109375 46.390625 
Q 20.953125 51.265625 25.265625 53.625 
Q 29.59375 56 35.59375 56 
Q 45.5625 56 51.78125 48.09375 
Q 58.015625 40.1875 58.015625 27.296875 
Q 58.015625 14.40625 51.78125 6.484375 
Q 45.5625 -1.421875 35.59375 -1.421875 
Q 29.59375 -1.421875 25.265625 0.953125 
Q 20.953125 3.328125 18.109375 8.203125 
L 18.109375 0 
L 9.078125 0 
L 9.078125 75.984375 
L 18.109375 75.984375 
z
" id="DejaVuSans-62"/>
     <path d="M 28.609375 0 
L 0.78125 72.90625 
L 11.078125 72.90625 
L 34.1875 11.53125 
L 57.328125 72.90625 
L 67.578125 72.90625 
L 39.796875 0 
z
" id="DejaVuSans-56"/>
    </defs>
    <g transform="translate(534.24421875 18.7)scale(0.11 -0.11)">
     <use xlink:href="#DejaVuSans-50"/>
     <use x="60.302734375" xlink:href="#DejaVuSans-56"/>
     <use x="128.7109375" xlink:href="#DejaVuSans-20"/>
     <use x="160.498046875" xlink:href="#DejaVuSans-49"/>
     <use x="189.990234375" xlink:href="#DejaVuSans-6e"/>
     <use x="253.369140625" xlink:href="#DejaVuSans-68"/>
     <use x="316.748046875" xlink:href="#DejaVuSans-69"/>
     <use x="344.53125" xlink:href="#DejaVuSans-62"/>
     <use x="408.0078125" xlink:href="#DejaVuSans-69"/>
     <use x="435.791015625" xlink:href="#DejaVuSans-74"/>
     <use x="475.0" xlink:href="#DejaVuSans-6f"/>
     <use x="536.181640625" xlink:href="#DejaVuSans-72"/>
     <use x="577.294921875" xlink:href="#DejaVuSans-79"/>
    </g>
   </g>
   <g id="text_38">
    <!-- B -->
    <defs>
     <path d="M 19.671875 34.8125 
L 19.671875 8.109375 
L 35.5 8.109375 
Q 43.453125 8.109375 47.28125 11.40625 
Q 51.125 14.703125 51.125 21.484375 
Q 51.125 28.328125 47.28125 31.5625 
Q 43.453125 34.8125 35.5 34.8125 
z
M 19.671875 64.796875 
L 19.671875 42.828125 
L 34.28125 42.828125 
Q 41.5 42.828125 45.03125 45.53125 
Q 48.578125 48.25 48.578125 53.8125 
Q 48.578125 59.328125 45.03125 62.0625 
Q 41.5 64.796875 34.28125 64.796875 
z
M 9.8125 72.90625 
L 35.015625 72.90625 
Q 46.296875 72.90625 52.390625 68.21875 
Q 58.5 63.53125 58.5 54.890625 
Q 58.5 48.1875 55.375 44.234375 
Q 52.25 40.28125 46.1875 39.3125 
Q 53.46875 37.75 57.5 32.78125 
Q 61.53125 27.828125 61.53125 20.40625 
Q 61.53125 10.640625 54.890625 5.3125 
Q 48.25 0 35.984375 0 
L 9.8125 0 
z
" id="DejaVuSans-42"/>
    </defs>
    <g transform="translate(378.9 28.0565625)scale(0.18 -0.18)">
     <use xlink:href="#DejaVuSans-42"/>
    </g>
   </g>
  </g>
  <g id="axes_3">
   <g id="patch_12">
    <path d="M 812.25 185.7 
L 1055.25 185.7 
L 1055.25 23.7 
L 812.25 23.7 
L 812.25 185.7 
z
" style="fill:none;"/>
   </g>
   <g id="line2d_69">
    <path clip-path="url(#pc01b475c28)" d="M 812.25 185.7 
L 820.35 185.7 
L 828.45 185.699399 
L 836.55 185.127723 
L 844.65 171.810065 
L 852.75 163.177709 
L 860.85 159.583132 
L 868.95 158.407674 
L 877.05 157.245001 
L 885.15 154.707498 
L 893.25 153.33423 
L 901.35 152.253545 
L 909.45 150.730371 
L 917.55 146.879326 
L 925.65 138.905692 
L 933.75 128.1165 
L 941.85 111.455405 
L 949.95 95.50175 
L 958.05 81.960695 
L 966.15 73.903235 
L 974.25 69.038375 
L 982.35 64.183329 
L 990.45 61.70735 
L 998.55 60.530293 
L 1006.65 59.010744 
L 1014.75 57.509232 
L 1022.85 53.378783 
L 1030.95 49.544074 
L 1039.05 46.941475 
L 1047.15 45.954239 
L 1055.25 44.684458 
" style="fill:none;stroke:#b5b5b5;stroke-width:2.0;"/>
   </g>
   <g id="matplotlib.axis_5">
    <g id="xtick_15">
     <g id="line2d_70">
      <path clip-path="url(#pc01b475c28)" d="M 812.25 185.7 
L 812.25 23.7 
" style="fill:none;stroke:#000000;stroke-dasharray:1.000000,3.000000;stroke-dashoffset:0.0;"/>
     </g>
     <g id="line2d_71">
      <g>
       <use style="stroke:#000000;stroke-width:0.5;" x="812.25" xlink:href="#m1e4bb1310e" y="185.7"/>
      </g>
     </g>
     <g id="text_39">
      <!-- 0.0 -->
      <g transform="translate(803.50328125 198.05828125)scale(0.11 -0.11)">
       <use xlink:href="#DejaVuSans-30"/>
       <use x="63.623046875" xlink:href="#DejaVuSans-2e"/>
       <use x="95.41015625" xlink:href="#DejaVuSans-30"/>
      </g>
     </g>
    </g>
    <g id="xtick_16">
     <g id="line2d_72">
      <path clip-path="url(#pc01b475c28)" d="M 852.75 185.7 
L 852.75 23.7 
" style="fill:none;stroke:#000000;stroke-dasharray:1.000000,3.000000;stroke-dashoffset:0.0;"/>
     </g>
     <g id="line2d_73">
      <g>
       <use style="stroke:#000000;stroke-width:0.5;" x="852.75" xlink:href="#m1e4bb1310e" y="185.7"/>
      </g>
     </g>
     <g id="text_40">
      <!-- 0.5 -->
      <g transform="translate(844.00328125 198.05828125)scale(0.11 -0.11)">
       <use xlink:href="#DejaVuSans-30"/>
       <use x="63.623046875" xlink:href="#DejaVuSans-2e"/>
       <use x="95.41015625" xlink:href="#DejaVuSans-35"/>
      </g>
     </g>
    </g>
    <g id="xtick_17">
     <g id="line2d_74">
      <path clip-path="url(#pc01b475c28)" d="M 893.25 185.7 
L 893.25 23.7 
" style="fill:none;stroke:#000000;stroke-dasharray:1.000000,3.000000;stroke-dashoffset:0.0;"/>
     </g>
     <g id="line2d_75">
      <g>
       <use style="stroke:#000000;stroke-width:0.5;" x="893.25" xlink:href="#m1e4bb1310e" y="185.7"/>
      </g>
     </g>
     <g id="text_41">
      <!-- 1.0 -->
      <g transform="translate(884.50328125 198.05828125)scale(0.11 -0.11)">
       <use xlink:href="#DejaVuSans-31"/>
       <use x="63.623046875" xlink:href="#DejaVuSans-2e"/>
       <use x="95.41015625" xlink:href="#DejaVuSans-30"/>
      </g>
     </g>
    </g>
    <g id="xtick_18">
     <g id="line2d_76">
      <path clip-path="url(#pc01b475c28)" d="M 933.75 185.7 
L 933.75 23.7 
" style="fill:none;stroke:#000000;stroke-dasharray:1.000000,3.000000;stroke-dashoffset:0.0;"/>
     </g>
     <g id="line2d_77">
      <g>
       <use style="stroke:#000000;stroke-width:0.5;" x="933.75" xlink:href="#m1e4bb1310e" y="185.7"/>
      </g>
     </g>
     <g id="text_42">
      <!-- 1.5 -->
      <g transform="translate(925.00328125 198.05828125)scale(0.11 -0.11)">
       <use xlink:href="#DejaVuSans-31"/>
       <use x="63.623046875" xlink:href="#DejaVuSans-2e"/>
       <use x="95.41015625" xlink:href="#DejaVuSans-35"/>
      </g>
     </g>
    </g>
    <g id="xtick_19">
     <g id="line2d_78">
      <path clip-path="url(#pc01b475c28)" d="M 974.25 185.7 
L 974.25 23.7 
" style="fill:none;stroke:#000000;stroke-dasharray:1.000000,3.000000;stroke-dashoffset:0.0;"/>
     </g>
     <g id="line2d_79">
      <g>
       <use style="stroke:#000000;stroke-width:0.5;" x="974.25" xlink:href="#m1e4bb1310e" y="185.7"/>
      </g>
     </g>
     <g id="text_43">
      <!-- 2.0 -->
      <g transform="translate(965.50328125 198.05828125)scale(0.11 -0.11)">
       <use xlink:href="#DejaVuSans-32"/>
       <use x="63.623046875" xlink:href="#DejaVuSans-2e"/>
       <use x="95.41015625" xlink:href="#DejaVuSans-30"/>
      </g>
     </g>
    </g>
    <g id="xtick_20">
     <g id="line2d_80">
      <path clip-path="url(#pc01b475c28)" d="M 1014.75 185.7 
L 1014.75 23.7 
" style="fill:none;stroke:#000000;stroke-dasharray:1.000000,3.000000;stroke-dashoffset:0.0;"/>
     </g>
     <g id="line2d_81">
      <g>
       <use style="stroke:#000000;stroke-width:0.5;" x="1014.75" xlink:href="#m1e4bb1310e" y="185.7"/>
      </g>
     </g>
     <g id="text_44">
      <!-- 2.5 -->
      <g transform="translate(1006.00328125 198.05828125)scale(0.11 -0.11)">
       <use xlink:href="#DejaVuSans-32"/>
       <use x="63.623046875" xlink:href="#DejaVuSans-2e"/>
       <use x="95.41015625" xlink:href="#DejaVuSans-35"/>
      </g>
     </g>
    </g>
    <g id="xtick_21">
     <g id="line2d_82">
      <path clip-path="url(#pc01b475c28)" d="M 1055.25 185.7 
L 1055.25 23.7 
" style="fill:none;stroke:#000000;stroke-dasharray:1.000000,3.000000;stroke-dashoffset:0.0;"/>
     </g>
     <g id="line2d_83">
      <g>
       <use style="stroke:#000000;stroke-width:0.5;" x="1055.25" xlink:href="#m1e4bb1310e" y="185.7"/>
      </g>
     </g>
     <g id="text_45">
      <!-- 3.0 -->
      <g transform="translate(1046.50328125 198.05828125)scale(0.11 -0.11)">
       <use xlink:href="#DejaVuSans-33"/>
       <use x="63.623046875" xlink:href="#DejaVuSans-2e"/>
       <use x="95.41015625" xlink:href="#DejaVuSans-30"/>
      </g>
     </g>
    </g>
    <g id="text_46">
     <!-- Size -->
     <g transform="translate(922.45953125 213.70421875)scale(0.11 -0.11)">
      <use xlink:href="#DejaVuSans-53"/>
      <use x="63.4765625" xlink:href="#DejaVuSans-69"/>
      <use x="91.259765625" xlink:href="#DejaVuSans-7a"/>
      <use x="143.75" xlink:href="#DejaVuSans-65"/>
     </g>
    </g>
   </g>
   <g id="matplotlib.axis_6">
    <g id="ytick_17">
     <g id="text_47">
      <!-- 0.0 -->
      <g transform="translate(790.7565625 188.7375676)scale(0.11 -0.11)">
       <use xlink:href="#DejaVuSans-30"/>
       <use x="63.623046875" xlink:href="#DejaVuSans-2e"/>
       <use x="95.41015625" xlink:href="#DejaVuSans-30"/>
      </g>
     </g>
    </g>
    <g id="ytick_18">
     <g id="line2d_84">
      <path clip-path="url(#pc01b475c28)" d="M 812.25 154.441441 
L 1055.25 154.441441 
" style="fill:none;stroke:#000000;stroke-dasharray:1.000000,3.000000;stroke-dashoffset:0.0;"/>
     </g>
     <g id="line2d_85">
      <g>
       <use style="stroke:#000000;stroke-width:0.5;" x="812.25" xlink:href="#m66642a1c13" y="154.441441064"/>
      </g>
     </g>
     <g id="text_48">
      <!-- 0.1 -->
      <g transform="translate(790.7565625 157.476753564)scale(0.11 -0.11)">
       <use xlink:href="#DejaVuSans-30"/>
       <use x="63.623046875" xlink:href="#DejaVuSans-2e"/>
       <use x="95.41015625" xlink:href="#DejaVuSans-31"/>
      </g>
     </g>
    </g>
    <g id="ytick_19">
     <g id="line2d_86">
      <path clip-path="url(#pc01b475c28)" d="M 812.25 123.180627 
L 1055.25 123.180627 
" style="fill:none;stroke:#000000;stroke-dasharray:1.000000,3.000000;stroke-dashoffset:0.0;"/>
     </g>
     <g id="line2d_87">
      <g>
       <use style="stroke:#000000;stroke-width:0.5;" x="812.25" xlink:href="#m66642a1c13" y="123.180627027"/>
      </g>
     </g>
     <g id="text_49">
      <!-- 0.2 -->
      <g transform="translate(790.7565625 126.215939527)scale(0.11 -0.11)">
       <use xlink:href="#DejaVuSans-30"/>
       <use x="63.623046875" xlink:href="#DejaVuSans-2e"/>
       <use x="95.41015625" xlink:href="#DejaVuSans-32"/>
      </g>
     </g>
    </g>
    <g id="ytick_20">
     <g id="line2d_88">
      <path clip-path="url(#pc01b475c28)" d="M 812.25 91.919813 
L 1055.25 91.919813 
" style="fill:none;stroke:#000000;stroke-dasharray:1.000000,3.000000;stroke-dashoffset:0.0;"/>
     </g>
     <g id="line2d_89">
      <g>
       <use style="stroke:#000000;stroke-width:0.5;" x="812.25" xlink:href="#m66642a1c13" y="91.9198129903"/>
      </g>
     </g>
     <g id="text_50">
      <!-- 0.3 -->
      <g transform="translate(790.7565625 94.9551254903)scale(0.11 -0.11)">
       <use xlink:href="#DejaVuSans-30"/>
       <use x="63.623046875" xlink:href="#DejaVuSans-2e"/>
       <use x="95.41015625" xlink:href="#DejaVuSans-33"/>
      </g>
     </g>
    </g>
    <g id="ytick_21">
     <g id="line2d_90">
      <path clip-path="url(#pc01b475c28)" d="M 812.25 60.658999 
L 1055.25 60.658999 
" style="fill:none;stroke:#000000;stroke-dasharray:1.000000,3.000000;stroke-dashoffset:0.0;"/>
     </g>
     <g id="line2d_91">
      <g>
       <use style="stroke:#000000;stroke-width:0.5;" x="812.25" xlink:href="#m66642a1c13" y="60.6589989537"/>
      </g>
     </g>
     <g id="text_51">
      <!-- 0.4 -->
      <g transform="translate(790.7565625 63.6943114537)scale(0.11 -0.11)">
       <use xlink:href="#DejaVuSans-30"/>
       <use x="63.623046875" xlink:href="#DejaVuSans-2e"/>
       <use x="95.41015625" xlink:href="#DejaVuSans-34"/>
      </g>
     </g>
    </g>
    <g id="ytick_22">
     <g id="line2d_92">
      <path clip-path="url(#pc01b475c28)" d="M 812.25 29.398185 
L 1055.25 29.398185 
" style="fill:none;stroke:#000000;stroke-dasharray:1.000000,3.000000;stroke-dashoffset:0.0;"/>
     </g>
     <g id="line2d_93">
      <g>
       <use style="stroke:#000000;stroke-width:0.5;" x="812.25" xlink:href="#m66642a1c13" y="29.3981849171"/>
      </g>
     </g>
     <g id="text_52">
      <!-- 0.5 -->
      <g transform="translate(790.7565625 32.4334974171)scale(0.11 -0.11)">
       <use xlink:href="#DejaVuSans-30"/>
       <use x="63.623046875" xlink:href="#DejaVuSans-2e"/>
       <use x="95.41015625" xlink:href="#DejaVuSans-35"/>
      </g>
     </g>
    </g>
    <g id="text_53">
     <!-- Response -->
     <g transform="translate(783.46890625 131.35953125)rotate(-90.0)scale(0.11 -0.11)">
      <use xlink:href="#DejaVuSans-52"/>
      <use x="69.419921875" xlink:href="#DejaVuSans-65"/>
      <use x="130.943359375" xlink:href="#DejaVuSans-73"/>
      <use x="183.04296875" xlink:href="#DejaVuSans-70"/>
      <use x="246.51953125" xlink:href="#DejaVuSans-6f"/>
      <use x="307.701171875" xlink:href="#DejaVuSans-6e"/>
      <use x="371.080078125" xlink:href="#DejaVuSans-73"/>
      <use x="423.1796875" xlink:href="#DejaVuSans-65"/>
     </g>
    </g>
   </g>
   <g id="line2d_94">
    <path clip-path="url(#pc01b475c28)" d="M 812.25 185.7 
L 820.35 185.7 
L 828.45 185.035792 
L 836.55 161.408824 
L 844.65 144.473114 
L 852.75 134.574873 
L 860.85 128.412871 
L 868.95 124.585889 
L 877.05 119.014136 
L 885.15 109.562496 
L 893.25 102.036398 
L 901.35 98.543046 
L 909.45 96.7107 
L 917.55 92.90826 
L 925.65 79.313626 
L 933.75 55.106038 
L 941.85 38.849438 
L 949.95 28.384459 
L 958.05 23.7 
L 966.15 24.670739 
L 974.25 28.403468 
L 982.35 32.363691 
L 990.45 34.930565 
L 998.55 39.549294 
L 1006.65 45.643233 
L 1014.75 51.70247 
L 1022.85 58.440295 
L 1030.95 65.70323 
L 1039.05 73.521847 
L 1047.15 79.27359 
L 1055.25 82.398237 
" style="fill:none;stroke:#7a7a7a;stroke-width:2.0;"/>
   </g>
   <g id="line2d_95">
    <path clip-path="url(#pc01b475c28)" d="M 812.25 185.7 
L 820.35 185.305856 
L 828.45 147.748935 
L 836.55 119.190487 
L 844.65 98.193436 
L 852.75 86.352777 
L 860.85 73.580458 
L 868.95 64.438846 
L 877.05 59.229454 
L 885.15 56.587557 
L 893.25 64.267249 
L 901.35 76.99865 
L 909.45 92.360449 
L 917.55 102.103021 
L 925.65 93.524683 
L 933.75 81.754161 
L 941.85 71.697325 
L 949.95 64.129363 
L 958.05 58.382733 
L 966.15 55.544465 
L 974.25 55.282114 
L 982.35 55.361869 
L 990.45 56.144541 
L 998.55 59.892785 
L 1006.65 64.948622 
L 1014.75 70.133344 
L 1022.85 74.523218 
L 1030.95 77.841925 
L 1039.05 80.202866 
L 1047.15 81.630648 
L 1055.25 82.021276 
" style="fill:none;stroke:#404040;stroke-width:2.0;"/>
   </g>
   <g id="patch_13">
    <path d="M 812.25 23.7 
L 1055.25 23.7 
" style="fill:none;stroke:#000000;stroke-linecap:square;stroke-linejoin:miter;"/>
   </g>
   <g id="patch_14">
    <path d="M 1055.25 185.7 
L 1055.25 23.7 
" style="fill:none;stroke:#000000;stroke-linecap:square;stroke-linejoin:miter;"/>
   </g>
   <g id="patch_15">
    <path d="M 812.25 185.7 
L 1055.25 185.7 
" style="fill:none;stroke:#000000;stroke-linecap:square;stroke-linejoin:miter;"/>
   </g>
   <g id="patch_16">
    <path d="M 812.25 185.7 
L 812.25 23.7 
" style="fill:none;stroke:#000000;stroke-linecap:square;stroke-linejoin:miter;"/>
   </g>
   <g id="line2d_96">
    <path clip-path="url(#pc01b475c28)" d="M 812.25 185.7 
L 820.35 162.532073 
L 828.45 117.347753 
L 836.55 95.064046 
L 844.65 80.261486 
L 852.75 72.189109 
L 860.85 63.18021 
L 868.95 60.26794 
L 877.05 64.443125 
L 885.15 71.754144 
L 893.25 83.820682 
L 901.35 94.74278 
L 909.45 103.871245 
L 917.55 104.614444 
L 925.65 91.974004 
L 933.75 78.43911 
L 941.85 67.127222 
L 949.95 57.243898 
L 958.05 48.561686 
L 966.15 42.953438 
L 974.25 40.815991 
L 982.35 39.498358 
L 990.45 39.795886 
L 998.55 43.649808 
L 1006.65 48.847308 
L 1014.75 54.121861 
L 1022.85 58.376086 
L 1030.95 61.708937 
L 1039.05 64.268337 
L 1047.15 66.007465 
L 1055.25 66.617663 
" style="fill:none;stroke:#000000;stroke-width:2.0;"/>
   </g>
   <g id="text_54">
    <!-- Sst Inhibitory -->
    <g transform="translate(897.309921875 18.7)scale(0.11 -0.11)">
     <use xlink:href="#DejaVuSans-53"/>
     <use x="63.4765625" xlink:href="#DejaVuSans-73"/>
     <use x="115.576171875" xlink:href="#DejaVuSans-74"/>
     <use x="154.78515625" xlink:href="#DejaVuSans-20"/>
     <use x="186.572265625" xlink:href="#DejaVuSans-49"/>
     <use x="216.064453125" xlink:href="#DejaVuSans-6e"/>
     <use x="279.443359375" xlink:href="#DejaVuSans-68"/>
     <use x="342.822265625" xlink:href="#DejaVuSans-69"/>
     <use x="370.60546875" xlink:href="#DejaVuSans-62"/>
     <use x="434.08203125" xlink:href="#DejaVuSans-69"/>
     <use x="461.865234375" xlink:href="#DejaVuSans-74"/>
     <use x="501.07421875" xlink:href="#DejaVuSans-6f"/>
     <use x="562.255859375" xlink:href="#DejaVuSans-72"/>
     <use x="603.369140625" xlink:href="#DejaVuSans-79"/>
    </g>
   </g>
   <g id="text_55">
    <!-- C -->
    <defs>
     <path d="M 64.40625 67.28125 
L 64.40625 56.890625 
Q 59.421875 61.53125 53.78125 63.8125 
Q 48.140625 66.109375 41.796875 66.109375 
Q 29.296875 66.109375 22.65625 58.46875 
Q 16.015625 50.828125 16.015625 36.375 
Q 16.015625 21.96875 22.65625 14.328125 
Q 29.296875 6.6875 41.796875 6.6875 
Q 48.140625 6.6875 53.78125 8.984375 
Q 59.421875 11.28125 64.40625 15.921875 
L 64.40625 5.609375 
Q 59.234375 2.09375 53.4375 0.328125 
Q 47.65625 -1.421875 41.21875 -1.421875 
Q 24.65625 -1.421875 15.125 8.703125 
Q 5.609375 18.84375 5.609375 36.375 
Q 5.609375 53.953125 15.125 64.078125 
Q 24.65625 74.21875 41.21875 74.21875 
Q 47.75 74.21875 53.53125 72.484375 
Q 59.328125 70.75 64.40625 67.28125 
" id="DejaVuSans-43"/>
    </defs>
    <g transform="translate(743.4 28.0565625)scale(0.18 -0.18)">
     <use xlink:href="#DejaVuSans-43"/>
    </g>
   </g>
   <g id="legend_1">
    <g id="patch_17">
     <path d="M 1073.8141 100.056101 
L 1124.480238 100.056101 
Q 1126.312838 100.056101 1126.312838 98.223501 
L 1126.312838 30.1141 
Q 1126.312838 28.2815 1124.480238 28.2815 
L 1073.8141 28.2815 
Q 1071.9815 28.2815 1071.9815 30.1141 
L 1071.9815 98.223501 
Q 1071.9815 100.056101 1073.8141 100.056101 
z
" style="fill:#ffffff;stroke:#000000;stroke-linejoin:miter;"/>
    </g>
    <g id="text_56">
     <!-- Contrast -->
     <g transform="translate(1075.6467 40.30498125)scale(0.11 -0.11)">
      <use xlink:href="#DejaVuSans-43"/>
      <use x="69.82421875" xlink:href="#DejaVuSans-6f"/>
      <use x="131.005859375" xlink:href="#DejaVuSans-6e"/>
      <use x="194.384765625" xlink:href="#DejaVuSans-74"/>
      <use x="233.59375" xlink:href="#DejaVuSans-72"/>
      <use x="274.70703125" xlink:href="#DejaVuSans-61"/>
      <use x="335.986328125" xlink:href="#DejaVuSans-73"/>
      <use x="388.0859375" xlink:href="#DejaVuSans-74"/>
     </g>
    </g>
    <g id="line2d_97">
     <path d="M 1083.23791 50.929536 
L 1096.06611 50.929536 
" style="fill:none;stroke:#b5b5b5;stroke-width:2.0;"/>
    </g>
    <g id="line2d_98"/>
    <g id="text_57">
     <!-- 5 -->
     <g transform="translate(1106.14541 54.1365857812)scale(0.09163 -0.09163)">
      <use xlink:href="#DejaVuSans-35"/>
     </g>
    </g>
    <g id="line2d_99">
     <path d="M 1083.23791 64.379102 
L 1096.06611 64.379102 
" style="fill:none;stroke:#7a7a7a;stroke-width:2.0;"/>
    </g>
    <g id="line2d_100"/>
    <g id="text_58">
     <!-- 10 -->
     <g transform="translate(1106.14541 67.5861517187)scale(0.09163 -0.09163)">
      <use xlink:href="#DejaVuSans-31"/>
      <use x="63.623046875" xlink:href="#DejaVuSans-30"/>
     </g>
    </g>
    <g id="line2d_101">
     <path d="M 1083.23791 77.828668 
L 1096.06611 77.828668 
" style="fill:none;stroke:#404040;stroke-width:2.0;"/>
    </g>
    <g id="line2d_102"/>
    <g id="text_59">
     <!-- 30 -->
     <g transform="translate(1106.14541 81.0357176562)scale(0.09163 -0.09163)">
      <use xlink:href="#DejaVuSans-33"/>
      <use x="63.623046875" xlink:href="#DejaVuSans-30"/>
     </g>
    </g>
    <g id="line2d_103">
     <path d="M 1083.23791 91.278234 
L 1096.06611 91.278234 
" style="fill:none;stroke:#000000;stroke-width:2.0;"/>
    </g>
    <g id="line2d_104"/>
    <g id="text_60">
     <!-- 70 -->
     <g transform="translate(1106.14541 94.4852835937)scale(0.09163 -0.09163)">
      <use xlink:href="#DejaVuSans-37"/>
      <use x="63.623046875" xlink:href="#DejaVuSans-30"/>
     </g>
    </g>
   </g>
  </g>
 </g>
 <defs>
  <clipPath id="pfaa3354c65">
   <rect height="162.0" width="243.0" x="83.25" y="23.7"/>
  </clipPath>
  <clipPath id="pc01b475c28">
   <rect height="162.0" width="243.0" x="812.25" y="23.7"/>
  </clipPath>
  <clipPath id="p7895ac2adb">
   <rect height="162.0" width="243.0" x="447.75" y="23.7"/>
  </clipPath>
 </defs>
</svg>
