<?xml version="1.0" encoding="utf-8" standalone="no"?>
<!DOCTYPE svg PUBLIC "-//W3C//DTD SVG 1.1//EN"
  "http://www.w3.org/Graphics/SVG/1.1/DTD/svg11.dtd">
<!-- Created with matplotlib (http://matplotlib.org/) -->
<svg height="338pt" version="1.1" viewBox="0 0 606 338" width="606pt" xmlns="http://www.w3.org/2000/svg" xmlns:xlink="http://www.w3.org/1999/xlink">
 <defs>
  <style type="text/css">
*{stroke-linecap:butt;stroke-linejoin:round;stroke-miterlimit:100000;}
  </style>
 </defs>
 <g id="figure_1">
  <g id="patch_1">
   <path d="M 0 338.6959 
L 606.806839 338.6959 
L 606.806839 0 
L 0 0 
z
" style="fill:#ffffff;"/>
  </g>
  <g id="axes_1">
   <g id="patch_2">
    <path d="M 70.776 276.5759 
L 278.136 276.5759 
L 278.136 69.2159 
L 70.776 69.2159 
L 70.776 276.5759 
z
" style="fill:none;"/>
   </g>
   <g id="line2d_1">
    <path clip-path="url(#pa024627ce8)" d="M 70.776 276.5759 
L 84.6 185.369678 
L 98.424 152.473856 
L 112.248 147.143142 
L 126.072 138.9982 
L 139.896 127.82299 
L 153.72 116.373359 
L 167.544 108.3866 
L 181.368 102.090292 
L 195.192 99.302402 
L 209.016 97.895847 
L 222.84 96.671539 
L 236.664 95.831856 
L 250.488 94.427121 
L 264.312 92.794902 
L 278.136 91.844283 
" style="fill:none;stroke:#959595;stroke-width:2.0;"/>
   </g>
   <g id="matplotlib.axis_1">
    <g id="xtick_1">
     <g id="line2d_2">
      <path clip-path="url(#pa024627ce8)" d="M 70.776 276.5759 
L 70.776 69.2159 
" style="fill:none;stroke:#000000;stroke-dasharray:1.000000,3.000000;stroke-dashoffset:0.0;"/>
     </g>
     <g id="line2d_3">
      <defs>
       <path d="M 0 0 
L 0 -0.1 
" id="m8f6ed2fef2" style="stroke:#000000;stroke-width:0.5;"/>
      </defs>
      <g>
       <use style="stroke:#000000;stroke-width:0.5;" x="70.776" xlink:href="#m8f6ed2fef2" y="276.5759"/>
      </g>
     </g>
     <g id="text_1">
      <!-- 0.0 -->
      <defs>
       <path d="M 31.78125 66.40625 
Q 24.171875 66.40625 20.328125 58.90625 
Q 16.5 51.421875 16.5 36.375 
Q 16.5 21.390625 20.328125 13.890625 
Q 24.171875 6.390625 31.78125 6.390625 
Q 39.453125 6.390625 43.28125 13.890625 
Q 47.125 21.390625 47.125 36.375 
Q 47.125 51.421875 43.28125 58.90625 
Q 39.453125 66.40625 31.78125 66.40625 
M 31.78125 74.21875 
Q 44.046875 74.21875 50.515625 64.515625 
Q 56.984375 54.828125 56.984375 36.375 
Q 56.984375 17.96875 50.515625 8.265625 
Q 44.046875 -1.421875 31.78125 -1.421875 
Q 19.53125 -1.421875 13.0625 8.265625 
Q 6.59375 17.96875 6.59375 36.375 
Q 6.59375 54.828125 13.0625 64.515625 
Q 19.53125 74.21875 31.78125 74.21875 
" id="DejaVuSans-30"/>
       <path d="M 10.6875 12.40625 
L 21 12.40625 
L 21 0 
L 10.6875 0 
z
" id="DejaVuSans-2e"/>
      </defs>
      <g transform="translate(62.02928125 288.93418125)scale(0.11 -0.11)">
       <use xlink:href="#DejaVuSans-30"/>
       <use x="63.623046875" xlink:href="#DejaVuSans-2e"/>
       <use x="95.41015625" xlink:href="#DejaVuSans-30"/>
      </g>
     </g>
    </g>
    <g id="xtick_2">
     <g id="line2d_4">
      <path clip-path="url(#pa024627ce8)" d="M 122.616 276.5759 
L 122.616 69.2159 
" style="fill:none;stroke:#000000;stroke-dasharray:1.000000,3.000000;stroke-dashoffset:0.0;"/>
     </g>
     <g id="line2d_5">
      <g>
       <use style="stroke:#000000;stroke-width:0.5;" x="122.616" xlink:href="#m8f6ed2fef2" y="276.5759"/>
      </g>
     </g>
     <g id="text_2">
      <!-- 0.5 -->
      <defs>
       <path d="M 10.796875 72.90625 
L 49.515625 72.90625 
L 49.515625 64.59375 
L 19.828125 64.59375 
L 19.828125 46.734375 
Q 21.96875 47.46875 24.109375 47.828125 
Q 26.265625 48.1875 28.421875 48.1875 
Q 40.625 48.1875 47.75 41.5 
Q 54.890625 34.8125 54.890625 23.390625 
Q 54.890625 11.625 47.5625 5.09375 
Q 40.234375 -1.421875 26.90625 -1.421875 
Q 22.3125 -1.421875 17.546875 -0.640625 
Q 12.796875 0.140625 7.71875 1.703125 
L 7.71875 11.625 
Q 12.109375 9.234375 16.796875 8.0625 
Q 21.484375 6.890625 26.703125 6.890625 
Q 35.15625 6.890625 40.078125 11.328125 
Q 45.015625 15.765625 45.015625 23.390625 
Q 45.015625 31 40.078125 35.4375 
Q 35.15625 39.890625 26.703125 39.890625 
Q 22.75 39.890625 18.8125 39.015625 
Q 14.890625 38.140625 10.796875 36.28125 
z
" id="DejaVuSans-35"/>
      </defs>
      <g transform="translate(113.86928125 288.93418125)scale(0.11 -0.11)">
       <use xlink:href="#DejaVuSans-30"/>
       <use x="63.623046875" xlink:href="#DejaVuSans-2e"/>
       <use x="95.41015625" xlink:href="#DejaVuSans-35"/>
      </g>
     </g>
    </g>
    <g id="xtick_3">
     <g id="line2d_6">
      <path clip-path="url(#pa024627ce8)" d="M 174.456 276.5759 
L 174.456 69.2159 
" style="fill:none;stroke:#000000;stroke-dasharray:1.000000,3.000000;stroke-dashoffset:0.0;"/>
     </g>
     <g id="line2d_7">
      <g>
       <use style="stroke:#000000;stroke-width:0.5;" x="174.456" xlink:href="#m8f6ed2fef2" y="276.5759"/>
      </g>
     </g>
     <g id="text_3">
      <!-- 1.0 -->
      <defs>
       <path d="M 12.40625 8.296875 
L 28.515625 8.296875 
L 28.515625 63.921875 
L 10.984375 60.40625 
L 10.984375 69.390625 
L 28.421875 72.90625 
L 38.28125 72.90625 
L 38.28125 8.296875 
L 54.390625 8.296875 
L 54.390625 0 
L 12.40625 0 
z
" id="DejaVuSans-31"/>
      </defs>
      <g transform="translate(165.70928125 288.93418125)scale(0.11 -0.11)">
       <use xlink:href="#DejaVuSans-31"/>
       <use x="63.623046875" xlink:href="#DejaVuSans-2e"/>
       <use x="95.41015625" xlink:href="#DejaVuSans-30"/>
      </g>
     </g>
    </g>
    <g id="xtick_4">
     <g id="line2d_8">
      <path clip-path="url(#pa024627ce8)" d="M 226.296 276.5759 
L 226.296 69.2159 
" style="fill:none;stroke:#000000;stroke-dasharray:1.000000,3.000000;stroke-dashoffset:0.0;"/>
     </g>
     <g id="line2d_9">
      <g>
       <use style="stroke:#000000;stroke-width:0.5;" x="226.296" xlink:href="#m8f6ed2fef2" y="276.5759"/>
      </g>
     </g>
     <g id="text_4">
      <!-- 1.5 -->
      <g transform="translate(217.54928125 288.93418125)scale(0.11 -0.11)">
       <use xlink:href="#DejaVuSans-31"/>
       <use x="63.623046875" xlink:href="#DejaVuSans-2e"/>
       <use x="95.41015625" xlink:href="#DejaVuSans-35"/>
      </g>
     </g>
    </g>
    <g id="xtick_5">
     <g id="line2d_10">
      <path clip-path="url(#pa024627ce8)" d="M 278.136 276.5759 
L 278.136 69.2159 
" style="fill:none;stroke:#000000;stroke-dasharray:1.000000,3.000000;stroke-dashoffset:0.0;"/>
     </g>
     <g id="line2d_11">
      <g>
       <use style="stroke:#000000;stroke-width:0.5;" x="278.136" xlink:href="#m8f6ed2fef2" y="276.5759"/>
      </g>
     </g>
     <g id="text_5">
      <!-- 2.0 -->
      <defs>
       <path d="M 19.1875 8.296875 
L 53.609375 8.296875 
L 53.609375 0 
L 7.328125 0 
L 7.328125 8.296875 
Q 12.9375 14.109375 22.625 23.890625 
Q 32.328125 33.6875 34.8125 36.53125 
Q 39.546875 41.84375 41.421875 45.53125 
Q 43.3125 49.21875 43.3125 52.78125 
Q 43.3125 58.59375 39.234375 62.25 
Q 35.15625 65.921875 28.609375 65.921875 
Q 23.96875 65.921875 18.8125 64.3125 
Q 13.671875 62.703125 7.8125 59.421875 
L 7.8125 69.390625 
Q 13.765625 71.78125 18.9375 73 
Q 24.125 74.21875 28.421875 74.21875 
Q 39.75 74.21875 46.484375 68.546875 
Q 53.21875 62.890625 53.21875 53.421875 
Q 53.21875 48.921875 51.53125 44.890625 
Q 49.859375 40.875 45.40625 35.40625 
Q 44.1875 33.984375 37.640625 27.21875 
Q 31.109375 20.453125 19.1875 8.296875 
" id="DejaVuSans-32"/>
      </defs>
      <g transform="translate(269.38928125 288.93418125)scale(0.11 -0.11)">
       <use xlink:href="#DejaVuSans-32"/>
       <use x="63.623046875" xlink:href="#DejaVuSans-2e"/>
       <use x="95.41015625" xlink:href="#DejaVuSans-30"/>
      </g>
     </g>
    </g>
    <g id="text_6">
     <!-- Offset -->
     <defs>
      <path d="M 37.109375 75.984375 
L 37.109375 68.5 
L 28.515625 68.5 
Q 23.6875 68.5 21.796875 66.546875 
Q 19.921875 64.59375 19.921875 59.515625 
L 19.921875 54.6875 
L 34.71875 54.6875 
L 34.71875 47.703125 
L 19.921875 47.703125 
L 19.921875 0 
L 10.890625 0 
L 10.890625 47.703125 
L 2.296875 47.703125 
L 2.296875 54.6875 
L 10.890625 54.6875 
L 10.890625 58.5 
Q 10.890625 67.625 15.140625 71.796875 
Q 19.390625 75.984375 28.609375 75.984375 
z
" id="DejaVuSans-66"/>
      <path d="M 18.3125 70.21875 
L 18.3125 54.6875 
L 36.8125 54.6875 
L 36.8125 47.703125 
L 18.3125 47.703125 
L 18.3125 18.015625 
Q 18.3125 11.328125 20.140625 9.421875 
Q 21.96875 7.515625 27.59375 7.515625 
L 36.8125 7.515625 
L 36.8125 0 
L 27.59375 0 
Q 17.1875 0 13.234375 3.875 
Q 9.28125 7.765625 9.28125 18.015625 
L 9.28125 47.703125 
L 2.6875 47.703125 
L 2.6875 54.6875 
L 9.28125 54.6875 
L 9.28125 70.21875 
z
" id="DejaVuSans-74"/>
      <path d="M 39.40625 66.21875 
Q 28.65625 66.21875 22.328125 58.203125 
Q 16.015625 50.203125 16.015625 36.375 
Q 16.015625 22.609375 22.328125 14.59375 
Q 28.65625 6.59375 39.40625 6.59375 
Q 50.140625 6.59375 56.421875 14.59375 
Q 62.703125 22.609375 62.703125 36.375 
Q 62.703125 50.203125 56.421875 58.203125 
Q 50.140625 66.21875 39.40625 66.21875 
M 39.40625 74.21875 
Q 54.734375 74.21875 63.90625 63.9375 
Q 73.09375 53.65625 73.09375 36.375 
Q 73.09375 19.140625 63.90625 8.859375 
Q 54.734375 -1.421875 39.40625 -1.421875 
Q 24.03125 -1.421875 14.8125 8.828125 
Q 5.609375 19.09375 5.609375 36.375 
Q 5.609375 53.65625 14.8125 63.9375 
Q 24.03125 74.21875 39.40625 74.21875 
" id="DejaVuSans-4f"/>
      <path d="M 56.203125 29.59375 
L 56.203125 25.203125 
L 14.890625 25.203125 
Q 15.484375 15.921875 20.484375 11.0625 
Q 25.484375 6.203125 34.421875 6.203125 
Q 39.59375 6.203125 44.453125 7.46875 
Q 49.3125 8.734375 54.109375 11.28125 
L 54.109375 2.78125 
Q 49.265625 0.734375 44.1875 -0.34375 
Q 39.109375 -1.421875 33.890625 -1.421875 
Q 20.796875 -1.421875 13.15625 6.1875 
Q 5.515625 13.8125 5.515625 26.8125 
Q 5.515625 40.234375 12.765625 48.109375 
Q 20.015625 56 32.328125 56 
Q 43.359375 56 49.78125 48.890625 
Q 56.203125 41.796875 56.203125 29.59375 
M 47.21875 32.234375 
Q 47.125 39.59375 43.09375 43.984375 
Q 39.0625 48.390625 32.421875 48.390625 
Q 24.90625 48.390625 20.390625 44.140625 
Q 15.875 39.890625 15.1875 32.171875 
z
" id="DejaVuSans-65"/>
      <path d="M 44.28125 53.078125 
L 44.28125 44.578125 
Q 40.484375 46.53125 36.375 47.5 
Q 32.28125 48.484375 27.875 48.484375 
Q 21.1875 48.484375 17.84375 46.4375 
Q 14.5 44.390625 14.5 40.28125 
Q 14.5 37.15625 16.890625 35.375 
Q 19.28125 33.59375 26.515625 31.984375 
L 29.59375 31.296875 
Q 39.15625 29.25 43.1875 25.515625 
Q 47.21875 21.78125 47.21875 15.09375 
Q 47.21875 7.46875 41.1875 3.015625 
Q 35.15625 -1.421875 24.609375 -1.421875 
Q 20.21875 -1.421875 15.453125 -0.5625 
Q 10.6875 0.296875 5.421875 2 
L 5.421875 11.28125 
Q 10.40625 8.6875 15.234375 7.390625 
Q 20.0625 6.109375 24.8125 6.109375 
Q 31.15625 6.109375 34.5625 8.28125 
Q 37.984375 10.453125 37.984375 14.40625 
Q 37.984375 18.0625 35.515625 20.015625 
Q 33.0625 21.96875 24.703125 23.78125 
L 21.578125 24.515625 
Q 13.234375 26.265625 9.515625 29.90625 
Q 5.8125 33.546875 5.8125 39.890625 
Q 5.8125 47.609375 11.28125 51.796875 
Q 16.75 56 26.8125 56 
Q 31.78125 56 36.171875 55.265625 
Q 40.578125 54.546875 44.28125 53.078125 
" id="DejaVuSans-73"/>
     </defs>
     <g transform="translate(157.848578125 304.58011875)scale(0.11 -0.11)">
      <use xlink:href="#DejaVuSans-4f"/>
      <use x="78.7109375" xlink:href="#DejaVuSans-66"/>
      <use x="113.916015625" xlink:href="#DejaVuSans-66"/>
      <use x="149.12109375" xlink:href="#DejaVuSans-73"/>
      <use x="201.220703125" xlink:href="#DejaVuSans-65"/>
      <use x="262.744140625" xlink:href="#DejaVuSans-74"/>
     </g>
    </g>
   </g>
   <g id="matplotlib.axis_2">
    <g id="ytick_1">
     <g id="line2d_12">
      <path clip-path="url(#pa024627ce8)" d="M 70.776 254.433983 
L 278.136 254.433983 
" style="fill:none;stroke:#000000;stroke-dasharray:1.000000,3.000000;stroke-dashoffset:0.0;"/>
     </g>
     <g id="line2d_13">
      <defs>
       <path d="M 0 0 
L 0.1 0 
" id="md70d9ccca6" style="stroke:#000000;stroke-width:0.5;"/>
      </defs>
      <g>
       <use style="stroke:#000000;stroke-width:0.5;" x="70.776" xlink:href="#md70d9ccca6" y="254.433982885"/>
      </g>
     </g>
     <g id="text_7">
      <!-- −3.0 -->
      <defs>
       <path d="M 40.578125 39.3125 
Q 47.65625 37.796875 51.625 33 
Q 55.609375 28.21875 55.609375 21.1875 
Q 55.609375 10.40625 48.1875 4.484375 
Q 40.765625 -1.421875 27.09375 -1.421875 
Q 22.515625 -1.421875 17.65625 -0.515625 
Q 12.796875 0.390625 7.625 2.203125 
L 7.625 11.71875 
Q 11.71875 9.328125 16.59375 8.109375 
Q 21.484375 6.890625 26.8125 6.890625 
Q 36.078125 6.890625 40.9375 10.546875 
Q 45.796875 14.203125 45.796875 21.1875 
Q 45.796875 27.640625 41.28125 31.265625 
Q 36.765625 34.90625 28.71875 34.90625 
L 20.21875 34.90625 
L 20.21875 43.015625 
L 29.109375 43.015625 
Q 36.375 43.015625 40.234375 45.921875 
Q 44.09375 48.828125 44.09375 54.296875 
Q 44.09375 59.90625 40.109375 62.90625 
Q 36.140625 65.921875 28.71875 65.921875 
Q 24.65625 65.921875 20.015625 65.03125 
Q 15.375 64.15625 9.8125 62.3125 
L 9.8125 71.09375 
Q 15.4375 72.65625 20.34375 73.4375 
Q 25.25 74.21875 29.59375 74.21875 
Q 40.828125 74.21875 47.359375 69.109375 
Q 53.90625 64.015625 53.90625 55.328125 
Q 53.90625 49.265625 50.4375 45.09375 
Q 46.96875 40.921875 40.578125 39.3125 
" id="DejaVuSans-33"/>
       <path d="M 10.59375 35.5 
L 73.1875 35.5 
L 73.1875 27.203125 
L 10.59375 27.203125 
z
" id="DejaVuSans-2212"/>
      </defs>
      <g transform="translate(40.06490625 257.469295385)scale(0.11 -0.11)">
       <use xlink:href="#DejaVuSans-2212"/>
       <use x="83.7890625" xlink:href="#DejaVuSans-33"/>
       <use x="147.412109375" xlink:href="#DejaVuSans-2e"/>
       <use x="179.19921875" xlink:href="#DejaVuSans-30"/>
      </g>
     </g>
    </g>
    <g id="ytick_2">
     <g id="line2d_14">
      <path clip-path="url(#pa024627ce8)" d="M 70.776 227.280475 
L 278.136 227.280475 
" style="fill:none;stroke:#000000;stroke-dasharray:1.000000,3.000000;stroke-dashoffset:0.0;"/>
     </g>
     <g id="line2d_15">
      <g>
       <use style="stroke:#000000;stroke-width:0.5;" x="70.776" xlink:href="#md70d9ccca6" y="227.280475414"/>
      </g>
     </g>
     <g id="text_8">
      <!-- −2.5 -->
      <g transform="translate(40.06490625 230.315787914)scale(0.11 -0.11)">
       <use xlink:href="#DejaVuSans-2212"/>
       <use x="83.7890625" xlink:href="#DejaVuSans-32"/>
       <use x="147.412109375" xlink:href="#DejaVuSans-2e"/>
       <use x="179.19921875" xlink:href="#DejaVuSans-35"/>
      </g>
     </g>
    </g>
    <g id="ytick_3">
     <g id="line2d_16">
      <path clip-path="url(#pa024627ce8)" d="M 70.776 200.126968 
L 278.136 200.126968 
" style="fill:none;stroke:#000000;stroke-dasharray:1.000000,3.000000;stroke-dashoffset:0.0;"/>
     </g>
     <g id="line2d_17">
      <g>
       <use style="stroke:#000000;stroke-width:0.5;" x="70.776" xlink:href="#md70d9ccca6" y="200.126967944"/>
      </g>
     </g>
     <g id="text_9">
      <!-- −2.0 -->
      <g transform="translate(40.06490625 203.162280444)scale(0.11 -0.11)">
       <use xlink:href="#DejaVuSans-2212"/>
       <use x="83.7890625" xlink:href="#DejaVuSans-32"/>
       <use x="147.412109375" xlink:href="#DejaVuSans-2e"/>
       <use x="179.19921875" xlink:href="#DejaVuSans-30"/>
      </g>
     </g>
    </g>
    <g id="ytick_4">
     <g id="line2d_18">
      <path clip-path="url(#pa024627ce8)" d="M 70.776 172.97346 
L 278.136 172.97346 
" style="fill:none;stroke:#000000;stroke-dasharray:1.000000,3.000000;stroke-dashoffset:0.0;"/>
     </g>
     <g id="line2d_19">
      <g>
       <use style="stroke:#000000;stroke-width:0.5;" x="70.776" xlink:href="#md70d9ccca6" y="172.973460473"/>
      </g>
     </g>
     <g id="text_10">
      <!-- −1.5 -->
      <g transform="translate(40.06490625 176.008772973)scale(0.11 -0.11)">
       <use xlink:href="#DejaVuSans-2212"/>
       <use x="83.7890625" xlink:href="#DejaVuSans-31"/>
       <use x="147.412109375" xlink:href="#DejaVuSans-2e"/>
       <use x="179.19921875" xlink:href="#DejaVuSans-35"/>
      </g>
     </g>
    </g>
    <g id="ytick_5">
     <g id="line2d_20">
      <path clip-path="url(#pa024627ce8)" d="M 70.776 145.819953 
L 278.136 145.819953 
" style="fill:none;stroke:#000000;stroke-dasharray:1.000000,3.000000;stroke-dashoffset:0.0;"/>
     </g>
     <g id="line2d_21">
      <g>
       <use style="stroke:#000000;stroke-width:0.5;" x="70.776" xlink:href="#md70d9ccca6" y="145.819953002"/>
      </g>
     </g>
     <g id="text_11">
      <!-- −1.0 -->
      <g transform="translate(40.06490625 148.855265502)scale(0.11 -0.11)">
       <use xlink:href="#DejaVuSans-2212"/>
       <use x="83.7890625" xlink:href="#DejaVuSans-31"/>
       <use x="147.412109375" xlink:href="#DejaVuSans-2e"/>
       <use x="179.19921875" xlink:href="#DejaVuSans-30"/>
      </g>
     </g>
    </g>
    <g id="ytick_6">
     <g id="line2d_22">
      <path clip-path="url(#pa024627ce8)" d="M 70.776 118.666446 
L 278.136 118.666446 
" style="fill:none;stroke:#000000;stroke-dasharray:1.000000,3.000000;stroke-dashoffset:0.0;"/>
     </g>
     <g id="line2d_23">
      <g>
       <use style="stroke:#000000;stroke-width:0.5;" x="70.776" xlink:href="#md70d9ccca6" y="118.666445531"/>
      </g>
     </g>
     <g id="text_12">
      <!-- −0.5 -->
      <g transform="translate(40.06490625 121.701758031)scale(0.11 -0.11)">
       <use xlink:href="#DejaVuSans-2212"/>
       <use x="83.7890625" xlink:href="#DejaVuSans-30"/>
       <use x="147.412109375" xlink:href="#DejaVuSans-2e"/>
       <use x="179.19921875" xlink:href="#DejaVuSans-35"/>
      </g>
     </g>
    </g>
    <g id="ytick_7">
     <g id="line2d_24">
      <path clip-path="url(#pa024627ce8)" d="M 70.776 91.512938 
L 278.136 91.512938 
" style="fill:none;stroke:#000000;stroke-dasharray:1.000000,3.000000;stroke-dashoffset:0.0;"/>
     </g>
     <g id="line2d_25">
      <g>
       <use style="stroke:#000000;stroke-width:0.5;" x="70.776" xlink:href="#md70d9ccca6" y="91.5129380602"/>
      </g>
     </g>
     <g id="text_13">
      <!-- 0.0 -->
      <g transform="translate(49.2825625 94.5482505602)scale(0.11 -0.11)">
       <use xlink:href="#DejaVuSans-30"/>
       <use x="63.623046875" xlink:href="#DejaVuSans-2e"/>
       <use x="95.41015625" xlink:href="#DejaVuSans-30"/>
      </g>
     </g>
    </g>
    <g id="text_14">
     <!-- OCSI -->
     <defs>
      <path d="M 53.515625 70.515625 
L 53.515625 60.890625 
Q 47.90625 63.578125 42.921875 64.890625 
Q 37.9375 66.21875 33.296875 66.21875 
Q 25.25 66.21875 20.875 63.09375 
Q 16.5 59.96875 16.5 54.203125 
Q 16.5 49.359375 19.40625 46.890625 
Q 22.3125 44.4375 30.421875 42.921875 
L 36.375 41.703125 
Q 47.40625 39.59375 52.65625 34.296875 
Q 57.90625 29 57.90625 20.125 
Q 57.90625 9.515625 50.796875 4.046875 
Q 43.703125 -1.421875 29.984375 -1.421875 
Q 24.8125 -1.421875 18.96875 -0.25 
Q 13.140625 0.921875 6.890625 3.21875 
L 6.890625 13.375 
Q 12.890625 10.015625 18.65625 8.296875 
Q 24.421875 6.59375 29.984375 6.59375 
Q 38.421875 6.59375 43.015625 9.90625 
Q 47.609375 13.234375 47.609375 19.390625 
Q 47.609375 24.75 44.3125 27.78125 
Q 41.015625 30.8125 33.5 32.328125 
L 27.484375 33.5 
Q 16.453125 35.6875 11.515625 40.375 
Q 6.59375 45.0625 6.59375 53.421875 
Q 6.59375 63.09375 13.40625 68.65625 
Q 20.21875 74.21875 32.171875 74.21875 
Q 37.3125 74.21875 42.625 73.28125 
Q 47.953125 72.359375 53.515625 70.515625 
" id="DejaVuSans-53"/>
      <path d="M 9.8125 72.90625 
L 19.671875 72.90625 
L 19.671875 0 
L 9.8125 0 
z
" id="DejaVuSans-49"/>
      <path d="M 64.40625 67.28125 
L 64.40625 56.890625 
Q 59.421875 61.53125 53.78125 63.8125 
Q 48.140625 66.109375 41.796875 66.109375 
Q 29.296875 66.109375 22.65625 58.46875 
Q 16.015625 50.828125 16.015625 36.375 
Q 16.015625 21.96875 22.65625 14.328125 
Q 29.296875 6.6875 41.796875 6.6875 
Q 48.140625 6.6875 53.78125 8.984375 
Q 59.421875 11.28125 64.40625 15.921875 
L 64.40625 5.609375 
Q 59.234375 2.09375 53.4375 0.328125 
Q 47.65625 -1.421875 41.21875 -1.421875 
Q 24.65625 -1.421875 15.125 8.703125 
Q 5.609375 18.84375 5.609375 36.375 
Q 5.609375 53.953125 15.125 64.078125 
Q 24.65625 74.21875 41.21875 74.21875 
Q 47.75 74.21875 53.53125 72.484375 
Q 59.328125 70.75 64.40625 67.28125 
" id="DejaVuSans-43"/>
     </defs>
     <g transform="translate(32.77725 186.18011875)rotate(-90.0)scale(0.11 -0.11)">
      <use xlink:href="#DejaVuSans-4f"/>
      <use x="78.7109375" xlink:href="#DejaVuSans-43"/>
      <use x="148.53515625" xlink:href="#DejaVuSans-53"/>
      <use x="212.01171875" xlink:href="#DejaVuSans-49"/>
     </g>
    </g>
   </g>
   <g id="line2d_26">
    <path clip-path="url(#pa024627ce8)" d="M 70.776 179.979695 
L 84.6 147.934893 
L 98.424 129.966594 
L 112.248 127.109216 
L 126.072 122.547786 
L 139.896 115.557696 
L 153.72 108.762508 
L 167.544 103.675088 
L 181.368 99.283275 
L 195.192 97.37033 
L 209.016 96.416867 
L 222.84 95.574891 
L 236.664 94.97395 
L 250.488 93.90134 
L 264.312 92.575252 
L 278.136 91.781929 
" style="fill:none;stroke:#727272;stroke-width:2.0;"/>
   </g>
   <g id="line2d_27">
    <path clip-path="url(#pa024627ce8)" d="M 70.776 142.671672 
L 84.6 128.336781 
L 98.424 117.251521 
L 112.248 115.594568 
L 126.072 112.868471 
L 139.896 108.299231 
L 153.72 103.915944 
L 167.544 100.416425 
L 181.368 97.183708 
L 195.192 95.839884 
L 209.016 95.164936 
L 222.84 94.626407 
L 236.664 94.236261 
L 250.488 93.444514 
L 264.312 92.386262 
L 278.136 91.727977 
" style="fill:none;stroke:#515151;stroke-width:2.0;"/>
   </g>
   <g id="patch_3">
    <path d="M 70.776 69.2159 
L 278.136 69.2159 
" style="fill:none;stroke:#000000;stroke-linecap:square;stroke-linejoin:miter;"/>
   </g>
   <g id="patch_4">
    <path d="M 278.136 276.5759 
L 278.136 69.2159 
" style="fill:none;stroke:#000000;stroke-linecap:square;stroke-linejoin:miter;"/>
   </g>
   <g id="patch_5">
    <path d="M 70.776 276.5759 
L 278.136 276.5759 
" style="fill:none;stroke:#000000;stroke-linecap:square;stroke-linejoin:miter;"/>
   </g>
   <g id="patch_6">
    <path d="M 70.776 276.5759 
L 70.776 69.2159 
" style="fill:none;stroke:#000000;stroke-linecap:square;stroke-linejoin:miter;"/>
   </g>
   <g id="line2d_28">
    <path clip-path="url(#pa024627ce8)" d="M 70.776 122.868938 
L 84.6 116.349987 
L 98.424 109.104348 
L 112.248 108.274264 
L 126.072 106.618016 
L 139.896 103.562495 
L 153.72 100.549866 
L 167.544 98.025345 
L 181.368 95.563207 
L 195.192 94.576786 
L 209.016 94.113326 
L 222.84 93.820588 
L 236.664 93.613225 
L 250.488 93.053855 
L 264.312 92.222163 
L 278.136 91.678443 
" style="fill:none;stroke:#242424;stroke-width:2.0;"/>
   </g>
   <g id="line2d_29">
    <path clip-path="url(#pa024627ce8)" d="M 70.776 122.868938 
L 84.6 116.349987 
L 98.424 109.104348 
L 112.248 108.274264 
L 126.072 106.618016 
L 139.896 103.562495 
L 153.72 100.549866 
L 167.544 98.025345 
L 181.368 95.563207 
L 195.192 94.576786 
L 209.016 94.113326 
L 222.84 93.820588 
L 236.664 93.613225 
L 250.488 93.053855 
L 264.312 92.222163 
L 278.136 91.678443 
" style="fill:none;stroke:#000000;stroke-width:2.0;"/>
   </g>
   <g id="text_15">
    <!-- A -->
    <defs>
     <path d="M 34.1875 63.1875 
L 20.796875 26.90625 
L 47.609375 26.90625 
z
M 28.609375 72.90625 
L 39.796875 72.90625 
L 67.578125 0 
L 57.328125 0 
L 50.6875 18.703125 
L 17.828125 18.703125 
L 11.1875 0 
L 0.78125 0 
z
" id="DejaVuSans-41"/>
    </defs>
    <g transform="translate(14.4 80.1199)scale(0.18 -0.18)">
     <use xlink:href="#DejaVuSans-41"/>
    </g>
   </g>
   <g id="legend_1">
    <g id="patch_7">
     <path d="M 72.6086 65.0687 
L 276.3034 65.0687 
Q 278.136 65.0687 278.136 63.2361 
L 278.136 35.343462 
Q 278.136 33.510862 276.3034 33.510862 
L 72.6086 33.510862 
Q 70.776 33.510862 70.776 35.343462 
L 70.776 63.2361 
Q 70.776 65.0687 72.6086 65.0687 
z
" style="fill:#ffffff;stroke:#000000;stroke-linejoin:miter;"/>
    </g>
    <g id="text_16">
     <!-- Duration -->
     <defs>
      <path d="M 30.609375 48.390625 
Q 23.390625 48.390625 19.1875 42.75 
Q 14.984375 37.109375 14.984375 27.296875 
Q 14.984375 17.484375 19.15625 11.84375 
Q 23.34375 6.203125 30.609375 6.203125 
Q 37.796875 6.203125 41.984375 11.859375 
Q 46.1875 17.53125 46.1875 27.296875 
Q 46.1875 37.015625 41.984375 42.703125 
Q 37.796875 48.390625 30.609375 48.390625 
M 30.609375 56 
Q 42.328125 56 49.015625 48.375 
Q 55.71875 40.765625 55.71875 27.296875 
Q 55.71875 13.875 49.015625 6.21875 
Q 42.328125 -1.421875 30.609375 -1.421875 
Q 18.84375 -1.421875 12.171875 6.21875 
Q 5.515625 13.875 5.515625 27.296875 
Q 5.515625 40.765625 12.171875 48.375 
Q 18.84375 56 30.609375 56 
" id="DejaVuSans-6f"/>
      <path d="M 54.890625 33.015625 
L 54.890625 0 
L 45.90625 0 
L 45.90625 32.71875 
Q 45.90625 40.484375 42.875 44.328125 
Q 39.84375 48.1875 33.796875 48.1875 
Q 26.515625 48.1875 22.3125 43.546875 
Q 18.109375 38.921875 18.109375 30.90625 
L 18.109375 0 
L 9.078125 0 
L 9.078125 54.6875 
L 18.109375 54.6875 
L 18.109375 46.1875 
Q 21.34375 51.125 25.703125 53.5625 
Q 30.078125 56 35.796875 56 
Q 45.21875 56 50.046875 50.171875 
Q 54.890625 44.34375 54.890625 33.015625 
" id="DejaVuSans-6e"/>
      <path d="M 19.671875 64.796875 
L 19.671875 8.109375 
L 31.59375 8.109375 
Q 46.6875 8.109375 53.6875 14.9375 
Q 60.6875 21.78125 60.6875 36.53125 
Q 60.6875 51.171875 53.6875 57.984375 
Q 46.6875 64.796875 31.59375 64.796875 
z
M 9.8125 72.90625 
L 30.078125 72.90625 
Q 51.265625 72.90625 61.171875 64.09375 
Q 71.09375 55.28125 71.09375 36.53125 
Q 71.09375 17.671875 61.125 8.828125 
Q 51.171875 0 30.078125 0 
L 9.8125 0 
z
" id="DejaVuSans-44"/>
      <path d="M 9.421875 54.6875 
L 18.40625 54.6875 
L 18.40625 0 
L 9.421875 0 
z
M 9.421875 75.984375 
L 18.40625 75.984375 
L 18.40625 64.59375 
L 9.421875 64.59375 
z
" id="DejaVuSans-69"/>
      <path d="M 8.5 21.578125 
L 8.5 54.6875 
L 17.484375 54.6875 
L 17.484375 21.921875 
Q 17.484375 14.15625 20.5 10.265625 
Q 23.53125 6.390625 29.59375 6.390625 
Q 36.859375 6.390625 41.078125 11.03125 
Q 45.3125 15.671875 45.3125 23.6875 
L 45.3125 54.6875 
L 54.296875 54.6875 
L 54.296875 0 
L 45.3125 0 
L 45.3125 8.40625 
Q 42.046875 3.421875 37.71875 1 
Q 33.40625 -1.421875 27.6875 -1.421875 
Q 18.265625 -1.421875 13.375 4.4375 
Q 8.5 10.296875 8.5 21.578125 
M 31.109375 56 
z
" id="DejaVuSans-75"/>
      <path d="M 41.109375 46.296875 
Q 39.59375 47.171875 37.8125 47.578125 
Q 36.03125 48 33.890625 48 
Q 26.265625 48 22.1875 43.046875 
Q 18.109375 38.09375 18.109375 28.8125 
L 18.109375 0 
L 9.078125 0 
L 9.078125 54.6875 
L 18.109375 54.6875 
L 18.109375 46.1875 
Q 20.953125 51.171875 25.484375 53.578125 
Q 30.03125 56 36.53125 56 
Q 37.453125 56 38.578125 55.875 
Q 39.703125 55.765625 41.0625 55.515625 
z
" id="DejaVuSans-72"/>
      <path d="M 34.28125 27.484375 
Q 23.390625 27.484375 19.1875 25 
Q 14.984375 22.515625 14.984375 16.5 
Q 14.984375 11.71875 18.140625 8.90625 
Q 21.296875 6.109375 26.703125 6.109375 
Q 34.1875 6.109375 38.703125 11.40625 
Q 43.21875 16.703125 43.21875 25.484375 
L 43.21875 27.484375 
z
M 52.203125 31.203125 
L 52.203125 0 
L 43.21875 0 
L 43.21875 8.296875 
Q 40.140625 3.328125 35.546875 0.953125 
Q 30.953125 -1.421875 24.3125 -1.421875 
Q 15.921875 -1.421875 10.953125 3.296875 
Q 6 8.015625 6 15.921875 
Q 6 25.140625 12.171875 29.828125 
Q 18.359375 34.515625 30.609375 34.515625 
L 43.21875 34.515625 
L 43.21875 35.40625 
Q 43.21875 41.609375 39.140625 45 
Q 35.0625 48.390625 27.6875 48.390625 
Q 23 48.390625 18.546875 47.265625 
Q 14.109375 46.140625 10.015625 43.890625 
L 10.015625 52.203125 
Q 14.9375 54.109375 19.578125 55.046875 
Q 24.21875 56 28.609375 56 
Q 40.484375 56 46.34375 49.84375 
Q 52.203125 43.703125 52.203125 31.203125 
" id="DejaVuSans-61"/>
     </defs>
     <g transform="translate(150.456 45.53434375)scale(0.11 -0.11)">
      <use xlink:href="#DejaVuSans-44"/>
      <use x="77.001953125" xlink:href="#DejaVuSans-75"/>
      <use x="140.380859375" xlink:href="#DejaVuSans-72"/>
      <use x="181.494140625" xlink:href="#DejaVuSans-61"/>
      <use x="242.7734375" xlink:href="#DejaVuSans-74"/>
      <use x="281.982421875" xlink:href="#DejaVuSans-69"/>
      <use x="309.765625" xlink:href="#DejaVuSans-6f"/>
      <use x="370.947265625" xlink:href="#DejaVuSans-6e"/>
     </g>
    </g>
    <g id="line2d_30">
     <path d="M 77.1901 56.19645 
L 90.0183 56.19645 
" style="fill:none;stroke:#959595;stroke-width:2.0;"/>
    </g>
    <g id="line2d_31"/>
    <g id="text_17">
     <!-- 0.8 -->
     <defs>
      <path d="M 31.78125 34.625 
Q 24.75 34.625 20.71875 30.859375 
Q 16.703125 27.09375 16.703125 20.515625 
Q 16.703125 13.921875 20.71875 10.15625 
Q 24.75 6.390625 31.78125 6.390625 
Q 38.8125 6.390625 42.859375 10.171875 
Q 46.921875 13.96875 46.921875 20.515625 
Q 46.921875 27.09375 42.890625 30.859375 
Q 38.875 34.625 31.78125 34.625 
M 21.921875 38.8125 
Q 15.578125 40.375 12.03125 44.71875 
Q 8.5 49.078125 8.5 55.328125 
Q 8.5 64.0625 14.71875 69.140625 
Q 20.953125 74.21875 31.78125 74.21875 
Q 42.671875 74.21875 48.875 69.140625 
Q 55.078125 64.0625 55.078125 55.328125 
Q 55.078125 49.078125 51.53125 44.71875 
Q 48 40.375 41.703125 38.8125 
Q 48.828125 37.15625 52.796875 32.3125 
Q 56.78125 27.484375 56.78125 20.515625 
Q 56.78125 9.90625 50.3125 4.234375 
Q 43.84375 -1.421875 31.78125 -1.421875 
Q 19.734375 -1.421875 13.25 4.234375 
Q 6.78125 9.90625 6.78125 20.515625 
Q 6.78125 27.484375 10.78125 32.3125 
Q 14.796875 37.15625 21.921875 38.8125 
M 18.3125 54.390625 
Q 18.3125 48.734375 21.84375 45.5625 
Q 25.390625 42.390625 31.78125 42.390625 
Q 38.140625 42.390625 41.71875 45.5625 
Q 45.3125 48.734375 45.3125 54.390625 
Q 45.3125 60.0625 41.71875 63.234375 
Q 38.140625 66.40625 31.78125 66.40625 
Q 25.390625 66.40625 21.84375 63.234375 
Q 18.3125 60.0625 18.3125 54.390625 
" id="DejaVuSans-38"/>
     </defs>
     <g transform="translate(100.0976 59.4035)scale(0.09163 -0.09163)">
      <use xlink:href="#DejaVuSans-30"/>
      <use x="63.623046875" xlink:href="#DejaVuSans-2e"/>
      <use x="95.41015625" xlink:href="#DejaVuSans-38"/>
     </g>
    </g>
    <g id="line2d_32">
     <path d="M 116.4709 56.19645 
L 129.2991 56.19645 
" style="fill:none;stroke:#727272;stroke-width:2.0;"/>
    </g>
    <g id="line2d_33"/>
    <g id="text_18">
     <!-- 0.85 -->
     <g transform="translate(139.3784 59.4035)scale(0.09163 -0.09163)">
      <use xlink:href="#DejaVuSans-30"/>
      <use x="63.623046875" xlink:href="#DejaVuSans-2e"/>
      <use x="95.41015625" xlink:href="#DejaVuSans-38"/>
      <use x="159.033203125" xlink:href="#DejaVuSans-35"/>
     </g>
    </g>
    <g id="line2d_34">
     <path d="M 161.5017 56.19645 
L 174.3299 56.19645 
" style="fill:none;stroke:#515151;stroke-width:2.0;"/>
    </g>
    <g id="line2d_35"/>
    <g id="text_19">
     <!-- 0.9 -->
     <defs>
      <path d="M 10.984375 1.515625 
L 10.984375 10.5 
Q 14.703125 8.734375 18.5 7.8125 
Q 22.3125 6.890625 25.984375 6.890625 
Q 35.75 6.890625 40.890625 13.453125 
Q 46.046875 20.015625 46.78125 33.40625 
Q 43.953125 29.203125 39.59375 26.953125 
Q 35.25 24.703125 29.984375 24.703125 
Q 19.046875 24.703125 12.671875 31.3125 
Q 6.296875 37.9375 6.296875 49.421875 
Q 6.296875 60.640625 12.9375 67.421875 
Q 19.578125 74.21875 30.609375 74.21875 
Q 43.265625 74.21875 49.921875 64.515625 
Q 56.59375 54.828125 56.59375 36.375 
Q 56.59375 19.140625 48.40625 8.859375 
Q 40.234375 -1.421875 26.421875 -1.421875 
Q 22.703125 -1.421875 18.890625 -0.6875 
Q 15.09375 0.046875 10.984375 1.515625 
M 30.609375 32.421875 
Q 37.25 32.421875 41.125 36.953125 
Q 45.015625 41.5 45.015625 49.421875 
Q 45.015625 57.28125 41.125 61.84375 
Q 37.25 66.40625 30.609375 66.40625 
Q 23.96875 66.40625 20.09375 61.84375 
Q 16.21875 57.28125 16.21875 49.421875 
Q 16.21875 41.5 20.09375 36.953125 
Q 23.96875 32.421875 30.609375 32.421875 
" id="DejaVuSans-39"/>
     </defs>
     <g transform="translate(184.4092 59.4035)scale(0.09163 -0.09163)">
      <use xlink:href="#DejaVuSans-30"/>
      <use x="63.623046875" xlink:href="#DejaVuSans-2e"/>
      <use x="95.41015625" xlink:href="#DejaVuSans-39"/>
     </g>
    </g>
    <g id="line2d_36">
     <path d="M 200.7825 56.19645 
L 213.6107 56.19645 
" style="fill:none;stroke:#242424;stroke-width:2.0;"/>
    </g>
    <g id="line2d_37"/>
    <g id="text_20">
     <!-- 0.95 -->
     <g transform="translate(223.69 59.4035)scale(0.09163 -0.09163)">
      <use xlink:href="#DejaVuSans-30"/>
      <use x="63.623046875" xlink:href="#DejaVuSans-2e"/>
      <use x="95.41015625" xlink:href="#DejaVuSans-39"/>
      <use x="159.033203125" xlink:href="#DejaVuSans-35"/>
     </g>
    </g>
    <g id="line2d_38">
     <path d="M 245.8133 56.19645 
L 258.6415 56.19645 
" style="fill:none;stroke:#000000;stroke-width:2.0;"/>
    </g>
    <g id="line2d_39"/>
    <g id="text_21">
     <!-- 1 -->
     <g transform="translate(268.7208 59.4035)scale(0.09163 -0.09163)">
      <use xlink:href="#DejaVuSans-31"/>
     </g>
    </g>
   </g>
  </g>
  <g id="axes_2">
   <g id="patch_8">
    <path d="M 381.816 302.4959 
L 589.176 302.4959 
L 589.176 43.2959 
L 381.816 43.2959 
L 381.816 302.4959 
z
" style="fill:none;"/>
   </g>
   <g id="line2d_40">
    <path clip-path="url(#p122d6537e0)" d="M 354.307305 45.460037 
L 371.0787 44.790085 
L 387.850096 50.128028 
L 404.621491 60.21644 
L 421.392886 73.487075 
L 438.164282 87.692426 
L 454.935677 101.333642 
L 471.707072 112.683311 
L 488.478467 122.656776 
L 505.249863 133.455668 
L 522.021258 147.100154 
L 538.792653 162.642493 
L 555.564049 179.587704 
L 572.335444 198.165574 
L 589.106839 218.364088 
" style="fill:none;stroke:#959595;stroke-width:2.0;"/>
   </g>
   <g id="matplotlib.axis_3">
    <g id="xtick_6">
     <g id="line2d_41">
      <path clip-path="url(#p122d6537e0)" d="M 381.816 302.4959 
L 381.816 43.2959 
" style="fill:none;stroke:#000000;stroke-dasharray:1.000000,3.000000;stroke-dashoffset:0.0;"/>
     </g>
     <g id="line2d_42">
      <defs>
       <path d="M 0 0 
L 0 -8 
" id="ma795a91bbd" style="stroke:#000000;stroke-width:0.5;"/>
      </defs>
      <g>
       <use style="stroke:#000000;stroke-width:0.5;" x="381.816" xlink:href="#ma795a91bbd" y="302.4959"/>
      </g>
     </g>
     <g id="text_22">
      <!-- 5 -->
      <g transform="translate(378.316625 314.85418125)scale(0.11 -0.11)">
       <use xlink:href="#DejaVuSans-35"/>
      </g>
     </g>
    </g>
    <g id="xtick_7">
     <g id="line2d_43">
      <path clip-path="url(#p122d6537e0)" d="M 429.778584 302.4959 
L 429.778584 43.2959 
" style="fill:none;stroke:#000000;stroke-dasharray:1.000000,3.000000;stroke-dashoffset:0.0;"/>
     </g>
     <g id="line2d_44">
      <g>
       <use style="stroke:#000000;stroke-width:0.5;" x="429.778583977" xlink:href="#ma795a91bbd" y="302.4959"/>
      </g>
     </g>
     <g id="text_23">
      <!-- 10 -->
      <g transform="translate(422.779833977 314.85418125)scale(0.11 -0.11)">
       <use xlink:href="#DejaVuSans-31"/>
       <use x="63.623046875" xlink:href="#DejaVuSans-30"/>
      </g>
     </g>
    </g>
    <g id="xtick_8">
     <g id="line2d_45">
      <path clip-path="url(#p122d6537e0)" d="M 477.741168 302.4959 
L 477.741168 43.2959 
" style="fill:none;stroke:#000000;stroke-dasharray:1.000000,3.000000;stroke-dashoffset:0.0;"/>
     </g>
     <g id="line2d_46">
      <g>
       <use style="stroke:#000000;stroke-width:0.5;" x="477.741167954" xlink:href="#ma795a91bbd" y="302.4959"/>
      </g>
     </g>
     <g id="text_24">
      <!-- 20 -->
      <g transform="translate(470.742417954 314.85418125)scale(0.11 -0.11)">
       <use xlink:href="#DejaVuSans-32"/>
       <use x="63.623046875" xlink:href="#DejaVuSans-30"/>
      </g>
     </g>
    </g>
    <g id="xtick_9">
     <g id="line2d_47">
      <path clip-path="url(#p122d6537e0)" d="M 525.703752 302.4959 
L 525.703752 43.2959 
" style="fill:none;stroke:#000000;stroke-dasharray:1.000000,3.000000;stroke-dashoffset:0.0;"/>
     </g>
     <g id="line2d_48">
      <g>
       <use style="stroke:#000000;stroke-width:0.5;" x="525.70375193" xlink:href="#ma795a91bbd" y="302.4959"/>
      </g>
     </g>
     <g id="text_25">
      <!-- 40 -->
      <defs>
       <path d="M 37.796875 64.3125 
L 12.890625 25.390625 
L 37.796875 25.390625 
z
M 35.203125 72.90625 
L 47.609375 72.90625 
L 47.609375 25.390625 
L 58.015625 25.390625 
L 58.015625 17.1875 
L 47.609375 17.1875 
L 47.609375 0 
L 37.796875 0 
L 37.796875 17.1875 
L 4.890625 17.1875 
L 4.890625 26.703125 
z
" id="DejaVuSans-34"/>
      </defs>
      <g transform="translate(518.70500193 314.85418125)scale(0.11 -0.11)">
       <use xlink:href="#DejaVuSans-34"/>
       <use x="63.623046875" xlink:href="#DejaVuSans-30"/>
      </g>
     </g>
    </g>
    <g id="xtick_10">
     <g id="line2d_49">
      <path clip-path="url(#p122d6537e0)" d="M 553.760065 302.4959 
L 553.760065 43.2959 
" style="fill:none;stroke:#000000;stroke-dasharray:1.000000,3.000000;stroke-dashoffset:0.0;"/>
     </g>
     <g id="line2d_50">
      <g>
       <use style="stroke:#000000;stroke-width:0.5;" x="553.760064994" xlink:href="#ma795a91bbd" y="302.4959"/>
      </g>
     </g>
     <g id="text_26">
      <!-- 60 -->
      <defs>
       <path d="M 33.015625 40.375 
Q 26.375 40.375 22.484375 35.828125 
Q 18.609375 31.296875 18.609375 23.390625 
Q 18.609375 15.53125 22.484375 10.953125 
Q 26.375 6.390625 33.015625 6.390625 
Q 39.65625 6.390625 43.53125 10.953125 
Q 47.40625 15.53125 47.40625 23.390625 
Q 47.40625 31.296875 43.53125 35.828125 
Q 39.65625 40.375 33.015625 40.375 
M 52.59375 71.296875 
L 52.59375 62.3125 
Q 48.875 64.0625 45.09375 64.984375 
Q 41.3125 65.921875 37.59375 65.921875 
Q 27.828125 65.921875 22.671875 59.328125 
Q 17.53125 52.734375 16.796875 39.40625 
Q 19.671875 43.65625 24.015625 45.921875 
Q 28.375 48.1875 33.59375 48.1875 
Q 44.578125 48.1875 50.953125 41.515625 
Q 57.328125 34.859375 57.328125 23.390625 
Q 57.328125 12.15625 50.6875 5.359375 
Q 44.046875 -1.421875 33.015625 -1.421875 
Q 20.359375 -1.421875 13.671875 8.265625 
Q 6.984375 17.96875 6.984375 36.375 
Q 6.984375 53.65625 15.1875 63.9375 
Q 23.390625 74.21875 37.203125 74.21875 
Q 40.921875 74.21875 44.703125 73.484375 
Q 48.484375 72.75 52.59375 71.296875 
" id="DejaVuSans-36"/>
      </defs>
      <g transform="translate(546.761314994 314.85418125)scale(0.11 -0.11)">
       <use xlink:href="#DejaVuSans-36"/>
       <use x="63.623046875" xlink:href="#DejaVuSans-30"/>
      </g>
     </g>
    </g>
    <g id="xtick_11">
     <g id="line2d_51">
      <path clip-path="url(#p122d6537e0)" d="M 589.106839 302.4959 
L 589.106839 43.2959 
" style="fill:none;stroke:#000000;stroke-dasharray:1.000000,3.000000;stroke-dashoffset:0.0;"/>
     </g>
     <g id="line2d_52">
      <g>
       <use style="stroke:#000000;stroke-width:0.5;" x="589.106839193" xlink:href="#ma795a91bbd" y="302.4959"/>
      </g>
     </g>
     <g id="text_27">
      <!-- 100 -->
      <g transform="translate(578.608714193 314.85418125)scale(0.11 -0.11)">
       <use xlink:href="#DejaVuSans-31"/>
       <use x="63.623046875" xlink:href="#DejaVuSans-30"/>
       <use x="127.24609375" xlink:href="#DejaVuSans-30"/>
      </g>
     </g>
    </g>
    <g id="xtick_12">
     <g id="line2d_53">
      <defs>
       <path d="M 0 0 
L 0 -4 
" id="mb969ebc4be" style="stroke:#000000;stroke-width:0.5;"/>
      </defs>
      <g>
       <use style="stroke:#000000;stroke-width:0.5;" x="381.816" xlink:href="#mb969ebc4be" y="302.4959"/>
      </g>
     </g>
    </g>
    <g id="xtick_13">
     <g id="line2d_54">
      <g>
       <use style="stroke:#000000;stroke-width:0.5;" x="394.431809779" xlink:href="#mb969ebc4be" y="302.4959"/>
      </g>
     </g>
    </g>
    <g id="xtick_14">
     <g id="line2d_55">
      <g>
       <use style="stroke:#000000;stroke-width:0.5;" x="405.098324963" xlink:href="#mb969ebc4be" y="302.4959"/>
      </g>
     </g>
    </g>
    <g id="xtick_15">
     <g id="line2d_56">
      <g>
       <use style="stroke:#000000;stroke-width:0.5;" x="414.338080691" xlink:href="#mb969ebc4be" y="302.4959"/>
      </g>
     </g>
    </g>
    <g id="xtick_16">
     <g id="line2d_57">
      <g>
       <use style="stroke:#000000;stroke-width:0.5;" x="422.488122843" xlink:href="#mb969ebc4be" y="302.4959"/>
      </g>
     </g>
    </g>
    <g id="xtick_17">
     <g id="line2d_58">
      <g>
       <use style="stroke:#000000;stroke-width:0.5;" x="477.741167954" xlink:href="#mb969ebc4be" y="302.4959"/>
      </g>
     </g>
    </g>
    <g id="xtick_18">
     <g id="line2d_59">
      <g>
       <use style="stroke:#000000;stroke-width:0.5;" x="505.797481018" xlink:href="#mb969ebc4be" y="302.4959"/>
      </g>
     </g>
    </g>
    <g id="xtick_19">
     <g id="line2d_60">
      <g>
       <use style="stroke:#000000;stroke-width:0.5;" x="525.70375193" xlink:href="#mb969ebc4be" y="302.4959"/>
      </g>
     </g>
    </g>
    <g id="xtick_20">
     <g id="line2d_61">
      <g>
       <use style="stroke:#000000;stroke-width:0.5;" x="541.144255216" xlink:href="#mb969ebc4be" y="302.4959"/>
      </g>
     </g>
    </g>
    <g id="xtick_21">
     <g id="line2d_62">
      <g>
       <use style="stroke:#000000;stroke-width:0.5;" x="553.760064994" xlink:href="#mb969ebc4be" y="302.4959"/>
      </g>
     </g>
    </g>
    <g id="xtick_22">
     <g id="line2d_63">
      <g>
       <use style="stroke:#000000;stroke-width:0.5;" x="564.426580179" xlink:href="#mb969ebc4be" y="302.4959"/>
      </g>
     </g>
    </g>
    <g id="xtick_23">
     <g id="line2d_64">
      <g>
       <use style="stroke:#000000;stroke-width:0.5;" x="573.666335907" xlink:href="#mb969ebc4be" y="302.4959"/>
      </g>
     </g>
    </g>
    <g id="xtick_24">
     <g id="line2d_65">
      <g>
       <use style="stroke:#000000;stroke-width:0.5;" x="581.816378059" xlink:href="#mb969ebc4be" y="302.4959"/>
      </g>
     </g>
    </g>
    <g id="text_28">
     <!-- Contrast -->
     <g transform="translate(461.99553125 330.50011875)scale(0.11 -0.11)">
      <use xlink:href="#DejaVuSans-43"/>
      <use x="69.82421875" xlink:href="#DejaVuSans-6f"/>
      <use x="131.005859375" xlink:href="#DejaVuSans-6e"/>
      <use x="194.384765625" xlink:href="#DejaVuSans-74"/>
      <use x="233.59375" xlink:href="#DejaVuSans-72"/>
      <use x="274.70703125" xlink:href="#DejaVuSans-61"/>
      <use x="335.986328125" xlink:href="#DejaVuSans-73"/>
      <use x="388.0859375" xlink:href="#DejaVuSans-74"/>
     </g>
    </g>
   </g>
   <g id="matplotlib.axis_4">
    <g id="ytick_8">
     <g id="line2d_66">
      <path clip-path="url(#p122d6537e0)" d="M 381.816 274.818504 
L 589.176 274.818504 
" style="fill:none;stroke:#000000;stroke-dasharray:1.000000,3.000000;stroke-dashoffset:0.0;"/>
     </g>
     <g id="line2d_67">
      <g>
       <use style="stroke:#000000;stroke-width:0.5;" x="381.816" xlink:href="#md70d9ccca6" y="274.818503606"/>
      </g>
     </g>
     <g id="text_29">
      <!-- −3.0 -->
      <g transform="translate(351.10490625 277.853816106)scale(0.11 -0.11)">
       <use xlink:href="#DejaVuSans-2212"/>
       <use x="83.7890625" xlink:href="#DejaVuSans-33"/>
       <use x="147.412109375" xlink:href="#DejaVuSans-2e"/>
       <use x="179.19921875" xlink:href="#DejaVuSans-30"/>
      </g>
     </g>
    </g>
    <g id="ytick_9">
     <g id="line2d_68">
      <path clip-path="url(#p122d6537e0)" d="M 381.816 240.876619 
L 589.176 240.876619 
" style="fill:none;stroke:#000000;stroke-dasharray:1.000000,3.000000;stroke-dashoffset:0.0;"/>
     </g>
     <g id="line2d_69">
      <g>
       <use style="stroke:#000000;stroke-width:0.5;" x="381.816" xlink:href="#md70d9ccca6" y="240.876619268"/>
      </g>
     </g>
     <g id="text_30">
      <!-- −2.5 -->
      <g transform="translate(351.10490625 243.911931768)scale(0.11 -0.11)">
       <use xlink:href="#DejaVuSans-2212"/>
       <use x="83.7890625" xlink:href="#DejaVuSans-32"/>
       <use x="147.412109375" xlink:href="#DejaVuSans-2e"/>
       <use x="179.19921875" xlink:href="#DejaVuSans-35"/>
      </g>
     </g>
    </g>
    <g id="ytick_10">
     <g id="line2d_70">
      <path clip-path="url(#p122d6537e0)" d="M 381.816 206.934735 
L 589.176 206.934735 
" style="fill:none;stroke:#000000;stroke-dasharray:1.000000,3.000000;stroke-dashoffset:0.0;"/>
     </g>
     <g id="line2d_71">
      <g>
       <use style="stroke:#000000;stroke-width:0.5;" x="381.816" xlink:href="#md70d9ccca6" y="206.934734929"/>
      </g>
     </g>
     <g id="text_31">
      <!-- −2.0 -->
      <g transform="translate(351.10490625 209.970047429)scale(0.11 -0.11)">
       <use xlink:href="#DejaVuSans-2212"/>
       <use x="83.7890625" xlink:href="#DejaVuSans-32"/>
       <use x="147.412109375" xlink:href="#DejaVuSans-2e"/>
       <use x="179.19921875" xlink:href="#DejaVuSans-30"/>
      </g>
     </g>
    </g>
    <g id="ytick_11">
     <g id="line2d_72">
      <path clip-path="url(#p122d6537e0)" d="M 381.816 172.992851 
L 589.176 172.992851 
" style="fill:none;stroke:#000000;stroke-dasharray:1.000000,3.000000;stroke-dashoffset:0.0;"/>
     </g>
     <g id="line2d_73">
      <g>
       <use style="stroke:#000000;stroke-width:0.5;" x="381.816" xlink:href="#md70d9ccca6" y="172.992850591"/>
      </g>
     </g>
     <g id="text_32">
      <!-- −1.5 -->
      <g transform="translate(351.10490625 176.028163091)scale(0.11 -0.11)">
       <use xlink:href="#DejaVuSans-2212"/>
       <use x="83.7890625" xlink:href="#DejaVuSans-31"/>
       <use x="147.412109375" xlink:href="#DejaVuSans-2e"/>
       <use x="179.19921875" xlink:href="#DejaVuSans-35"/>
      </g>
     </g>
    </g>
    <g id="ytick_12">
     <g id="line2d_74">
      <path clip-path="url(#p122d6537e0)" d="M 381.816 139.050966 
L 589.176 139.050966 
" style="fill:none;stroke:#000000;stroke-dasharray:1.000000,3.000000;stroke-dashoffset:0.0;"/>
     </g>
     <g id="line2d_75">
      <g>
       <use style="stroke:#000000;stroke-width:0.5;" x="381.816" xlink:href="#md70d9ccca6" y="139.050966252"/>
      </g>
     </g>
     <g id="text_33">
      <!-- −1.0 -->
      <g transform="translate(351.10490625 142.086278752)scale(0.11 -0.11)">
       <use xlink:href="#DejaVuSans-2212"/>
       <use x="83.7890625" xlink:href="#DejaVuSans-31"/>
       <use x="147.412109375" xlink:href="#DejaVuSans-2e"/>
       <use x="179.19921875" xlink:href="#DejaVuSans-30"/>
      </g>
     </g>
    </g>
    <g id="ytick_13">
     <g id="line2d_76">
      <path clip-path="url(#p122d6537e0)" d="M 381.816 105.109082 
L 589.176 105.109082 
" style="fill:none;stroke:#000000;stroke-dasharray:1.000000,3.000000;stroke-dashoffset:0.0;"/>
     </g>
     <g id="line2d_77">
      <g>
       <use style="stroke:#000000;stroke-width:0.5;" x="381.816" xlink:href="#md70d9ccca6" y="105.109081914"/>
      </g>
     </g>
     <g id="text_34">
      <!-- −0.5 -->
      <g transform="translate(351.10490625 108.144394414)scale(0.11 -0.11)">
       <use xlink:href="#DejaVuSans-2212"/>
       <use x="83.7890625" xlink:href="#DejaVuSans-30"/>
       <use x="147.412109375" xlink:href="#DejaVuSans-2e"/>
       <use x="179.19921875" xlink:href="#DejaVuSans-35"/>
      </g>
     </g>
    </g>
    <g id="ytick_14">
     <g id="line2d_78">
      <path clip-path="url(#p122d6537e0)" d="M 381.816 71.167198 
L 589.176 71.167198 
" style="fill:none;stroke:#000000;stroke-dasharray:1.000000,3.000000;stroke-dashoffset:0.0;"/>
     </g>
     <g id="line2d_79">
      <g>
       <use style="stroke:#000000;stroke-width:0.5;" x="381.816" xlink:href="#md70d9ccca6" y="71.1671975753"/>
      </g>
     </g>
     <g id="text_35">
      <!-- 0.0 -->
      <g transform="translate(360.3225625 74.2025100753)scale(0.11 -0.11)">
       <use xlink:href="#DejaVuSans-30"/>
       <use x="63.623046875" xlink:href="#DejaVuSans-2e"/>
       <use x="95.41015625" xlink:href="#DejaVuSans-30"/>
      </g>
     </g>
    </g>
    <g id="text_36">
     <!-- OCSI -->
     <g transform="translate(343.81725 186.18011875)rotate(-90.0)scale(0.11 -0.11)">
      <use xlink:href="#DejaVuSans-4f"/>
      <use x="78.7109375" xlink:href="#DejaVuSans-43"/>
      <use x="148.53515625" xlink:href="#DejaVuSans-53"/>
      <use x="212.01171875" xlink:href="#DejaVuSans-49"/>
     </g>
    </g>
   </g>
   <g id="line2d_80">
    <path clip-path="url(#p122d6537e0)" d="M 354.307305 46.173209 
L 371.0787 44.072769 
L 387.850096 49.440668 
L 404.621491 60.052672 
L 421.392886 72.758585 
L 438.164282 84.733412 
L 454.935677 94.489298 
L 471.707072 101.256569 
L 488.478467 106.50775 
L 505.249863 111.80954 
L 522.021258 117.637117 
L 538.792653 123.39734 
L 555.564049 129.221762 
L 572.335444 134.836988 
L 589.106839 140.11058 
" style="fill:none;stroke:#727272;stroke-width:2.0;"/>
   </g>
   <g id="line2d_81">
    <path clip-path="url(#p122d6537e0)" d="M 354.307305 46.954176 
L 371.0787 43.590421 
L 387.850096 48.882128 
L 404.621491 59.631139 
L 421.392886 71.365278 
L 438.164282 81.302263 
L 454.935677 88.552453 
L 471.707072 93.007226 
L 488.478467 96.131971 
L 505.249863 99.082715 
L 522.021258 102.159906 
L 538.792653 105.124785 
L 555.564049 107.910287 
L 572.335444 110.3721 
L 589.106839 112.499452 
" style="fill:none;stroke:#515151;stroke-width:2.0;"/>
   </g>
   <g id="patch_9">
    <path d="M 381.816 43.2959 
L 589.176 43.2959 
" style="fill:none;stroke:#000000;stroke-linecap:square;stroke-linejoin:miter;"/>
   </g>
   <g id="patch_10">
    <path d="M 589.176 302.4959 
L 589.176 43.2959 
" style="fill:none;stroke:#000000;stroke-linecap:square;stroke-linejoin:miter;"/>
   </g>
   <g id="patch_11">
    <path d="M 381.816 302.4959 
L 589.176 302.4959 
" style="fill:none;stroke:#000000;stroke-linecap:square;stroke-linejoin:miter;"/>
   </g>
   <g id="patch_12">
    <path d="M 381.816 302.4959 
L 381.816 43.2959 
" style="fill:none;stroke:#000000;stroke-linecap:square;stroke-linejoin:miter;"/>
   </g>
   <g id="line2d_82">
    <path clip-path="url(#p122d6537e0)" d="M 354.307305 47.655914 
L 371.0787 43.2959 
L 387.850096 48.403909 
L 404.621491 58.963237 
L 421.392886 69.548205 
L 438.164282 77.809898 
L 454.935677 83.500018 
L 471.707072 86.835441 
L 488.478467 89.002255 
L 505.249863 90.891673 
L 522.021258 92.760505 
L 538.792653 94.487221 
L 555.564049 96.023053 
L 572.335444 97.303859 
L 589.106839 98.375483 
" style="fill:none;stroke:#242424;stroke-width:2.0;"/>
   </g>
   <g id="line2d_83">
    <path clip-path="url(#p122d6537e0)" d="M 354.307305 47.655914 
L 371.0787 43.2959 
L 387.850096 48.403909 
L 404.621491 58.963237 
L 421.392886 69.548205 
L 438.164282 77.809898 
L 454.935677 83.500018 
L 471.707072 86.835441 
L 488.478467 89.002255 
L 505.249863 90.891673 
L 522.021258 92.760505 
L 538.792653 94.487221 
L 555.564049 96.023053 
L 572.335444 97.303859 
L 589.106839 98.375483 
" style="fill:none;stroke:#000000;stroke-width:2.0;"/>
   </g>
   <g id="text_37">
    <!-- B -->
    <defs>
     <path d="M 19.671875 34.8125 
L 19.671875 8.109375 
L 35.5 8.109375 
Q 43.453125 8.109375 47.28125 11.40625 
Q 51.125 14.703125 51.125 21.484375 
Q 51.125 28.328125 47.28125 31.5625 
Q 43.453125 34.8125 35.5 34.8125 
z
M 19.671875 64.796875 
L 19.671875 42.828125 
L 34.28125 42.828125 
Q 41.5 42.828125 45.03125 45.53125 
Q 48.578125 48.25 48.578125 53.8125 
Q 48.578125 59.328125 45.03125 62.0625 
Q 41.5 64.796875 34.28125 64.796875 
z
M 9.8125 72.90625 
L 35.015625 72.90625 
Q 46.296875 72.90625 52.390625 68.21875 
Q 58.5 63.53125 58.5 54.890625 
Q 58.5 48.1875 55.375 44.234375 
Q 52.25 40.28125 46.1875 39.3125 
Q 53.46875 37.75 57.5 32.78125 
Q 61.53125 27.828125 61.53125 20.40625 
Q 61.53125 10.640625 54.890625 5.3125 
Q 48.25 0 35.984375 0 
L 9.8125 0 
z
" id="DejaVuSans-42"/>
    </defs>
    <g transform="translate(325.44 61.9759)scale(0.18 -0.18)">
     <use xlink:href="#DejaVuSans-42"/>
    </g>
   </g>
   <g id="legend_2">
    <g id="patch_13">
     <path d="M 383.6486 38.1119 
L 587.3434 38.1119 
Q 589.176 38.1119 589.176 36.2793 
L 589.176 8.386662 
Q 589.176 6.554062 587.3434 6.554062 
L 383.6486 6.554062 
Q 381.816 6.554062 381.816 8.386662 
L 381.816 36.2793 
Q 381.816 38.1119 383.6486 38.1119 
z
" style="fill:#ffffff;stroke:#000000;stroke-linejoin:miter;"/>
    </g>
    <g id="text_38">
     <!-- Duration -->
     <g transform="translate(461.496 18.57754375)scale(0.11 -0.11)">
      <use xlink:href="#DejaVuSans-44"/>
      <use x="77.001953125" xlink:href="#DejaVuSans-75"/>
      <use x="140.380859375" xlink:href="#DejaVuSans-72"/>
      <use x="181.494140625" xlink:href="#DejaVuSans-61"/>
      <use x="242.7734375" xlink:href="#DejaVuSans-74"/>
      <use x="281.982421875" xlink:href="#DejaVuSans-69"/>
      <use x="309.765625" xlink:href="#DejaVuSans-6f"/>
      <use x="370.947265625" xlink:href="#DejaVuSans-6e"/>
     </g>
    </g>
    <g id="line2d_84">
     <path d="M 388.2301 29.23965 
L 401.0583 29.23965 
" style="fill:none;stroke:#959595;stroke-width:2.0;"/>
    </g>
    <g id="line2d_85"/>
    <g id="text_39">
     <!-- 0.8 -->
     <g transform="translate(411.1376 32.4467)scale(0.09163 -0.09163)">
      <use xlink:href="#DejaVuSans-30"/>
      <use x="63.623046875" xlink:href="#DejaVuSans-2e"/>
      <use x="95.41015625" xlink:href="#DejaVuSans-38"/>
     </g>
    </g>
    <g id="line2d_86">
     <path d="M 427.5109 29.23965 
L 440.3391 29.23965 
" style="fill:none;stroke:#727272;stroke-width:2.0;"/>
    </g>
    <g id="line2d_87"/>
    <g id="text_40">
     <!-- 0.85 -->
     <g transform="translate(450.4184 32.4467)scale(0.09163 -0.09163)">
      <use xlink:href="#DejaVuSans-30"/>
      <use x="63.623046875" xlink:href="#DejaVuSans-2e"/>
      <use x="95.41015625" xlink:href="#DejaVuSans-38"/>
      <use x="159.033203125" xlink:href="#DejaVuSans-35"/>
     </g>
    </g>
    <g id="line2d_88">
     <path d="M 472.5417 29.23965 
L 485.3699 29.23965 
" style="fill:none;stroke:#515151;stroke-width:2.0;"/>
    </g>
    <g id="line2d_89"/>
    <g id="text_41">
     <!-- 0.9 -->
     <g transform="translate(495.4492 32.4467)scale(0.09163 -0.09163)">
      <use xlink:href="#DejaVuSans-30"/>
      <use x="63.623046875" xlink:href="#DejaVuSans-2e"/>
      <use x="95.41015625" xlink:href="#DejaVuSans-39"/>
     </g>
    </g>
    <g id="line2d_90">
     <path d="M 511.8225 29.23965 
L 524.6507 29.23965 
" style="fill:none;stroke:#242424;stroke-width:2.0;"/>
    </g>
    <g id="line2d_91"/>
    <g id="text_42">
     <!-- 0.95 -->
     <g transform="translate(534.73 32.4467)scale(0.09163 -0.09163)">
      <use xlink:href="#DejaVuSans-30"/>
      <use x="63.623046875" xlink:href="#DejaVuSans-2e"/>
      <use x="95.41015625" xlink:href="#DejaVuSans-39"/>
      <use x="159.033203125" xlink:href="#DejaVuSans-35"/>
     </g>
    </g>
    <g id="line2d_92">
     <path d="M 556.8533 29.23965 
L 569.6815 29.23965 
" style="fill:none;stroke:#000000;stroke-width:2.0;"/>
    </g>
    <g id="line2d_93"/>
    <g id="text_43">
     <!-- 1 -->
     <g transform="translate(579.7608 32.4467)scale(0.09163 -0.09163)">
      <use xlink:href="#DejaVuSans-31"/>
     </g>
    </g>
   </g>
  </g>
 </g>
 <defs>
  <clipPath id="p122d6537e0">
   <rect height="259.2" width="207.36" x="381.816" y="43.2959"/>
  </clipPath>
  <clipPath id="pa024627ce8">
   <rect height="207.36" width="207.36" x="70.776" y="69.2159"/>
  </clipPath>
 </defs>
</svg>
