<?xml version="1.0" encoding="utf-8" standalone="no"?>
<!DOCTYPE svg PUBLIC "-//W3C//DTD SVG 1.1//EN"
  "http://www.w3.org/Graphics/SVG/1.1/DTD/svg11.dtd">
<!-- Created with matplotlib (http://matplotlib.org/) -->
<svg height="326pt" version="1.1" viewBox="0 0 458 326" width="458pt" xmlns="http://www.w3.org/2000/svg" xmlns:xlink="http://www.w3.org/1999/xlink">
 <defs>
  <style type="text/css">
*{stroke-linecap:butt;stroke-linejoin:round;stroke-miterlimit:100000;}
  </style>
 </defs>
 <g id="figure_1">
  <g id="patch_1">
   <path d="M 0 326.850156 
L 458.23875 326.850156 
L 458.23875 0 
L 0 0 
z
" style="fill:#ffffff;"/>
  </g>
  <g id="axes_1">
   <g id="patch_2">
    <path d="M 44.339375 289.358281 
L 447.539375 289.358281 
L 447.539375 20.558281 
L 44.339375 20.558281 
z
" style="fill:#ffffff;"/>
   </g>
   <g id="line2d_1">
    <path clip-path="url(#p2a4854fa44)" d="M 44.339375 289.358281 
L 57.779375 252.231798 
L 71.219375 194.007982 
L 84.659375 187.882166 
L 98.099375 201.023041 
L 111.539375 218.676213 
L 124.979375 237.623064 
L 138.419375 249.039991 
L 151.859375 259.21752 
L 165.299375 263.538202 
L 178.739375 268.749624 
L 192.179375 272.433829 
L 205.619375 273.944187 
L 219.059375 274.648863 
L 232.499375 275.273694 
L 245.939375 275.332 
L 259.379375 275.075464 
L 272.819375 274.467114 
L 286.259375 273.633527 
L 299.699375 272.769169 
L 313.139375 272.092115 
L 326.579375 271.722935 
L 340.019375 271.597483 
L 353.459375 271.556815 
L 366.899375 271.548363 
L 380.339375 271.548363 
L 393.779375 271.548363 
L 407.219375 271.548363 
L 420.659375 271.548363 
L 434.099375 271.548363 
L 447.539375 271.548363 
" style="fill:none;stroke:#e2e2e2;stroke-width:2.0;"/>
   </g>
   <g id="matplotlib.axis_1">
    <g id="xtick_1">
     <g id="line2d_2">
      <path clip-path="url(#p2a4854fa44)" d="M 44.339375 289.358281 
L 44.339375 20.558281 
" style="fill:none;stroke:#000000;stroke-dasharray:1.000000,3.000000;stroke-dashoffset:0.0;"/>
     </g>
     <g id="line2d_3">
      <defs>
       <path d="M 0 0 
L 0 -0.1 
" id="m086836bc8e" style="stroke:#000000;stroke-width:0.5;"/>
      </defs>
      <g>
       <use style="stroke:#000000;stroke-width:0.5;" x="44.339375" xlink:href="#m086836bc8e" y="289.35828125"/>
      </g>
     </g>
     <g id="text_1">
      <!-- 0 -->
      <defs>
       <path d="M 31.78125 66.40625 
Q 24.171875 66.40625 20.328125 58.90625 
Q 16.5 51.421875 16.5 36.375 
Q 16.5 21.390625 20.328125 13.890625 
Q 24.171875 6.390625 31.78125 6.390625 
Q 39.453125 6.390625 43.28125 13.890625 
Q 47.125 21.390625 47.125 36.375 
Q 47.125 51.421875 43.28125 58.90625 
Q 39.453125 66.40625 31.78125 66.40625 
M 31.78125 74.21875 
Q 44.046875 74.21875 50.515625 64.515625 
Q 56.984375 54.828125 56.984375 36.375 
Q 56.984375 17.96875 50.515625 8.265625 
Q 44.046875 -1.421875 31.78125 -1.421875 
Q 19.53125 -1.421875 13.0625 8.265625 
Q 6.59375 17.96875 6.59375 36.375 
Q 6.59375 54.828125 13.0625 64.515625 
Q 19.53125 74.21875 31.78125 74.21875 
" id="DejaVuSans-30"/>
      </defs>
      <g transform="translate(40.84 301.7165625)scale(0.11 -0.11)">
       <use xlink:href="#DejaVuSans-30"/>
      </g>
     </g>
    </g>
    <g id="xtick_2">
     <g id="line2d_4">
      <path clip-path="url(#p2a4854fa44)" d="M 111.539375 289.358281 
L 111.539375 20.558281 
" style="fill:none;stroke:#000000;stroke-dasharray:1.000000,3.000000;stroke-dashoffset:0.0;"/>
     </g>
     <g id="line2d_5">
      <g>
       <use style="stroke:#000000;stroke-width:0.5;" x="111.539375" xlink:href="#m086836bc8e" y="289.35828125"/>
      </g>
     </g>
     <g id="text_2">
      <!-- 0.5 -->
      <defs>
       <path d="M 10.796875 72.90625 
L 49.515625 72.90625 
L 49.515625 64.59375 
L 19.828125 64.59375 
L 19.828125 46.734375 
Q 21.96875 47.46875 24.109375 47.828125 
Q 26.265625 48.1875 28.421875 48.1875 
Q 40.625 48.1875 47.75 41.5 
Q 54.890625 34.8125 54.890625 23.390625 
Q 54.890625 11.625 47.5625 5.09375 
Q 40.234375 -1.421875 26.90625 -1.421875 
Q 22.3125 -1.421875 17.546875 -0.640625 
Q 12.796875 0.140625 7.71875 1.703125 
L 7.71875 11.625 
Q 12.109375 9.234375 16.796875 8.0625 
Q 21.484375 6.890625 26.703125 6.890625 
Q 35.15625 6.890625 40.078125 11.328125 
Q 45.015625 15.765625 45.015625 23.390625 
Q 45.015625 31 40.078125 35.4375 
Q 35.15625 39.890625 26.703125 39.890625 
Q 22.75 39.890625 18.8125 39.015625 
Q 14.890625 38.140625 10.796875 36.28125 
z
" id="DejaVuSans-35"/>
       <path d="M 10.6875 12.40625 
L 21 12.40625 
L 21 0 
L 10.6875 0 
z
" id="DejaVuSans-2e"/>
      </defs>
      <g transform="translate(102.79265625 301.7165625)scale(0.11 -0.11)">
       <use xlink:href="#DejaVuSans-30"/>
       <use x="63.623046875" xlink:href="#DejaVuSans-2e"/>
       <use x="95.41015625" xlink:href="#DejaVuSans-35"/>
      </g>
     </g>
    </g>
    <g id="xtick_3">
     <g id="line2d_6">
      <path clip-path="url(#p2a4854fa44)" d="M 178.739375 289.358281 
L 178.739375 20.558281 
" style="fill:none;stroke:#000000;stroke-dasharray:1.000000,3.000000;stroke-dashoffset:0.0;"/>
     </g>
     <g id="line2d_7">
      <g>
       <use style="stroke:#000000;stroke-width:0.5;" x="178.739375" xlink:href="#m086836bc8e" y="289.35828125"/>
      </g>
     </g>
     <g id="text_3">
      <!-- 1 -->
      <defs>
       <path d="M 12.40625 8.296875 
L 28.515625 8.296875 
L 28.515625 63.921875 
L 10.984375 60.40625 
L 10.984375 69.390625 
L 28.421875 72.90625 
L 38.28125 72.90625 
L 38.28125 8.296875 
L 54.390625 8.296875 
L 54.390625 0 
L 12.40625 0 
z
" id="DejaVuSans-31"/>
      </defs>
      <g transform="translate(175.24 301.7165625)scale(0.11 -0.11)">
       <use xlink:href="#DejaVuSans-31"/>
      </g>
     </g>
    </g>
    <g id="xtick_4">
     <g id="line2d_8">
      <path clip-path="url(#p2a4854fa44)" d="M 245.939375 289.358281 
L 245.939375 20.558281 
" style="fill:none;stroke:#000000;stroke-dasharray:1.000000,3.000000;stroke-dashoffset:0.0;"/>
     </g>
     <g id="line2d_9">
      <g>
       <use style="stroke:#000000;stroke-width:0.5;" x="245.939375" xlink:href="#m086836bc8e" y="289.35828125"/>
      </g>
     </g>
     <g id="text_4">
      <!-- 1.5 -->
      <g transform="translate(237.19265625 301.7165625)scale(0.11 -0.11)">
       <use xlink:href="#DejaVuSans-31"/>
       <use x="63.623046875" xlink:href="#DejaVuSans-2e"/>
       <use x="95.41015625" xlink:href="#DejaVuSans-35"/>
      </g>
     </g>
    </g>
    <g id="xtick_5">
     <g id="line2d_10">
      <path clip-path="url(#p2a4854fa44)" d="M 313.139375 289.358281 
L 313.139375 20.558281 
" style="fill:none;stroke:#000000;stroke-dasharray:1.000000,3.000000;stroke-dashoffset:0.0;"/>
     </g>
     <g id="line2d_11">
      <g>
       <use style="stroke:#000000;stroke-width:0.5;" x="313.139375" xlink:href="#m086836bc8e" y="289.35828125"/>
      </g>
     </g>
     <g id="text_5">
      <!-- 2 -->
      <defs>
       <path d="M 19.1875 8.296875 
L 53.609375 8.296875 
L 53.609375 0 
L 7.328125 0 
L 7.328125 8.296875 
Q 12.9375 14.109375 22.625 23.890625 
Q 32.328125 33.6875 34.8125 36.53125 
Q 39.546875 41.84375 41.421875 45.53125 
Q 43.3125 49.21875 43.3125 52.78125 
Q 43.3125 58.59375 39.234375 62.25 
Q 35.15625 65.921875 28.609375 65.921875 
Q 23.96875 65.921875 18.8125 64.3125 
Q 13.671875 62.703125 7.8125 59.421875 
L 7.8125 69.390625 
Q 13.765625 71.78125 18.9375 73 
Q 24.125 74.21875 28.421875 74.21875 
Q 39.75 74.21875 46.484375 68.546875 
Q 53.21875 62.890625 53.21875 53.421875 
Q 53.21875 48.921875 51.53125 44.890625 
Q 49.859375 40.875 45.40625 35.40625 
Q 44.1875 33.984375 37.640625 27.21875 
Q 31.109375 20.453125 19.1875 8.296875 
" id="DejaVuSans-32"/>
      </defs>
      <g transform="translate(309.64 301.7165625)scale(0.11 -0.11)">
       <use xlink:href="#DejaVuSans-32"/>
      </g>
     </g>
    </g>
    <g id="xtick_6">
     <g id="line2d_12">
      <path clip-path="url(#p2a4854fa44)" d="M 380.339375 289.358281 
L 380.339375 20.558281 
" style="fill:none;stroke:#000000;stroke-dasharray:1.000000,3.000000;stroke-dashoffset:0.0;"/>
     </g>
     <g id="line2d_13">
      <g>
       <use style="stroke:#000000;stroke-width:0.5;" x="380.339375" xlink:href="#m086836bc8e" y="289.35828125"/>
      </g>
     </g>
     <g id="text_6">
      <!-- 2.5 -->
      <g transform="translate(371.59265625 301.7165625)scale(0.11 -0.11)">
       <use xlink:href="#DejaVuSans-32"/>
       <use x="63.623046875" xlink:href="#DejaVuSans-2e"/>
       <use x="95.41015625" xlink:href="#DejaVuSans-35"/>
      </g>
     </g>
    </g>
    <g id="xtick_7">
     <g id="line2d_14">
      <path clip-path="url(#p2a4854fa44)" d="M 447.539375 289.358281 
L 447.539375 20.558281 
" style="fill:none;stroke:#000000;stroke-dasharray:1.000000,3.000000;stroke-dashoffset:0.0;"/>
     </g>
     <g id="line2d_15">
      <g>
       <use style="stroke:#000000;stroke-width:0.5;" x="447.539375" xlink:href="#m086836bc8e" y="289.35828125"/>
      </g>
     </g>
     <g id="text_7">
      <!-- 3 -->
      <defs>
       <path d="M 40.578125 39.3125 
Q 47.65625 37.796875 51.625 33 
Q 55.609375 28.21875 55.609375 21.1875 
Q 55.609375 10.40625 48.1875 4.484375 
Q 40.765625 -1.421875 27.09375 -1.421875 
Q 22.515625 -1.421875 17.65625 -0.515625 
Q 12.796875 0.390625 7.625 2.203125 
L 7.625 11.71875 
Q 11.71875 9.328125 16.59375 8.109375 
Q 21.484375 6.890625 26.8125 6.890625 
Q 36.078125 6.890625 40.9375 10.546875 
Q 45.796875 14.203125 45.796875 21.1875 
Q 45.796875 27.640625 41.28125 31.265625 
Q 36.765625 34.90625 28.71875 34.90625 
L 20.21875 34.90625 
L 20.21875 43.015625 
L 29.109375 43.015625 
Q 36.375 43.015625 40.234375 45.921875 
Q 44.09375 48.828125 44.09375 54.296875 
Q 44.09375 59.90625 40.109375 62.90625 
Q 36.140625 65.921875 28.71875 65.921875 
Q 24.65625 65.921875 20.015625 65.03125 
Q 15.375 64.15625 9.8125 62.3125 
L 9.8125 71.09375 
Q 15.4375 72.65625 20.34375 73.4375 
Q 25.25 74.21875 29.59375 74.21875 
Q 40.828125 74.21875 47.359375 69.109375 
Q 53.90625 64.015625 53.90625 55.328125 
Q 53.90625 49.265625 50.4375 45.09375 
Q 46.96875 40.921875 40.578125 39.3125 
" id="DejaVuSans-33"/>
      </defs>
      <g transform="translate(444.04 301.7165625)scale(0.11 -0.11)">
       <use xlink:href="#DejaVuSans-33"/>
      </g>
     </g>
    </g>
    <g id="text_8">
     <!-- Size (Diameter) -->
     <defs>
      <path d="M 8.015625 75.875 
L 15.828125 75.875 
Q 23.140625 64.359375 26.78125 53.3125 
Q 30.421875 42.28125 30.421875 31.390625 
Q 30.421875 20.453125 26.78125 9.375 
Q 23.140625 -1.703125 15.828125 -13.1875 
L 8.015625 -13.1875 
Q 14.5 -2 17.703125 9.0625 
Q 20.90625 20.125 20.90625 31.390625 
Q 20.90625 42.671875 17.703125 53.65625 
Q 14.5 64.65625 8.015625 75.875 
" id="DejaVuSans-29"/>
      <path d="M 52 44.1875 
Q 55.375 50.25 60.0625 53.125 
Q 64.75 56 71.09375 56 
Q 79.640625 56 84.28125 50.015625 
Q 88.921875 44.046875 88.921875 33.015625 
L 88.921875 0 
L 79.890625 0 
L 79.890625 32.71875 
Q 79.890625 40.578125 77.09375 44.375 
Q 74.3125 48.1875 68.609375 48.1875 
Q 61.625 48.1875 57.5625 43.546875 
Q 53.515625 38.921875 53.515625 30.90625 
L 53.515625 0 
L 44.484375 0 
L 44.484375 32.71875 
Q 44.484375 40.625 41.703125 44.40625 
Q 38.921875 48.1875 33.109375 48.1875 
Q 26.21875 48.1875 22.15625 43.53125 
Q 18.109375 38.875 18.109375 30.90625 
L 18.109375 0 
L 9.078125 0 
L 9.078125 54.6875 
L 18.109375 54.6875 
L 18.109375 46.1875 
Q 21.1875 51.21875 25.484375 53.609375 
Q 29.78125 56 35.6875 56 
Q 41.65625 56 45.828125 52.96875 
Q 50 49.953125 52 44.1875 
" id="DejaVuSans-6d"/>
      <path d="M 41.109375 46.296875 
Q 39.59375 47.171875 37.8125 47.578125 
Q 36.03125 48 33.890625 48 
Q 26.265625 48 22.1875 43.046875 
Q 18.109375 38.09375 18.109375 28.8125 
L 18.109375 0 
L 9.078125 0 
L 9.078125 54.6875 
L 18.109375 54.6875 
L 18.109375 46.1875 
Q 20.953125 51.171875 25.484375 53.578125 
Q 30.03125 56 36.53125 56 
Q 37.453125 56 38.578125 55.875 
Q 39.703125 55.765625 41.0625 55.515625 
z
" id="DejaVuSans-72"/>
      <path d="M 5.515625 54.6875 
L 48.1875 54.6875 
L 48.1875 46.484375 
L 14.40625 7.171875 
L 48.1875 7.171875 
L 48.1875 0 
L 4.296875 0 
L 4.296875 8.203125 
L 38.09375 47.515625 
L 5.515625 47.515625 
z
" id="DejaVuSans-7a"/>
      <path d="M 19.671875 64.796875 
L 19.671875 8.109375 
L 31.59375 8.109375 
Q 46.6875 8.109375 53.6875 14.9375 
Q 60.6875 21.78125 60.6875 36.53125 
Q 60.6875 51.171875 53.6875 57.984375 
Q 46.6875 64.796875 31.59375 64.796875 
z
M 9.8125 72.90625 
L 30.078125 72.90625 
Q 51.265625 72.90625 61.171875 64.09375 
Q 71.09375 55.28125 71.09375 36.53125 
Q 71.09375 17.671875 61.125 8.828125 
Q 51.171875 0 30.078125 0 
L 9.8125 0 
z
" id="DejaVuSans-44"/>
      <path id="DejaVuSans-20"/>
      <path d="M 9.421875 54.6875 
L 18.40625 54.6875 
L 18.40625 0 
L 9.421875 0 
z
M 9.421875 75.984375 
L 18.40625 75.984375 
L 18.40625 64.59375 
L 9.421875 64.59375 
z
" id="DejaVuSans-69"/>
      <path d="M 53.515625 70.515625 
L 53.515625 60.890625 
Q 47.90625 63.578125 42.921875 64.890625 
Q 37.9375 66.21875 33.296875 66.21875 
Q 25.25 66.21875 20.875 63.09375 
Q 16.5 59.96875 16.5 54.203125 
Q 16.5 49.359375 19.40625 46.890625 
Q 22.3125 44.4375 30.421875 42.921875 
L 36.375 41.703125 
Q 47.40625 39.59375 52.65625 34.296875 
Q 57.90625 29 57.90625 20.125 
Q 57.90625 9.515625 50.796875 4.046875 
Q 43.703125 -1.421875 29.984375 -1.421875 
Q 24.8125 -1.421875 18.96875 -0.25 
Q 13.140625 0.921875 6.890625 3.21875 
L 6.890625 13.375 
Q 12.890625 10.015625 18.65625 8.296875 
Q 24.421875 6.59375 29.984375 6.59375 
Q 38.421875 6.59375 43.015625 9.90625 
Q 47.609375 13.234375 47.609375 19.390625 
Q 47.609375 24.75 44.3125 27.78125 
Q 41.015625 30.8125 33.5 32.328125 
L 27.484375 33.5 
Q 16.453125 35.6875 11.515625 40.375 
Q 6.59375 45.0625 6.59375 53.421875 
Q 6.59375 63.09375 13.40625 68.65625 
Q 20.21875 74.21875 32.171875 74.21875 
Q 37.3125 74.21875 42.625 73.28125 
Q 47.953125 72.359375 53.515625 70.515625 
" id="DejaVuSans-53"/>
      <path d="M 18.3125 70.21875 
L 18.3125 54.6875 
L 36.8125 54.6875 
L 36.8125 47.703125 
L 18.3125 47.703125 
L 18.3125 18.015625 
Q 18.3125 11.328125 20.140625 9.421875 
Q 21.96875 7.515625 27.59375 7.515625 
L 36.8125 7.515625 
L 36.8125 0 
L 27.59375 0 
Q 17.1875 0 13.234375 3.875 
Q 9.28125 7.765625 9.28125 18.015625 
L 9.28125 47.703125 
L 2.6875 47.703125 
L 2.6875 54.6875 
L 9.28125 54.6875 
L 9.28125 70.21875 
z
" id="DejaVuSans-74"/>
      <path d="M 31 75.875 
Q 24.46875 64.65625 21.28125 53.65625 
Q 18.109375 42.671875 18.109375 31.390625 
Q 18.109375 20.125 21.3125 9.0625 
Q 24.515625 -2 31 -13.1875 
L 23.1875 -13.1875 
Q 15.875 -1.703125 12.234375 9.375 
Q 8.59375 20.453125 8.59375 31.390625 
Q 8.59375 42.28125 12.203125 53.3125 
Q 15.828125 64.359375 23.1875 75.875 
z
" id="DejaVuSans-28"/>
      <path d="M 56.203125 29.59375 
L 56.203125 25.203125 
L 14.890625 25.203125 
Q 15.484375 15.921875 20.484375 11.0625 
Q 25.484375 6.203125 34.421875 6.203125 
Q 39.59375 6.203125 44.453125 7.46875 
Q 49.3125 8.734375 54.109375 11.28125 
L 54.109375 2.78125 
Q 49.265625 0.734375 44.1875 -0.34375 
Q 39.109375 -1.421875 33.890625 -1.421875 
Q 20.796875 -1.421875 13.15625 6.1875 
Q 5.515625 13.8125 5.515625 26.8125 
Q 5.515625 40.234375 12.765625 48.109375 
Q 20.015625 56 32.328125 56 
Q 43.359375 56 49.78125 48.890625 
Q 56.203125 41.796875 56.203125 29.59375 
M 47.21875 32.234375 
Q 47.125 39.59375 43.09375 43.984375 
Q 39.0625 48.390625 32.421875 48.390625 
Q 24.90625 48.390625 20.390625 44.140625 
Q 15.875 39.890625 15.1875 32.171875 
z
" id="DejaVuSans-65"/>
      <path d="M 34.28125 27.484375 
Q 23.390625 27.484375 19.1875 25 
Q 14.984375 22.515625 14.984375 16.5 
Q 14.984375 11.71875 18.140625 8.90625 
Q 21.296875 6.109375 26.703125 6.109375 
Q 34.1875 6.109375 38.703125 11.40625 
Q 43.21875 16.703125 43.21875 25.484375 
L 43.21875 27.484375 
z
M 52.203125 31.203125 
L 52.203125 0 
L 43.21875 0 
L 43.21875 8.296875 
Q 40.140625 3.328125 35.546875 0.953125 
Q 30.953125 -1.421875 24.3125 -1.421875 
Q 15.921875 -1.421875 10.953125 3.296875 
Q 6 8.015625 6 15.921875 
Q 6 25.140625 12.171875 29.828125 
Q 18.359375 34.515625 30.609375 34.515625 
L 43.21875 34.515625 
L 43.21875 35.40625 
Q 43.21875 41.609375 39.140625 45 
Q 35.0625 48.390625 27.6875 48.390625 
Q 23 48.390625 18.546875 47.265625 
Q 14.109375 46.140625 10.015625 43.890625 
L 10.015625 52.203125 
Q 14.9375 54.109375 19.578125 55.046875 
Q 24.21875 56 28.609375 56 
Q 40.484375 56 46.34375 49.84375 
Q 52.203125 43.703125 52.203125 31.203125 
" id="DejaVuSans-61"/>
     </defs>
     <g transform="translate(202.9328125 317.3625)scale(0.11 -0.11)">
      <use xlink:href="#DejaVuSans-53"/>
      <use x="63.4765625" xlink:href="#DejaVuSans-69"/>
      <use x="91.259765625" xlink:href="#DejaVuSans-7a"/>
      <use x="143.75" xlink:href="#DejaVuSans-65"/>
      <use x="205.2734375" xlink:href="#DejaVuSans-20"/>
      <use x="237.060546875" xlink:href="#DejaVuSans-28"/>
      <use x="276.07421875" xlink:href="#DejaVuSans-44"/>
      <use x="353.076171875" xlink:href="#DejaVuSans-69"/>
      <use x="380.859375" xlink:href="#DejaVuSans-61"/>
      <use x="442.138671875" xlink:href="#DejaVuSans-6d"/>
      <use x="539.55078125" xlink:href="#DejaVuSans-65"/>
      <use x="601.07421875" xlink:href="#DejaVuSans-74"/>
      <use x="640.283203125" xlink:href="#DejaVuSans-65"/>
      <use x="701.806640625" xlink:href="#DejaVuSans-72"/>
      <use x="742.919921875" xlink:href="#DejaVuSans-29"/>
     </g>
    </g>
   </g>
   <g id="matplotlib.axis_2">
    <g id="ytick_1">
     <g id="line2d_16">
      <path clip-path="url(#p2a4854fa44)" d="M 44.339375 267.986215 
L 447.539375 267.986215 
" style="fill:none;stroke:#000000;stroke-dasharray:1.000000,3.000000;stroke-dashoffset:0.0;"/>
     </g>
     <g id="line2d_17">
      <defs>
       <path d="M 0 0 
L 0.1 0 
" id="m3d556f92cb" style="stroke:#000000;stroke-width:0.5;"/>
      </defs>
      <g>
       <use style="stroke:#000000;stroke-width:0.5;" x="44.339375" xlink:href="#m3d556f92cb" y="267.986214888"/>
      </g>
     </g>
     <g id="text_9">
      <!-- 0.5 -->
      <g transform="translate(22.8459375 271.021527388)scale(0.11 -0.11)">
       <use xlink:href="#DejaVuSans-30"/>
       <use x="63.623046875" xlink:href="#DejaVuSans-2e"/>
       <use x="95.41015625" xlink:href="#DejaVuSans-35"/>
      </g>
     </g>
    </g>
    <g id="ytick_2">
     <g id="line2d_18">
      <path clip-path="url(#p2a4854fa44)" d="M 44.339375 233.987285 
L 447.539375 233.987285 
" style="fill:none;stroke:#000000;stroke-dasharray:1.000000,3.000000;stroke-dashoffset:0.0;"/>
     </g>
     <g id="line2d_19">
      <g>
       <use style="stroke:#000000;stroke-width:0.5;" x="44.339375" xlink:href="#m3d556f92cb" y="233.987284532"/>
      </g>
     </g>
     <g id="text_10">
      <!-- 1.0 -->
      <g transform="translate(22.8459375 237.022597032)scale(0.11 -0.11)">
       <use xlink:href="#DejaVuSans-31"/>
       <use x="63.623046875" xlink:href="#DejaVuSans-2e"/>
       <use x="95.41015625" xlink:href="#DejaVuSans-30"/>
      </g>
     </g>
    </g>
    <g id="ytick_3">
     <g id="line2d_20">
      <path clip-path="url(#p2a4854fa44)" d="M 44.339375 199.988354 
L 447.539375 199.988354 
" style="fill:none;stroke:#000000;stroke-dasharray:1.000000,3.000000;stroke-dashoffset:0.0;"/>
     </g>
     <g id="line2d_21">
      <g>
       <use style="stroke:#000000;stroke-width:0.5;" x="44.339375" xlink:href="#m3d556f92cb" y="199.988354175"/>
      </g>
     </g>
     <g id="text_11">
      <!-- 1.5 -->
      <g transform="translate(22.8459375 203.023666675)scale(0.11 -0.11)">
       <use xlink:href="#DejaVuSans-31"/>
       <use x="63.623046875" xlink:href="#DejaVuSans-2e"/>
       <use x="95.41015625" xlink:href="#DejaVuSans-35"/>
      </g>
     </g>
    </g>
    <g id="ytick_4">
     <g id="line2d_22">
      <path clip-path="url(#p2a4854fa44)" d="M 44.339375 165.989424 
L 447.539375 165.989424 
" style="fill:none;stroke:#000000;stroke-dasharray:1.000000,3.000000;stroke-dashoffset:0.0;"/>
     </g>
     <g id="line2d_23">
      <g>
       <use style="stroke:#000000;stroke-width:0.5;" x="44.339375" xlink:href="#m3d556f92cb" y="165.989423819"/>
      </g>
     </g>
     <g id="text_12">
      <!-- 2.0 -->
      <g transform="translate(22.8459375 169.024736319)scale(0.11 -0.11)">
       <use xlink:href="#DejaVuSans-32"/>
       <use x="63.623046875" xlink:href="#DejaVuSans-2e"/>
       <use x="95.41015625" xlink:href="#DejaVuSans-30"/>
      </g>
     </g>
    </g>
    <g id="ytick_5">
     <g id="line2d_24">
      <path clip-path="url(#p2a4854fa44)" d="M 44.339375 131.990493 
L 447.539375 131.990493 
" style="fill:none;stroke:#000000;stroke-dasharray:1.000000,3.000000;stroke-dashoffset:0.0;"/>
     </g>
     <g id="line2d_25">
      <g>
       <use style="stroke:#000000;stroke-width:0.5;" x="44.339375" xlink:href="#m3d556f92cb" y="131.990493462"/>
      </g>
     </g>
     <g id="text_13">
      <!-- 2.5 -->
      <g transform="translate(22.8459375 135.025805962)scale(0.11 -0.11)">
       <use xlink:href="#DejaVuSans-32"/>
       <use x="63.623046875" xlink:href="#DejaVuSans-2e"/>
       <use x="95.41015625" xlink:href="#DejaVuSans-35"/>
      </g>
     </g>
    </g>
    <g id="ytick_6">
     <g id="line2d_26">
      <path clip-path="url(#p2a4854fa44)" d="M 44.339375 97.991563 
L 447.539375 97.991563 
" style="fill:none;stroke:#000000;stroke-dasharray:1.000000,3.000000;stroke-dashoffset:0.0;"/>
     </g>
     <g id="line2d_27">
      <g>
       <use style="stroke:#000000;stroke-width:0.5;" x="44.339375" xlink:href="#m3d556f92cb" y="97.9915631056"/>
      </g>
     </g>
     <g id="text_14">
      <!-- 3.0 -->
      <g transform="translate(22.8459375 101.026875606)scale(0.11 -0.11)">
       <use xlink:href="#DejaVuSans-33"/>
       <use x="63.623046875" xlink:href="#DejaVuSans-2e"/>
       <use x="95.41015625" xlink:href="#DejaVuSans-30"/>
      </g>
     </g>
    </g>
    <g id="ytick_7">
     <g id="line2d_28">
      <path clip-path="url(#p2a4854fa44)" d="M 44.339375 63.992633 
L 447.539375 63.992633 
" style="fill:none;stroke:#000000;stroke-dasharray:1.000000,3.000000;stroke-dashoffset:0.0;"/>
     </g>
     <g id="line2d_29">
      <g>
       <use style="stroke:#000000;stroke-width:0.5;" x="44.339375" xlink:href="#m3d556f92cb" y="63.9926327491"/>
      </g>
     </g>
     <g id="text_15">
      <!-- 3.5 -->
      <g transform="translate(22.8459375 67.0279452491)scale(0.11 -0.11)">
       <use xlink:href="#DejaVuSans-33"/>
       <use x="63.623046875" xlink:href="#DejaVuSans-2e"/>
       <use x="95.41015625" xlink:href="#DejaVuSans-35"/>
      </g>
     </g>
    </g>
    <g id="ytick_8">
     <g id="line2d_30">
      <path clip-path="url(#p2a4854fa44)" d="M 44.339375 29.993702 
L 447.539375 29.993702 
" style="fill:none;stroke:#000000;stroke-dasharray:1.000000,3.000000;stroke-dashoffset:0.0;"/>
     </g>
     <g id="line2d_31">
      <g>
       <use style="stroke:#000000;stroke-width:0.5;" x="44.339375" xlink:href="#m3d556f92cb" y="29.9937023926"/>
      </g>
     </g>
     <g id="text_16">
      <!-- 4.0 -->
      <defs>
       <path d="M 37.796875 64.3125 
L 12.890625 25.390625 
L 37.796875 25.390625 
z
M 35.203125 72.90625 
L 47.609375 72.90625 
L 47.609375 25.390625 
L 58.015625 25.390625 
L 58.015625 17.1875 
L 47.609375 17.1875 
L 47.609375 0 
L 37.796875 0 
L 37.796875 17.1875 
L 4.890625 17.1875 
L 4.890625 26.703125 
z
" id="DejaVuSans-34"/>
      </defs>
      <g transform="translate(22.8459375 33.0290148926)scale(0.11 -0.11)">
       <use xlink:href="#DejaVuSans-34"/>
       <use x="63.623046875" xlink:href="#DejaVuSans-2e"/>
       <use x="95.41015625" xlink:href="#DejaVuSans-30"/>
      </g>
     </g>
    </g>
    <g id="text_17">
     <!-- Response -->
     <defs>
      <path d="M 30.609375 48.390625 
Q 23.390625 48.390625 19.1875 42.75 
Q 14.984375 37.109375 14.984375 27.296875 
Q 14.984375 17.484375 19.15625 11.84375 
Q 23.34375 6.203125 30.609375 6.203125 
Q 37.796875 6.203125 41.984375 11.859375 
Q 46.1875 17.53125 46.1875 27.296875 
Q 46.1875 37.015625 41.984375 42.703125 
Q 37.796875 48.390625 30.609375 48.390625 
M 30.609375 56 
Q 42.328125 56 49.015625 48.375 
Q 55.71875 40.765625 55.71875 27.296875 
Q 55.71875 13.875 49.015625 6.21875 
Q 42.328125 -1.421875 30.609375 -1.421875 
Q 18.84375 -1.421875 12.171875 6.21875 
Q 5.515625 13.875 5.515625 27.296875 
Q 5.515625 40.765625 12.171875 48.375 
Q 18.84375 56 30.609375 56 
" id="DejaVuSans-6f"/>
      <path d="M 44.390625 34.1875 
Q 47.5625 33.109375 50.5625 29.59375 
Q 53.5625 26.078125 56.59375 19.921875 
L 66.609375 0 
L 56 0 
L 46.6875 18.703125 
Q 43.0625 26.03125 39.671875 28.421875 
Q 36.28125 30.8125 30.421875 30.8125 
L 19.671875 30.8125 
L 19.671875 0 
L 9.8125 0 
L 9.8125 72.90625 
L 32.078125 72.90625 
Q 44.578125 72.90625 50.734375 67.671875 
Q 56.890625 62.453125 56.890625 51.90625 
Q 56.890625 45.015625 53.6875 40.46875 
Q 50.484375 35.9375 44.390625 34.1875 
M 19.671875 64.796875 
L 19.671875 38.921875 
L 32.078125 38.921875 
Q 39.203125 38.921875 42.84375 42.21875 
Q 46.484375 45.515625 46.484375 51.90625 
Q 46.484375 58.296875 42.84375 61.546875 
Q 39.203125 64.796875 32.078125 64.796875 
z
" id="DejaVuSans-52"/>
      <path d="M 54.890625 33.015625 
L 54.890625 0 
L 45.90625 0 
L 45.90625 32.71875 
Q 45.90625 40.484375 42.875 44.328125 
Q 39.84375 48.1875 33.796875 48.1875 
Q 26.515625 48.1875 22.3125 43.546875 
Q 18.109375 38.921875 18.109375 30.90625 
L 18.109375 0 
L 9.078125 0 
L 9.078125 54.6875 
L 18.109375 54.6875 
L 18.109375 46.1875 
Q 21.34375 51.125 25.703125 53.5625 
Q 30.078125 56 35.796875 56 
Q 45.21875 56 50.046875 50.171875 
Q 54.890625 44.34375 54.890625 33.015625 
" id="DejaVuSans-6e"/>
      <path d="M 18.109375 8.203125 
L 18.109375 -20.796875 
L 9.078125 -20.796875 
L 9.078125 54.6875 
L 18.109375 54.6875 
L 18.109375 46.390625 
Q 20.953125 51.265625 25.265625 53.625 
Q 29.59375 56 35.59375 56 
Q 45.5625 56 51.78125 48.09375 
Q 58.015625 40.1875 58.015625 27.296875 
Q 58.015625 14.40625 51.78125 6.484375 
Q 45.5625 -1.421875 35.59375 -1.421875 
Q 29.59375 -1.421875 25.265625 0.953125 
Q 20.953125 3.328125 18.109375 8.203125 
M 48.6875 27.296875 
Q 48.6875 37.203125 44.609375 42.84375 
Q 40.53125 48.484375 33.40625 48.484375 
Q 26.265625 48.484375 22.1875 42.84375 
Q 18.109375 37.203125 18.109375 27.296875 
Q 18.109375 17.390625 22.1875 11.75 
Q 26.265625 6.109375 33.40625 6.109375 
Q 40.53125 6.109375 44.609375 11.75 
Q 48.6875 17.390625 48.6875 27.296875 
" id="DejaVuSans-70"/>
      <path d="M 44.28125 53.078125 
L 44.28125 44.578125 
Q 40.484375 46.53125 36.375 47.5 
Q 32.28125 48.484375 27.875 48.484375 
Q 21.1875 48.484375 17.84375 46.4375 
Q 14.5 44.390625 14.5 40.28125 
Q 14.5 37.15625 16.890625 35.375 
Q 19.28125 33.59375 26.515625 31.984375 
L 29.59375 31.296875 
Q 39.15625 29.25 43.1875 25.515625 
Q 47.21875 21.78125 47.21875 15.09375 
Q 47.21875 7.46875 41.1875 3.015625 
Q 35.15625 -1.421875 24.609375 -1.421875 
Q 20.21875 -1.421875 15.453125 -0.5625 
Q 10.6875 0.296875 5.421875 2 
L 5.421875 11.28125 
Q 10.40625 8.6875 15.234375 7.390625 
Q 20.0625 6.109375 24.8125 6.109375 
Q 31.15625 6.109375 34.5625 8.28125 
Q 37.984375 10.453125 37.984375 14.40625 
Q 37.984375 18.0625 35.515625 20.015625 
Q 33.0625 21.96875 24.703125 23.78125 
L 21.578125 24.515625 
Q 13.234375 26.265625 9.515625 29.90625 
Q 5.8125 33.546875 5.8125 39.890625 
Q 5.8125 47.609375 11.28125 51.796875 
Q 16.75 56 26.8125 56 
Q 31.78125 56 36.171875 55.265625 
Q 40.578125 54.546875 44.28125 53.078125 
" id="DejaVuSans-73"/>
     </defs>
     <g transform="translate(15.55828125 181.6178125)rotate(-90.0)scale(0.11 -0.11)">
      <use xlink:href="#DejaVuSans-52"/>
      <use x="69.419921875" xlink:href="#DejaVuSans-65"/>
      <use x="130.943359375" xlink:href="#DejaVuSans-73"/>
      <use x="183.04296875" xlink:href="#DejaVuSans-70"/>
      <use x="246.51953125" xlink:href="#DejaVuSans-6f"/>
      <use x="307.701171875" xlink:href="#DejaVuSans-6e"/>
      <use x="371.080078125" xlink:href="#DejaVuSans-73"/>
      <use x="423.1796875" xlink:href="#DejaVuSans-65"/>
     </g>
    </g>
   </g>
   <g id="line2d_32">
    <path clip-path="url(#p2a4854fa44)" d="M 44.339375 277.42064 
L 57.779375 213.02251 
L 71.219375 137.785953 
L 84.659375 138.682959 
L 98.099375 164.413673 
L 111.539375 191.905288 
L 124.979375 218.917992 
L 138.419375 234.226263 
L 151.859375 248.358365 
L 165.299375 254.981834 
L 178.739375 262.542886 
L 192.179375 267.626394 
L 205.619375 269.651301 
L 219.059375 270.584665 
L 232.499375 271.406307 
L 245.939375 271.482694 
L 259.379375 271.146241 
L 272.819375 270.344618 
L 286.259375 269.237538 
L 299.699375 268.078881 
L 313.139375 267.163585 
L 326.579375 266.661613 
L 340.019375 266.49057 
L 353.459375 266.435072 
L 366.899375 266.423534 
L 380.339375 266.423534 
L 393.779375 266.423534 
L 407.219375 266.423534 
L 420.659375 266.423534 
L 434.099375 266.423534 
L 447.539375 266.423534 
" style="fill:none;stroke:#d1d1d1;stroke-width:2.0;"/>
   </g>
   <g id="line2d_33">
    <path clip-path="url(#p2a4854fa44)" d="M 44.339375 266.117291 
L 57.779375 181.326575 
L 71.219375 103.302257 
L 84.659375 111.272275 
L 98.099375 145.499514 
L 111.539375 178.699543 
L 124.979375 210.007758 
L 138.419375 227.256748 
L 151.859375 243.399891 
L 165.299375 251.215578 
L 178.739375 259.924616 
L 192.179375 265.656396 
L 205.619375 267.912537 
L 219.059375 268.947377 
L 232.499375 269.855699 
L 245.939375 269.940018 
L 259.379375 269.568465 
L 272.819375 268.681539 
L 286.259375 267.452761 
L 299.699375 266.161877 
L 313.139375 265.138595 
L 326.579375 264.57607 
L 340.019375 264.384179 
L 353.459375 264.321893 
L 366.899375 264.308942 
L 380.339375 264.308942 
L 393.779375 264.308942 
L 407.219375 264.308942 
L 420.659375 264.308942 
L 434.099375 264.308942 
L 447.539375 264.308942 
" style="fill:none;stroke:#bdbdbd;stroke-width:2.0;"/>
   </g>
   <g id="patch_3">
    <path d="M 44.339375 20.558281 
L 447.539375 20.558281 
" style="fill:none;stroke:#000000;stroke-linecap:square;stroke-linejoin:miter;"/>
   </g>
   <g id="patch_4">
    <path d="M 447.539375 289.358281 
L 447.539375 20.558281 
" style="fill:none;stroke:#000000;stroke-linecap:square;stroke-linejoin:miter;"/>
   </g>
   <g id="patch_5">
    <path d="M 44.339375 289.358281 
L 447.539375 289.358281 
" style="fill:none;stroke:#000000;stroke-linecap:square;stroke-linejoin:miter;"/>
   </g>
   <g id="patch_6">
    <path d="M 44.339375 289.358281 
L 44.339375 20.558281 
" style="fill:none;stroke:#000000;stroke-linecap:square;stroke-linejoin:miter;"/>
   </g>
   <g id="line2d_34">
    <path clip-path="url(#p2a4854fa44)" d="M 44.339375 255.398989 
L 57.779375 155.17323 
L 71.219375 79.991682 
L 84.659375 93.80008 
L 98.099375 133.948141 
L 111.539375 170.832681 
L 124.979375 204.795198 
L 138.419375 223.20519 
L 151.859375 240.560132 
L 165.299375 249.096669 
L 178.739375 258.48065 
L 192.179375 264.584183 
L 205.619375 266.97109 
L 219.059375 268.062991 
L 232.499375 269.019889 
L 245.939375 269.108646 
L 259.379375 268.717446 
L 272.819375 267.78267 
L 286.259375 266.485374 
L 299.699375 265.119722 
L 313.139375 264.035135 
L 326.579375 263.438141 
L 340.019375 263.234366 
L 353.459375 263.168209 
L 366.899375 263.154452 
L 380.339375 263.154452 
L 393.779375 263.154452 
L 407.219375 263.154452 
L 420.659375 263.154452 
L 434.099375 263.154452 
L 447.539375 263.154452 
" style="fill:none;stroke:#a0a0a0;stroke-width:2.0;"/>
   </g>
   <g id="text_18">
    <!-- SizeTuning Response -->
    <defs>
     <path d="M 8.5 21.578125 
L 8.5 54.6875 
L 17.484375 54.6875 
L 17.484375 21.921875 
Q 17.484375 14.15625 20.5 10.265625 
Q 23.53125 6.390625 29.59375 6.390625 
Q 36.859375 6.390625 41.078125 11.03125 
Q 45.3125 15.671875 45.3125 23.6875 
L 45.3125 54.6875 
L 54.296875 54.6875 
L 54.296875 0 
L 45.3125 0 
L 45.3125 8.40625 
Q 42.046875 3.421875 37.71875 1 
Q 33.40625 -1.421875 27.6875 -1.421875 
Q 18.265625 -1.421875 13.375 4.4375 
Q 8.5 10.296875 8.5 21.578125 
M 31.109375 56 
z
" id="DejaVuSans-75"/>
     <path d="M 45.40625 27.984375 
Q 45.40625 37.75 41.375 43.109375 
Q 37.359375 48.484375 30.078125 48.484375 
Q 22.859375 48.484375 18.828125 43.109375 
Q 14.796875 37.75 14.796875 27.984375 
Q 14.796875 18.265625 18.828125 12.890625 
Q 22.859375 7.515625 30.078125 7.515625 
Q 37.359375 7.515625 41.375 12.890625 
Q 45.40625 18.265625 45.40625 27.984375 
M 54.390625 6.78125 
Q 54.390625 -7.171875 48.1875 -13.984375 
Q 42 -20.796875 29.203125 -20.796875 
Q 24.46875 -20.796875 20.265625 -20.09375 
Q 16.0625 -19.390625 12.109375 -17.921875 
L 12.109375 -9.1875 
Q 16.0625 -11.328125 19.921875 -12.34375 
Q 23.78125 -13.375 27.78125 -13.375 
Q 36.625 -13.375 41.015625 -8.765625 
Q 45.40625 -4.15625 45.40625 5.171875 
L 45.40625 9.625 
Q 42.625 4.78125 38.28125 2.390625 
Q 33.9375 0 27.875 0 
Q 17.828125 0 11.671875 7.65625 
Q 5.515625 15.328125 5.515625 27.984375 
Q 5.515625 40.671875 11.671875 48.328125 
Q 17.828125 56 27.875 56 
Q 33.9375 56 38.28125 53.609375 
Q 42.625 51.21875 45.40625 46.390625 
L 45.40625 54.6875 
L 54.390625 54.6875 
z
" id="DejaVuSans-67"/>
     <path d="M -0.296875 72.90625 
L 61.375 72.90625 
L 61.375 64.59375 
L 35.5 64.59375 
L 35.5 0 
L 25.59375 0 
L 25.59375 64.59375 
L -0.296875 64.59375 
z
" id="DejaVuSans-54"/>
    </defs>
    <g transform="translate(187.418515625 15.55828125)scale(0.11 -0.11)">
     <use xlink:href="#DejaVuSans-53"/>
     <use x="63.4765625" xlink:href="#DejaVuSans-69"/>
     <use x="91.259765625" xlink:href="#DejaVuSans-7a"/>
     <use x="143.75" xlink:href="#DejaVuSans-65"/>
     <use x="205.2734375" xlink:href="#DejaVuSans-54"/>
     <use x="266.123046875" xlink:href="#DejaVuSans-75"/>
     <use x="329.501953125" xlink:href="#DejaVuSans-6e"/>
     <use x="392.880859375" xlink:href="#DejaVuSans-69"/>
     <use x="420.6640625" xlink:href="#DejaVuSans-6e"/>
     <use x="484.04296875" xlink:href="#DejaVuSans-67"/>
     <use x="547.51953125" xlink:href="#DejaVuSans-20"/>
     <use x="579.306640625" xlink:href="#DejaVuSans-52"/>
     <use x="648.7265625" xlink:href="#DejaVuSans-65"/>
     <use x="710.25" xlink:href="#DejaVuSans-73"/>
     <use x="762.349609375" xlink:href="#DejaVuSans-70"/>
     <use x="825.826171875" xlink:href="#DejaVuSans-6f"/>
     <use x="887.0078125" xlink:href="#DejaVuSans-6e"/>
     <use x="950.38671875" xlink:href="#DejaVuSans-73"/>
     <use x="1002.48632812" xlink:href="#DejaVuSans-65"/>
    </g>
   </g>
   <g id="line2d_35">
    <path clip-path="url(#p2a4854fa44)" d="M 44.339375 245.221458 
L 57.779375 133.22554 
L 71.219375 63.180987 
L 84.659375 81.69069 
L 98.099375 126.160797 
L 111.539375 165.611474 
L 124.979375 201.374088 
L 138.419375 220.556287 
L 151.859375 238.720175 
L 165.299375 247.738245 
L 178.739375 257.565681 
L 192.179375 263.909928 
L 205.619375 266.380829 
L 219.059375 267.509261 
L 232.499375 268.497199 
L 245.939375 268.588789 
L 259.379375 268.185043 
L 272.819375 267.219674 
L 286.259375 265.878481 
L 299.699375 264.464806 
L 313.139375 263.340754 
L 326.579375 262.721535 
L 340.019375 262.510093 
L 353.459375 262.441437 
L 366.899375 262.427161 
L 380.339375 262.427161 
L 393.779375 262.427161 
L 407.219375 262.427161 
L 420.659375 262.427161 
L 434.099375 262.427161 
L 447.539375 262.427161 
" style="fill:none;stroke:#868686;stroke-width:2.0;"/>
   </g>
   <g id="line2d_36">
    <path clip-path="url(#p2a4854fa44)" d="M 44.339375 235.544778 
L 57.779375 114.54455 
L 71.219375 50.4842 
L 84.659375 72.803569 
L 98.099375 120.555462 
L 111.539375 161.89342 
L 124.979375 198.956328 
L 138.419375 218.689119 
L 151.859375 237.43105 
L 165.299375 246.793187 
L 178.739375 256.934015 
L 192.179375 263.446754 
L 205.619375 265.97614 
L 219.059375 267.129954 
L 232.499375 268.139432 
L 245.939375 268.232987 
L 259.379375 267.820539 
L 272.819375 266.833933 
L 286.259375 265.462225 
L 299.699375 264.015114 
L 313.139375 262.863542 
L 326.579375 262.22881 
L 340.019375 262.012013 
L 353.459375 261.941612 
L 366.899375 261.926973 
L 380.339375 261.926973 
L 393.779375 261.926973 
L 407.219375 261.926973 
L 420.659375 261.926973 
L 434.099375 261.926973 
L 447.539375 261.926973 
" style="fill:none;stroke:#6e6e6e;stroke-width:2.0;"/>
   </g>
   <g id="line2d_37">
    <path clip-path="url(#p2a4854fa44)" d="M 44.339375 226.332868 
L 57.779375 98.45145 
L 71.219375 40.555824 
L 84.659375 66.003589 
L 98.099375 116.327737 
L 111.539375 159.111077 
L 124.979375 197.156971 
L 138.419375 217.30213 
L 151.859375 236.477607 
L 165.299375 246.097731 
L 178.739375 256.471714 
L 192.179375 263.108956 
L 205.619375 265.681397 
L 219.059375 266.85387 
L 232.499375 267.879168 
L 245.939375 267.974166 
L 259.379375 267.555329 
L 272.819375 266.55312 
L 286.259375 265.158974 
L 299.699375 263.687248 
L 313.139375 262.515397 
L 326.579375 261.869224 
L 340.019375 261.648476 
L 353.459375 261.576788 
L 366.899375 261.561881 
L 380.339375 261.561881 
L 393.779375 261.561881 
L 407.219375 261.561881 
L 420.659375 261.561881 
L 434.099375 261.561881 
L 447.539375 261.561881 
" style="fill:none;stroke:#565656;stroke-width:2.0;"/>
   </g>
   <g id="line2d_38">
    <path clip-path="url(#p2a4854fa44)" d="M 44.339375 217.553027 
L 57.779375 84.443324 
L 71.219375 32.579429 
L 84.659375 60.632768 
L 98.099375 113.025341 
L 111.539375 156.950696 
L 124.979375 195.76566 
L 138.419375 216.231192 
L 151.859375 235.743834 
L 165.299375 245.564527 
L 178.739375 256.118713 
L 192.179375 262.851696 
L 205.619375 265.457155 
L 219.059375 266.643919 
L 232.499375 267.681328 
L 245.939375 267.777429 
L 259.379375 267.353703 
L 272.819375 266.339549 
L 286.259375 264.928211 
L 299.699375 263.437609 
L 313.139375 262.250194 
L 326.579375 261.595237 
L 340.019375 261.371455 
L 353.459375 261.298778 
L 366.899375 261.283665 
L 380.339375 261.283665 
L 393.779375 261.283665 
L 407.219375 261.283665 
L 420.659375 261.283665 
L 434.099375 261.283665 
L 447.539375 261.283665 
" style="fill:none;stroke:#383838;stroke-width:2.0;"/>
   </g>
   <g id="line2d_39">
    <path clip-path="url(#p2a4854fa44)" d="M 44.339375 209.175554 
L 57.779375 72.139636 
L 71.219375 26.030882 
L 84.659375 56.283397 
L 98.099375 110.374448 
L 111.539375 155.224692 
L 124.979375 194.65773 
L 138.419375 215.379327 
L 151.859375 235.161658 
L 165.299375 245.142727 
L 178.739375 255.840349 
L 192.179375 262.649238 
L 205.619375 265.280819 
L 219.059375 266.478882 
L 232.499375 267.525859 
L 245.939375 267.622832 
L 259.379375 267.195242 
L 272.819375 266.17165 
L 286.259375 264.746719 
L 299.699375 263.241184 
L 313.139375 262.041448 
L 326.579375 261.379534 
L 340.019375 261.153349 
L 353.459375 261.079888 
L 366.899375 261.064612 
L 380.339375 261.064612 
L 393.779375 261.064612 
L 407.219375 261.064612 
L 420.659375 261.064612 
L 434.099375 261.064612 
L 447.539375 261.064612 
" style="fill:none;stroke:#1a1a1a;stroke-width:2.0;"/>
   </g>
   <g id="line2d_40">
    <path clip-path="url(#p2a4854fa44)" d="M 44.339375 201.173409 
L 57.779375 61.247146 
L 71.219375 20.558281 
L 84.659375 52.689383 
L 98.099375 108.199574 
L 111.539375 153.814027 
L 124.979375 193.754605 
L 138.419375 214.685552 
L 151.859375 234.688496 
L 165.299375 244.800718 
L 178.739375 255.615212 
L 192.179375 262.485757 
L 205.619375 265.13852 
L 219.059375 266.345738 
L 232.499375 267.400465 
L 245.939375 267.498144 
L 259.379375 267.067426 
L 272.819375 266.036187 
L 286.259375 264.60024 
L 299.699375 263.082597 
L 313.139375 261.872866 
L 326.579375 261.205306 
L 340.019375 260.97717 
L 353.459375 260.903074 
L 366.899375 260.887665 
L 380.339375 260.887665 
L 393.779375 260.887665 
L 407.219375 260.887665 
L 420.659375 260.887665 
L 434.099375 260.887665 
L 447.539375 260.887665 
" style="fill:none;stroke:#000000;stroke-width:2.0;"/>
   </g>
   <g id="legend_1">
    <g id="patch_7">
     <path d="M 321.258918 110.363948 
L 441.125275 110.363948 
Q 442.957875 110.363948 442.957875 108.531348 
L 442.957875 26.972381 
Q 442.957875 25.139781 441.125275 25.139781 
L 321.258918 25.139781 
Q 319.426318 25.139781 319.426318 26.972381 
L 319.426318 108.531348 
Q 319.426318 110.363948 321.258918 110.363948 
z
" style="fill:#ffffff;stroke:#000000;stroke-linejoin:miter;"/>
    </g>
    <g id="text_19">
     <!-- Contrast -->
     <defs>
      <path d="M 64.40625 67.28125 
L 64.40625 56.890625 
Q 59.421875 61.53125 53.78125 63.8125 
Q 48.140625 66.109375 41.796875 66.109375 
Q 29.296875 66.109375 22.65625 58.46875 
Q 16.015625 50.828125 16.015625 36.375 
Q 16.015625 21.96875 22.65625 14.328125 
Q 29.296875 6.6875 41.796875 6.6875 
Q 48.140625 6.6875 53.78125 8.984375 
Q 59.421875 11.28125 64.40625 15.921875 
L 64.40625 5.609375 
Q 59.234375 2.09375 53.4375 0.328125 
Q 47.65625 -1.421875 41.21875 -1.421875 
Q 24.65625 -1.421875 15.125 8.703125 
Q 5.609375 18.84375 5.609375 36.375 
Q 5.609375 53.953125 15.125 64.078125 
Q 24.65625 74.21875 41.21875 74.21875 
Q 47.75 74.21875 53.53125 72.484375 
Q 59.328125 70.75 64.40625 67.28125 
" id="DejaVuSans-43"/>
     </defs>
     <g transform="translate(357.691627656 37.1632625)scale(0.11 -0.11)">
      <use xlink:href="#DejaVuSans-43"/>
      <use x="69.82421875" xlink:href="#DejaVuSans-6f"/>
      <use x="131.005859375" xlink:href="#DejaVuSans-6e"/>
      <use x="194.384765625" xlink:href="#DejaVuSans-74"/>
      <use x="233.59375" xlink:href="#DejaVuSans-72"/>
      <use x="274.70703125" xlink:href="#DejaVuSans-61"/>
      <use x="335.986328125" xlink:href="#DejaVuSans-73"/>
      <use x="388.0859375" xlink:href="#DejaVuSans-74"/>
     </g>
    </g>
    <g id="line2d_41">
     <path d="M 325.840418 47.787817 
L 338.668618 47.787817 
" style="fill:none;stroke:#e2e2e2;stroke-width:2.0;"/>
    </g>
    <g id="line2d_42"/>
    <g id="text_20">
     <!-- 10% -->
     <defs>
      <path d="M 72.703125 32.078125 
Q 68.453125 32.078125 66.03125 28.46875 
Q 63.625 24.859375 63.625 18.40625 
Q 63.625 12.0625 66.03125 8.421875 
Q 68.453125 4.78125 72.703125 4.78125 
Q 76.859375 4.78125 79.265625 8.421875 
Q 81.6875 12.0625 81.6875 18.40625 
Q 81.6875 24.8125 79.265625 28.4375 
Q 76.859375 32.078125 72.703125 32.078125 
M 72.703125 38.28125 
Q 80.421875 38.28125 84.953125 32.90625 
Q 89.5 27.546875 89.5 18.40625 
Q 89.5 9.28125 84.9375 3.921875 
Q 80.375 -1.421875 72.703125 -1.421875 
Q 64.890625 -1.421875 60.34375 3.921875 
Q 55.8125 9.28125 55.8125 18.40625 
Q 55.8125 27.59375 60.375 32.9375 
Q 64.9375 38.28125 72.703125 38.28125 
M 22.3125 68.015625 
Q 18.109375 68.015625 15.6875 64.375 
Q 13.28125 60.75 13.28125 54.390625 
Q 13.28125 47.953125 15.671875 44.328125 
Q 18.0625 40.71875 22.3125 40.71875 
Q 26.5625 40.71875 28.96875 44.328125 
Q 31.390625 47.953125 31.390625 54.390625 
Q 31.390625 60.6875 28.953125 64.34375 
Q 26.515625 68.015625 22.3125 68.015625 
M 66.40625 74.21875 
L 74.21875 74.21875 
L 28.609375 -1.421875 
L 20.796875 -1.421875 
z
M 22.3125 74.21875 
Q 30.03125 74.21875 34.609375 68.875 
Q 39.203125 63.53125 39.203125 54.390625 
Q 39.203125 45.171875 34.640625 39.84375 
Q 30.078125 34.515625 22.3125 34.515625 
Q 14.546875 34.515625 10.03125 39.859375 
Q 5.515625 45.21875 5.515625 54.390625 
Q 5.515625 63.484375 10.046875 68.84375 
Q 14.59375 74.21875 22.3125 74.21875 
" id="DejaVuSans-25"/>
     </defs>
     <g transform="translate(348.747917813 50.9948670313)scale(0.09163 -0.09163)">
      <use xlink:href="#DejaVuSans-31"/>
      <use x="63.623046875" xlink:href="#DejaVuSans-30"/>
      <use x="127.24609375" xlink:href="#DejaVuSans-25"/>
     </g>
    </g>
    <g id="line2d_43">
     <path d="M 325.840418 61.237383 
L 338.668618 61.237383 
" style="fill:none;stroke:#d1d1d1;stroke-width:2.0;"/>
    </g>
    <g id="line2d_44"/>
    <g id="text_21">
     <!-- 20% -->
     <g transform="translate(348.747917813 64.4444329687)scale(0.09163 -0.09163)">
      <use xlink:href="#DejaVuSans-32"/>
      <use x="63.623046875" xlink:href="#DejaVuSans-30"/>
      <use x="127.24609375" xlink:href="#DejaVuSans-25"/>
     </g>
    </g>
    <g id="line2d_45">
     <path d="M 325.840418 74.686949 
L 338.668618 74.686949 
" style="fill:none;stroke:#bdbdbd;stroke-width:2.0;"/>
    </g>
    <g id="line2d_46"/>
    <g id="text_22">
     <!-- 30% -->
     <g transform="translate(348.747917813 77.8939989063)scale(0.09163 -0.09163)">
      <use xlink:href="#DejaVuSans-33"/>
      <use x="63.623046875" xlink:href="#DejaVuSans-30"/>
      <use x="127.24609375" xlink:href="#DejaVuSans-25"/>
     </g>
    </g>
    <g id="line2d_47">
     <path d="M 325.840418 88.136515 
L 338.668618 88.136515 
" style="fill:none;stroke:#a0a0a0;stroke-width:2.0;"/>
    </g>
    <g id="line2d_48"/>
    <g id="text_23">
     <!-- 40% -->
     <g transform="translate(348.747917813 91.3435648438)scale(0.09163 -0.09163)">
      <use xlink:href="#DejaVuSans-34"/>
      <use x="63.623046875" xlink:href="#DejaVuSans-30"/>
      <use x="127.24609375" xlink:href="#DejaVuSans-25"/>
     </g>
    </g>
    <g id="line2d_49">
     <path d="M 325.840418 101.586081 
L 338.668618 101.586081 
" style="fill:none;stroke:#868686;stroke-width:2.0;"/>
    </g>
    <g id="line2d_50"/>
    <g id="text_24">
     <!-- 50% -->
     <g transform="translate(348.747917813 104.793130781)scale(0.09163 -0.09163)">
      <use xlink:href="#DejaVuSans-35"/>
      <use x="63.623046875" xlink:href="#DejaVuSans-30"/>
      <use x="127.24609375" xlink:href="#DejaVuSans-25"/>
     </g>
    </g>
    <g id="line2d_51">
     <path d="M 390.189017 47.787817 
L 403.017217 47.787817 
" style="fill:none;stroke:#6e6e6e;stroke-width:2.0;"/>
    </g>
    <g id="line2d_52"/>
    <g id="text_25">
     <!-- 60% -->
     <defs>
      <path d="M 33.015625 40.375 
Q 26.375 40.375 22.484375 35.828125 
Q 18.609375 31.296875 18.609375 23.390625 
Q 18.609375 15.53125 22.484375 10.953125 
Q 26.375 6.390625 33.015625 6.390625 
Q 39.65625 6.390625 43.53125 10.953125 
Q 47.40625 15.53125 47.40625 23.390625 
Q 47.40625 31.296875 43.53125 35.828125 
Q 39.65625 40.375 33.015625 40.375 
M 52.59375 71.296875 
L 52.59375 62.3125 
Q 48.875 64.0625 45.09375 64.984375 
Q 41.3125 65.921875 37.59375 65.921875 
Q 27.828125 65.921875 22.671875 59.328125 
Q 17.53125 52.734375 16.796875 39.40625 
Q 19.671875 43.65625 24.015625 45.921875 
Q 28.375 48.1875 33.59375 48.1875 
Q 44.578125 48.1875 50.953125 41.515625 
Q 57.328125 34.859375 57.328125 23.390625 
Q 57.328125 12.15625 50.6875 5.359375 
Q 44.046875 -1.421875 33.015625 -1.421875 
Q 20.359375 -1.421875 13.671875 8.265625 
Q 6.984375 17.96875 6.984375 36.375 
Q 6.984375 53.65625 15.1875 63.9375 
Q 23.390625 74.21875 37.203125 74.21875 
Q 40.921875 74.21875 44.703125 73.484375 
Q 48.484375 72.75 52.59375 71.296875 
" id="DejaVuSans-36"/>
     </defs>
     <g transform="translate(413.096517031 50.9948670313)scale(0.09163 -0.09163)">
      <use xlink:href="#DejaVuSans-36"/>
      <use x="63.623046875" xlink:href="#DejaVuSans-30"/>
      <use x="127.24609375" xlink:href="#DejaVuSans-25"/>
     </g>
    </g>
    <g id="line2d_53">
     <path d="M 390.189017 61.237383 
L 403.017217 61.237383 
" style="fill:none;stroke:#565656;stroke-width:2.0;"/>
    </g>
    <g id="line2d_54"/>
    <g id="text_26">
     <!-- 70% -->
     <defs>
      <path d="M 8.203125 72.90625 
L 55.078125 72.90625 
L 55.078125 68.703125 
L 28.609375 0 
L 18.3125 0 
L 43.21875 64.59375 
L 8.203125 64.59375 
z
" id="DejaVuSans-37"/>
     </defs>
     <g transform="translate(413.096517031 64.4444329687)scale(0.09163 -0.09163)">
      <use xlink:href="#DejaVuSans-37"/>
      <use x="63.623046875" xlink:href="#DejaVuSans-30"/>
      <use x="127.24609375" xlink:href="#DejaVuSans-25"/>
     </g>
    </g>
    <g id="line2d_55">
     <path d="M 390.189017 74.686949 
L 403.017217 74.686949 
" style="fill:none;stroke:#383838;stroke-width:2.0;"/>
    </g>
    <g id="line2d_56"/>
    <g id="text_27">
     <!-- 80% -->
     <defs>
      <path d="M 31.78125 34.625 
Q 24.75 34.625 20.71875 30.859375 
Q 16.703125 27.09375 16.703125 20.515625 
Q 16.703125 13.921875 20.71875 10.15625 
Q 24.75 6.390625 31.78125 6.390625 
Q 38.8125 6.390625 42.859375 10.171875 
Q 46.921875 13.96875 46.921875 20.515625 
Q 46.921875 27.09375 42.890625 30.859375 
Q 38.875 34.625 31.78125 34.625 
M 21.921875 38.8125 
Q 15.578125 40.375 12.03125 44.71875 
Q 8.5 49.078125 8.5 55.328125 
Q 8.5 64.0625 14.71875 69.140625 
Q 20.953125 74.21875 31.78125 74.21875 
Q 42.671875 74.21875 48.875 69.140625 
Q 55.078125 64.0625 55.078125 55.328125 
Q 55.078125 49.078125 51.53125 44.71875 
Q 48 40.375 41.703125 38.8125 
Q 48.828125 37.15625 52.796875 32.3125 
Q 56.78125 27.484375 56.78125 20.515625 
Q 56.78125 9.90625 50.3125 4.234375 
Q 43.84375 -1.421875 31.78125 -1.421875 
Q 19.734375 -1.421875 13.25 4.234375 
Q 6.78125 9.90625 6.78125 20.515625 
Q 6.78125 27.484375 10.78125 32.3125 
Q 14.796875 37.15625 21.921875 38.8125 
M 18.3125 54.390625 
Q 18.3125 48.734375 21.84375 45.5625 
Q 25.390625 42.390625 31.78125 42.390625 
Q 38.140625 42.390625 41.71875 45.5625 
Q 45.3125 48.734375 45.3125 54.390625 
Q 45.3125 60.0625 41.71875 63.234375 
Q 38.140625 66.40625 31.78125 66.40625 
Q 25.390625 66.40625 21.84375 63.234375 
Q 18.3125 60.0625 18.3125 54.390625 
" id="DejaVuSans-38"/>
     </defs>
     <g transform="translate(413.096517031 77.8939989063)scale(0.09163 -0.09163)">
      <use xlink:href="#DejaVuSans-38"/>
      <use x="63.623046875" xlink:href="#DejaVuSans-30"/>
      <use x="127.24609375" xlink:href="#DejaVuSans-25"/>
     </g>
    </g>
    <g id="line2d_57">
     <path d="M 390.189017 88.136515 
L 403.017217 88.136515 
" style="fill:none;stroke:#1a1a1a;stroke-width:2.0;"/>
    </g>
    <g id="line2d_58"/>
    <g id="text_28">
     <!-- 90% -->
     <defs>
      <path d="M 10.984375 1.515625 
L 10.984375 10.5 
Q 14.703125 8.734375 18.5 7.8125 
Q 22.3125 6.890625 25.984375 6.890625 
Q 35.75 6.890625 40.890625 13.453125 
Q 46.046875 20.015625 46.78125 33.40625 
Q 43.953125 29.203125 39.59375 26.953125 
Q 35.25 24.703125 29.984375 24.703125 
Q 19.046875 24.703125 12.671875 31.3125 
Q 6.296875 37.9375 6.296875 49.421875 
Q 6.296875 60.640625 12.9375 67.421875 
Q 19.578125 74.21875 30.609375 74.21875 
Q 43.265625 74.21875 49.921875 64.515625 
Q 56.59375 54.828125 56.59375 36.375 
Q 56.59375 19.140625 48.40625 8.859375 
Q 40.234375 -1.421875 26.421875 -1.421875 
Q 22.703125 -1.421875 18.890625 -0.6875 
Q 15.09375 0.046875 10.984375 1.515625 
M 30.609375 32.421875 
Q 37.25 32.421875 41.125 36.953125 
Q 45.015625 41.5 45.015625 49.421875 
Q 45.015625 57.28125 41.125 61.84375 
Q 37.25 66.40625 30.609375 66.40625 
Q 23.96875 66.40625 20.09375 61.84375 
Q 16.21875 57.28125 16.21875 49.421875 
Q 16.21875 41.5 20.09375 36.953125 
Q 23.96875 32.421875 30.609375 32.421875 
" id="DejaVuSans-39"/>
     </defs>
     <g transform="translate(413.096517031 91.3435648438)scale(0.09163 -0.09163)">
      <use xlink:href="#DejaVuSans-39"/>
      <use x="63.623046875" xlink:href="#DejaVuSans-30"/>
      <use x="127.24609375" xlink:href="#DejaVuSans-25"/>
     </g>
    </g>
    <g id="line2d_59">
     <path d="M 390.189017 101.586081 
L 403.017217 101.586081 
" style="fill:none;stroke:#000000;stroke-width:2.0;"/>
    </g>
    <g id="line2d_60"/>
    <g id="text_29">
     <!-- 100% -->
     <g transform="translate(413.096517031 104.793130781)scale(0.09163 -0.09163)">
      <use xlink:href="#DejaVuSans-31"/>
      <use x="63.623046875" xlink:href="#DejaVuSans-30"/>
      <use x="127.24609375" xlink:href="#DejaVuSans-30"/>
      <use x="190.869140625" xlink:href="#DejaVuSans-25"/>
     </g>
    </g>
   </g>
  </g>
 </g>
 <defs>
  <clipPath id="p2a4854fa44">
   <rect height="268.8" width="403.2" x="44.339375" y="20.55828125"/>
  </clipPath>
 </defs>
</svg>
