<?xml version="1.0" encoding="utf-8" standalone="no"?>
<!DOCTYPE svg PUBLIC "-//W3C//DTD SVG 1.1//EN"
  "http://www.w3.org/Graphics/SVG/1.1/DTD/svg11.dtd">
<!-- Created with matplotlib (http://matplotlib.org/) -->
<svg height="365pt" version="1.1" viewBox="0 0 381 365" width="381pt" xmlns="http://www.w3.org/2000/svg" xmlns:xlink="http://www.w3.org/1999/xlink">
 <defs>
  <style type="text/css">
*{stroke-linecap:butt;stroke-linejoin:round;stroke-miterlimit:100000;}
  </style>
 </defs>
 <g id="figure_1">
  <g id="patch_1">
   <path d="M 0 365.09917 
L 381.098125 365.09917 
L 381.098125 0 
L 0 0 
z
" style="fill:#ffffff;"/>
  </g>
  <g id="axes_1">
   <g id="patch_2">
    <path d="M 51.338125 274.520929 
L 373.898125 274.520929 
L 373.898125 20.558281 
L 51.338125 20.558281 
z
" style="fill:#ffffff;"/>
   </g>
   <g id="line2d_1">
    <path clip-path="url(#p5c7e454ea3)" d="M -54369.229292 38241.936797 
M -1 282.834336 
L 105.945536 208.166527 
L 160.552946 145.639004 
L 192.496234 113.746722 
L 215.160357 93.202973 
L 232.740016 79.222842 
L 247.103644 70.778335 
L 259.247918 68.40305 
L 269.767767 67.952507 
L 279.046932 67.618251 
L 287.347427 65.362507 
L 294.856138 63.953234 
L 301.711055 65.881129 
L 308.016967 68.825396 
L 313.855329 72.12903 
L 319.290714 77.106594 
L 324.375178 81.642953 
L 329.151297 86.61672 
L 333.654342 95.247749 
L 337.913857 108.537652 
L 341.954838 124.002333 
L 345.798616 135.625318 
L 349.463549 145.056353 
L 352.965541 155.497415 
L 356.318465 168.663477 
L 359.534497 185.053857 
" style="fill:none;stroke:#e2e2e2;stroke-width:2.0;"/>
   </g>
   <g id="matplotlib.axis_1">
    <g id="xtick_1">
     <g id="line2d_2">
      <path clip-path="url(#p5c7e454ea3)" d="M 51.338125 274.520929 
L 51.338125 20.558281 
" style="fill:none;stroke:#000000;stroke-dasharray:1.000000,3.000000;stroke-dashoffset:0.0;"/>
     </g>
     <g id="line2d_3">
      <defs>
       <path d="M 0 0 
L 0 -8 
" id="m4cddf5a1af" style="stroke:#000000;stroke-width:0.5;"/>
      </defs>
      <g>
       <use style="stroke:#000000;stroke-width:0.5;" x="51.338125" xlink:href="#m4cddf5a1af" y="274.520929198"/>
      </g>
     </g>
     <g id="text_1">
      <!-- 0.1 -->
      <defs>
       <path d="M 12.40625 8.296875 
L 28.515625 8.296875 
L 28.515625 63.921875 
L 10.984375 60.40625 
L 10.984375 69.390625 
L 28.421875 72.90625 
L 38.28125 72.90625 
L 38.28125 8.296875 
L 54.390625 8.296875 
L 54.390625 0 
L 12.40625 0 
z
" id="DejaVuSans-31"/>
       <path d="M 31.78125 66.40625 
Q 24.171875 66.40625 20.328125 58.90625 
Q 16.5 51.421875 16.5 36.375 
Q 16.5 21.390625 20.328125 13.890625 
Q 24.171875 6.390625 31.78125 6.390625 
Q 39.453125 6.390625 43.28125 13.890625 
Q 47.125 21.390625 47.125 36.375 
Q 47.125 51.421875 43.28125 58.90625 
Q 39.453125 66.40625 31.78125 66.40625 
M 31.78125 74.21875 
Q 44.046875 74.21875 50.515625 64.515625 
Q 56.984375 54.828125 56.984375 36.375 
Q 56.984375 17.96875 50.515625 8.265625 
Q 44.046875 -1.421875 31.78125 -1.421875 
Q 19.53125 -1.421875 13.0625 8.265625 
Q 6.59375 17.96875 6.59375 36.375 
Q 6.59375 54.828125 13.0625 64.515625 
Q 19.53125 74.21875 31.78125 74.21875 
" id="DejaVuSans-30"/>
       <path d="M 10.6875 12.40625 
L 21 12.40625 
L 21 0 
L 10.6875 0 
z
" id="DejaVuSans-2e"/>
      </defs>
      <g transform="translate(42.59140625 286.879210448)scale(0.11 -0.11)">
       <use xlink:href="#DejaVuSans-30"/>
       <use x="63.623046875" xlink:href="#DejaVuSans-2e"/>
       <use x="95.41015625" xlink:href="#DejaVuSans-31"/>
      </g>
     </g>
    </g>
    <g id="xtick_2">
     <g id="line2d_4">
      <path clip-path="url(#p5c7e454ea3)" d="M 232.740016 274.520929 
L 232.740016 20.558281 
" style="fill:none;stroke:#000000;stroke-dasharray:1.000000,3.000000;stroke-dashoffset:0.0;"/>
     </g>
     <g id="line2d_5">
      <g>
       <use style="stroke:#000000;stroke-width:0.5;" x="232.740016392" xlink:href="#m4cddf5a1af" y="274.520929198"/>
      </g>
     </g>
     <g id="text_2">
      <!-- 1 -->
      <g transform="translate(229.240641392 286.879210448)scale(0.11 -0.11)">
       <use xlink:href="#DejaVuSans-31"/>
      </g>
     </g>
    </g>
    <g id="xtick_3">
     <g id="line2d_6">
      <path clip-path="url(#p5c7e454ea3)" d="M 359.534497 274.520929 
L 359.534497 20.558281 
" style="fill:none;stroke:#000000;stroke-dasharray:1.000000,3.000000;stroke-dashoffset:0.0;"/>
     </g>
     <g id="line2d_7">
      <g>
       <use style="stroke:#000000;stroke-width:0.5;" x="359.534497204" xlink:href="#m4cddf5a1af" y="274.520929198"/>
      </g>
     </g>
     <g id="text_3">
      <!-- 5 -->
      <defs>
       <path d="M 10.796875 72.90625 
L 49.515625 72.90625 
L 49.515625 64.59375 
L 19.828125 64.59375 
L 19.828125 46.734375 
Q 21.96875 47.46875 24.109375 47.828125 
Q 26.265625 48.1875 28.421875 48.1875 
Q 40.625 48.1875 47.75 41.5 
Q 54.890625 34.8125 54.890625 23.390625 
Q 54.890625 11.625 47.5625 5.09375 
Q 40.234375 -1.421875 26.90625 -1.421875 
Q 22.3125 -1.421875 17.546875 -0.640625 
Q 12.796875 0.140625 7.71875 1.703125 
L 7.71875 11.625 
Q 12.109375 9.234375 16.796875 8.0625 
Q 21.484375 6.890625 26.703125 6.890625 
Q 35.15625 6.890625 40.078125 11.328125 
Q 45.015625 15.765625 45.015625 23.390625 
Q 45.015625 31 40.078125 35.4375 
Q 35.15625 39.890625 26.703125 39.890625 
Q 22.75 39.890625 18.8125 39.015625 
Q 14.890625 38.140625 10.796875 36.28125 
z
" id="DejaVuSans-35"/>
      </defs>
      <g transform="translate(356.035122204 286.879210448)scale(0.11 -0.11)">
       <use xlink:href="#DejaVuSans-35"/>
      </g>
     </g>
    </g>
    <g id="xtick_4">
     <g id="line2d_8">
      <defs>
       <path d="M 0 0 
L 0 -4 
" id="md7ff7a6161" style="stroke:#000000;stroke-width:0.5;"/>
      </defs>
      <g>
       <use style="stroke:#000000;stroke-width:0.5;" x="105.945535579" xlink:href="#md7ff7a6161" y="274.520929198"/>
      </g>
     </g>
    </g>
    <g id="xtick_5">
     <g id="line2d_9">
      <g>
       <use style="stroke:#000000;stroke-width:0.5;" x="137.888823029" xlink:href="#md7ff7a6161" y="274.520929198"/>
      </g>
     </g>
    </g>
    <g id="xtick_6">
     <g id="line2d_10">
      <g>
       <use style="stroke:#000000;stroke-width:0.5;" x="160.552946158" xlink:href="#md7ff7a6161" y="274.520929198"/>
      </g>
     </g>
    </g>
    <g id="xtick_7">
     <g id="line2d_11">
      <g>
       <use style="stroke:#000000;stroke-width:0.5;" x="178.132605813" xlink:href="#md7ff7a6161" y="274.520929198"/>
      </g>
     </g>
    </g>
    <g id="xtick_8">
     <g id="line2d_12">
      <g>
       <use style="stroke:#000000;stroke-width:0.5;" x="192.496233608" xlink:href="#md7ff7a6161" y="274.520929198"/>
      </g>
     </g>
    </g>
    <g id="xtick_9">
     <g id="line2d_13">
      <g>
       <use style="stroke:#000000;stroke-width:0.5;" x="204.64050787" xlink:href="#md7ff7a6161" y="274.520929198"/>
      </g>
     </g>
    </g>
    <g id="xtick_10">
     <g id="line2d_14">
      <g>
       <use style="stroke:#000000;stroke-width:0.5;" x="215.160356737" xlink:href="#md7ff7a6161" y="274.520929198"/>
      </g>
     </g>
    </g>
    <g id="xtick_11">
     <g id="line2d_15">
      <g>
       <use style="stroke:#000000;stroke-width:0.5;" x="224.439521059" xlink:href="#md7ff7a6161" y="274.520929198"/>
      </g>
     </g>
    </g>
    <g id="xtick_12">
     <g id="line2d_16">
      <g>
       <use style="stroke:#000000;stroke-width:0.5;" x="287.347426971" xlink:href="#md7ff7a6161" y="274.520929198"/>
      </g>
     </g>
    </g>
    <g id="xtick_13">
     <g id="line2d_17">
      <g>
       <use style="stroke:#000000;stroke-width:0.5;" x="319.290714421" xlink:href="#md7ff7a6161" y="274.520929198"/>
      </g>
     </g>
    </g>
    <g id="xtick_14">
     <g id="line2d_18">
      <g>
       <use style="stroke:#000000;stroke-width:0.5;" x="341.95483755" xlink:href="#md7ff7a6161" y="274.520929198"/>
      </g>
     </g>
    </g>
    <g id="xtick_15">
     <g id="line2d_19">
      <g>
       <use style="stroke:#000000;stroke-width:0.5;" x="359.534497204" xlink:href="#md7ff7a6161" y="274.520929198"/>
      </g>
     </g>
    </g>
    <g id="xtick_16">
     <g id="line2d_20">
      <g>
       <use style="stroke:#000000;stroke-width:0.5;" x="373.898125" xlink:href="#md7ff7a6161" y="274.520929198"/>
      </g>
     </g>
    </g>
    <g id="text_4">
     <!-- Frequency (cycles per unit distance) -->
     <defs>
      <path d="M 18.109375 8.203125 
L 18.109375 -20.796875 
L 9.078125 -20.796875 
L 9.078125 54.6875 
L 18.109375 54.6875 
L 18.109375 46.390625 
Q 20.953125 51.265625 25.265625 53.625 
Q 29.59375 56 35.59375 56 
Q 45.5625 56 51.78125 48.09375 
Q 58.015625 40.1875 58.015625 27.296875 
Q 58.015625 14.40625 51.78125 6.484375 
Q 45.5625 -1.421875 35.59375 -1.421875 
Q 29.59375 -1.421875 25.265625 0.953125 
Q 20.953125 3.328125 18.109375 8.203125 
M 48.6875 27.296875 
Q 48.6875 37.203125 44.609375 42.84375 
Q 40.53125 48.484375 33.40625 48.484375 
Q 26.265625 48.484375 22.1875 42.84375 
Q 18.109375 37.203125 18.109375 27.296875 
Q 18.109375 17.390625 22.1875 11.75 
Q 26.265625 6.109375 33.40625 6.109375 
Q 40.53125 6.109375 44.609375 11.75 
Q 48.6875 17.390625 48.6875 27.296875 
" id="DejaVuSans-70"/>
      <path d="M 8.015625 75.875 
L 15.828125 75.875 
Q 23.140625 64.359375 26.78125 53.3125 
Q 30.421875 42.28125 30.421875 31.390625 
Q 30.421875 20.453125 26.78125 9.375 
Q 23.140625 -1.703125 15.828125 -13.1875 
L 8.015625 -13.1875 
Q 14.5 -2 17.703125 9.0625 
Q 20.90625 20.125 20.90625 31.390625 
Q 20.90625 42.671875 17.703125 53.65625 
Q 14.5 64.65625 8.015625 75.875 
" id="DejaVuSans-29"/>
      <path d="M 45.40625 46.390625 
L 45.40625 75.984375 
L 54.390625 75.984375 
L 54.390625 0 
L 45.40625 0 
L 45.40625 8.203125 
Q 42.578125 3.328125 38.25 0.953125 
Q 33.9375 -1.421875 27.875 -1.421875 
Q 17.96875 -1.421875 11.734375 6.484375 
Q 5.515625 14.40625 5.515625 27.296875 
Q 5.515625 40.1875 11.734375 48.09375 
Q 17.96875 56 27.875 56 
Q 33.9375 56 38.25 53.625 
Q 42.578125 51.265625 45.40625 46.390625 
M 14.796875 27.296875 
Q 14.796875 17.390625 18.875 11.75 
Q 22.953125 6.109375 30.078125 6.109375 
Q 37.203125 6.109375 41.296875 11.75 
Q 45.40625 17.390625 45.40625 27.296875 
Q 45.40625 37.203125 41.296875 42.84375 
Q 37.203125 48.484375 30.078125 48.484375 
Q 22.953125 48.484375 18.875 42.84375 
Q 14.796875 37.203125 14.796875 27.296875 
" id="DejaVuSans-64"/>
      <path d="M 54.890625 33.015625 
L 54.890625 0 
L 45.90625 0 
L 45.90625 32.71875 
Q 45.90625 40.484375 42.875 44.328125 
Q 39.84375 48.1875 33.796875 48.1875 
Q 26.515625 48.1875 22.3125 43.546875 
Q 18.109375 38.921875 18.109375 30.90625 
L 18.109375 0 
L 9.078125 0 
L 9.078125 54.6875 
L 18.109375 54.6875 
L 18.109375 46.1875 
Q 21.34375 51.125 25.703125 53.5625 
Q 30.078125 56 35.796875 56 
Q 45.21875 56 50.046875 50.171875 
Q 54.890625 44.34375 54.890625 33.015625 
" id="DejaVuSans-6e"/>
      <path id="DejaVuSans-20"/>
      <path d="M 9.421875 75.984375 
L 18.40625 75.984375 
L 18.40625 0 
L 9.421875 0 
z
" id="DejaVuSans-6c"/>
      <path d="M 9.8125 72.90625 
L 51.703125 72.90625 
L 51.703125 64.59375 
L 19.671875 64.59375 
L 19.671875 43.109375 
L 48.578125 43.109375 
L 48.578125 34.8125 
L 19.671875 34.8125 
L 19.671875 0 
L 9.8125 0 
z
" id="DejaVuSans-46"/>
      <path d="M 32.171875 -5.078125 
Q 28.375 -14.84375 24.75 -17.8125 
Q 21.140625 -20.796875 15.09375 -20.796875 
L 7.90625 -20.796875 
L 7.90625 -13.28125 
L 13.1875 -13.28125 
Q 16.890625 -13.28125 18.9375 -11.515625 
Q 21 -9.765625 23.484375 -3.21875 
L 25.09375 0.875 
L 2.984375 54.6875 
L 12.5 54.6875 
L 29.59375 11.921875 
L 46.6875 54.6875 
L 56.203125 54.6875 
z
" id="DejaVuSans-79"/>
      <path d="M 34.28125 27.484375 
Q 23.390625 27.484375 19.1875 25 
Q 14.984375 22.515625 14.984375 16.5 
Q 14.984375 11.71875 18.140625 8.90625 
Q 21.296875 6.109375 26.703125 6.109375 
Q 34.1875 6.109375 38.703125 11.40625 
Q 43.21875 16.703125 43.21875 25.484375 
L 43.21875 27.484375 
z
M 52.203125 31.203125 
L 52.203125 0 
L 43.21875 0 
L 43.21875 8.296875 
Q 40.140625 3.328125 35.546875 0.953125 
Q 30.953125 -1.421875 24.3125 -1.421875 
Q 15.921875 -1.421875 10.953125 3.296875 
Q 6 8.015625 6 15.921875 
Q 6 25.140625 12.171875 29.828125 
Q 18.359375 34.515625 30.609375 34.515625 
L 43.21875 34.515625 
L 43.21875 35.40625 
Q 43.21875 41.609375 39.140625 45 
Q 35.0625 48.390625 27.6875 48.390625 
Q 23 48.390625 18.546875 47.265625 
Q 14.109375 46.140625 10.015625 43.890625 
L 10.015625 52.203125 
Q 14.9375 54.109375 19.578125 55.046875 
Q 24.21875 56 28.609375 56 
Q 40.484375 56 46.34375 49.84375 
Q 52.203125 43.703125 52.203125 31.203125 
" id="DejaVuSans-61"/>
      <path d="M 9.421875 54.6875 
L 18.40625 54.6875 
L 18.40625 0 
L 9.421875 0 
z
M 9.421875 75.984375 
L 18.40625 75.984375 
L 18.40625 64.59375 
L 9.421875 64.59375 
z
" id="DejaVuSans-69"/>
      <path d="M 8.5 21.578125 
L 8.5 54.6875 
L 17.484375 54.6875 
L 17.484375 21.921875 
Q 17.484375 14.15625 20.5 10.265625 
Q 23.53125 6.390625 29.59375 6.390625 
Q 36.859375 6.390625 41.078125 11.03125 
Q 45.3125 15.671875 45.3125 23.6875 
L 45.3125 54.6875 
L 54.296875 54.6875 
L 54.296875 0 
L 45.3125 0 
L 45.3125 8.40625 
Q 42.046875 3.421875 37.71875 1 
Q 33.40625 -1.421875 27.6875 -1.421875 
Q 18.265625 -1.421875 13.375 4.4375 
Q 8.5 10.296875 8.5 21.578125 
M 31.109375 56 
z
" id="DejaVuSans-75"/>
      <path d="M 18.3125 70.21875 
L 18.3125 54.6875 
L 36.8125 54.6875 
L 36.8125 47.703125 
L 18.3125 47.703125 
L 18.3125 18.015625 
Q 18.3125 11.328125 20.140625 9.421875 
Q 21.96875 7.515625 27.59375 7.515625 
L 36.8125 7.515625 
L 36.8125 0 
L 27.59375 0 
Q 17.1875 0 13.234375 3.875 
Q 9.28125 7.765625 9.28125 18.015625 
L 9.28125 47.703125 
L 2.6875 47.703125 
L 2.6875 54.6875 
L 9.28125 54.6875 
L 9.28125 70.21875 
z
" id="DejaVuSans-74"/>
      <path d="M 31 75.875 
Q 24.46875 64.65625 21.28125 53.65625 
Q 18.109375 42.671875 18.109375 31.390625 
Q 18.109375 20.125 21.3125 9.0625 
Q 24.515625 -2 31 -13.1875 
L 23.1875 -13.1875 
Q 15.875 -1.703125 12.234375 9.375 
Q 8.59375 20.453125 8.59375 31.390625 
Q 8.59375 42.28125 12.203125 53.3125 
Q 15.828125 64.359375 23.1875 75.875 
z
" id="DejaVuSans-28"/>
      <path d="M 56.203125 29.59375 
L 56.203125 25.203125 
L 14.890625 25.203125 
Q 15.484375 15.921875 20.484375 11.0625 
Q 25.484375 6.203125 34.421875 6.203125 
Q 39.59375 6.203125 44.453125 7.46875 
Q 49.3125 8.734375 54.109375 11.28125 
L 54.109375 2.78125 
Q 49.265625 0.734375 44.1875 -0.34375 
Q 39.109375 -1.421875 33.890625 -1.421875 
Q 20.796875 -1.421875 13.15625 6.1875 
Q 5.515625 13.8125 5.515625 26.8125 
Q 5.515625 40.234375 12.765625 48.109375 
Q 20.015625 56 32.328125 56 
Q 43.359375 56 49.78125 48.890625 
Q 56.203125 41.796875 56.203125 29.59375 
M 47.21875 32.234375 
Q 47.125 39.59375 43.09375 43.984375 
Q 39.0625 48.390625 32.421875 48.390625 
Q 24.90625 48.390625 20.390625 44.140625 
Q 15.875 39.890625 15.1875 32.171875 
z
" id="DejaVuSans-65"/>
      <path d="M 14.796875 27.296875 
Q 14.796875 17.390625 18.875 11.75 
Q 22.953125 6.109375 30.078125 6.109375 
Q 37.203125 6.109375 41.296875 11.75 
Q 45.40625 17.390625 45.40625 27.296875 
Q 45.40625 37.203125 41.296875 42.84375 
Q 37.203125 48.484375 30.078125 48.484375 
Q 22.953125 48.484375 18.875 42.84375 
Q 14.796875 37.203125 14.796875 27.296875 
M 45.40625 8.203125 
Q 42.578125 3.328125 38.25 0.953125 
Q 33.9375 -1.421875 27.875 -1.421875 
Q 17.96875 -1.421875 11.734375 6.484375 
Q 5.515625 14.40625 5.515625 27.296875 
Q 5.515625 40.1875 11.734375 48.09375 
Q 17.96875 56 27.875 56 
Q 33.9375 56 38.25 53.625 
Q 42.578125 51.265625 45.40625 46.390625 
L 45.40625 54.6875 
L 54.390625 54.6875 
L 54.390625 -20.796875 
L 45.40625 -20.796875 
z
" id="DejaVuSans-71"/>
      <path d="M 48.78125 52.59375 
L 48.78125 44.1875 
Q 44.96875 46.296875 41.140625 47.34375 
Q 37.3125 48.390625 33.40625 48.390625 
Q 24.65625 48.390625 19.8125 42.84375 
Q 14.984375 37.3125 14.984375 27.296875 
Q 14.984375 17.28125 19.8125 11.734375 
Q 24.65625 6.203125 33.40625 6.203125 
Q 37.3125 6.203125 41.140625 7.25 
Q 44.96875 8.296875 48.78125 10.40625 
L 48.78125 2.09375 
Q 45.015625 0.34375 40.984375 -0.53125 
Q 36.96875 -1.421875 32.421875 -1.421875 
Q 20.0625 -1.421875 12.78125 6.34375 
Q 5.515625 14.109375 5.515625 27.296875 
Q 5.515625 40.671875 12.859375 48.328125 
Q 20.21875 56 33.015625 56 
Q 37.15625 56 41.109375 55.140625 
Q 45.0625 54.296875 48.78125 52.59375 
" id="DejaVuSans-63"/>
      <path d="M 44.28125 53.078125 
L 44.28125 44.578125 
Q 40.484375 46.53125 36.375 47.5 
Q 32.28125 48.484375 27.875 48.484375 
Q 21.1875 48.484375 17.84375 46.4375 
Q 14.5 44.390625 14.5 40.28125 
Q 14.5 37.15625 16.890625 35.375 
Q 19.28125 33.59375 26.515625 31.984375 
L 29.59375 31.296875 
Q 39.15625 29.25 43.1875 25.515625 
Q 47.21875 21.78125 47.21875 15.09375 
Q 47.21875 7.46875 41.1875 3.015625 
Q 35.15625 -1.421875 24.609375 -1.421875 
Q 20.21875 -1.421875 15.453125 -0.5625 
Q 10.6875 0.296875 5.421875 2 
L 5.421875 11.28125 
Q 10.40625 8.6875 15.234375 7.390625 
Q 20.0625 6.109375 24.8125 6.109375 
Q 31.15625 6.109375 34.5625 8.28125 
Q 37.984375 10.453125 37.984375 14.40625 
Q 37.984375 18.0625 35.515625 20.015625 
Q 33.0625 21.96875 24.703125 23.78125 
L 21.578125 24.515625 
Q 13.234375 26.265625 9.515625 29.90625 
Q 5.8125 33.546875 5.8125 39.890625 
Q 5.8125 47.609375 11.28125 51.796875 
Q 16.75 56 26.8125 56 
Q 31.78125 56 36.171875 55.265625 
Q 40.578125 54.546875 44.28125 53.078125 
" id="DejaVuSans-73"/>
      <path d="M 41.109375 46.296875 
Q 39.59375 47.171875 37.8125 47.578125 
Q 36.03125 48 33.890625 48 
Q 26.265625 48 22.1875 43.046875 
Q 18.109375 38.09375 18.109375 28.8125 
L 18.109375 0 
L 9.078125 0 
L 9.078125 54.6875 
L 18.109375 54.6875 
L 18.109375 46.1875 
Q 20.953125 51.171875 25.484375 53.578125 
Q 30.03125 56 36.53125 56 
Q 37.453125 56 38.578125 55.875 
Q 39.703125 55.765625 41.0625 55.515625 
z
" id="DejaVuSans-72"/>
     </defs>
     <g transform="translate(112.228515625 302.525147948)scale(0.11 -0.11)">
      <use xlink:href="#DejaVuSans-46"/>
      <use x="57.41015625" xlink:href="#DejaVuSans-72"/>
      <use x="98.4921875" xlink:href="#DejaVuSans-65"/>
      <use x="160.015625" xlink:href="#DejaVuSans-71"/>
      <use x="223.4921875" xlink:href="#DejaVuSans-75"/>
      <use x="286.87109375" xlink:href="#DejaVuSans-65"/>
      <use x="348.39453125" xlink:href="#DejaVuSans-6e"/>
      <use x="411.7734375" xlink:href="#DejaVuSans-63"/>
      <use x="466.75390625" xlink:href="#DejaVuSans-79"/>
      <use x="525.93359375" xlink:href="#DejaVuSans-20"/>
      <use x="557.720703125" xlink:href="#DejaVuSans-28"/>
      <use x="596.734375" xlink:href="#DejaVuSans-63"/>
      <use x="651.71484375" xlink:href="#DejaVuSans-79"/>
      <use x="710.89453125" xlink:href="#DejaVuSans-63"/>
      <use x="765.875" xlink:href="#DejaVuSans-6c"/>
      <use x="793.658203125" xlink:href="#DejaVuSans-65"/>
      <use x="855.181640625" xlink:href="#DejaVuSans-73"/>
      <use x="907.28125" xlink:href="#DejaVuSans-20"/>
      <use x="939.068359375" xlink:href="#DejaVuSans-70"/>
      <use x="1002.54492188" xlink:href="#DejaVuSans-65"/>
      <use x="1064.06835938" xlink:href="#DejaVuSans-72"/>
      <use x="1105.18164062" xlink:href="#DejaVuSans-20"/>
      <use x="1136.96875" xlink:href="#DejaVuSans-75"/>
      <use x="1200.34765625" xlink:href="#DejaVuSans-6e"/>
      <use x="1263.7265625" xlink:href="#DejaVuSans-69"/>
      <use x="1291.50976562" xlink:href="#DejaVuSans-74"/>
      <use x="1330.71875" xlink:href="#DejaVuSans-20"/>
      <use x="1362.50585938" xlink:href="#DejaVuSans-64"/>
      <use x="1425.98242188" xlink:href="#DejaVuSans-69"/>
      <use x="1453.765625" xlink:href="#DejaVuSans-73"/>
      <use x="1505.86523438" xlink:href="#DejaVuSans-74"/>
      <use x="1545.07421875" xlink:href="#DejaVuSans-61"/>
      <use x="1606.35351562" xlink:href="#DejaVuSans-6e"/>
      <use x="1669.73242188" xlink:href="#DejaVuSans-63"/>
      <use x="1724.71289062" xlink:href="#DejaVuSans-65"/>
      <use x="1786.23632812" xlink:href="#DejaVuSans-29"/>
     </g>
    </g>
   </g>
   <g id="matplotlib.axis_2">
    <g id="ytick_1">
     <g id="line2d_21">
      <path clip-path="url(#p5c7e454ea3)" d="M 51.338125 274.520929 
L 373.898125 274.520929 
" style="fill:none;stroke:#000000;stroke-dasharray:1.000000,3.000000;stroke-dashoffset:0.0;"/>
     </g>
     <g id="line2d_22">
      <defs>
       <path d="M 0 0 
L 8 0 
" id="m155ac6bead" style="stroke:#000000;stroke-width:0.5;"/>
      </defs>
      <g>
       <use style="stroke:#000000;stroke-width:0.5;" x="51.338125" xlink:href="#m155ac6bead" y="274.520929198"/>
      </g>
     </g>
     <g id="text_5">
      <!-- 0.01 -->
      <g transform="translate(22.8459375 277.556241698)scale(0.11 -0.11)">
       <use xlink:href="#DejaVuSans-30"/>
       <use x="63.623046875" xlink:href="#DejaVuSans-2e"/>
       <use x="95.41015625" xlink:href="#DejaVuSans-30"/>
       <use x="159.033203125" xlink:href="#DejaVuSans-31"/>
      </g>
     </g>
    </g>
    <g id="ytick_2">
     <g id="line2d_23">
      <path clip-path="url(#p5c7e454ea3)" d="M 51.338125 147.539605 
L 373.898125 147.539605 
" style="fill:none;stroke:#000000;stroke-dasharray:1.000000,3.000000;stroke-dashoffset:0.0;"/>
     </g>
     <g id="line2d_24">
      <g>
       <use style="stroke:#000000;stroke-width:0.5;" x="51.338125" xlink:href="#m155ac6bead" y="147.539605224"/>
      </g>
     </g>
     <g id="text_6">
      <!-- 0.1 -->
      <g transform="translate(29.8446875 150.574917724)scale(0.11 -0.11)">
       <use xlink:href="#DejaVuSans-30"/>
       <use x="63.623046875" xlink:href="#DejaVuSans-2e"/>
       <use x="95.41015625" xlink:href="#DejaVuSans-31"/>
      </g>
     </g>
    </g>
    <g id="ytick_3">
     <g id="line2d_25">
      <path clip-path="url(#p5c7e454ea3)" d="M 51.338125 147.539605 
L 373.898125 147.539605 
" style="fill:none;stroke:#000000;stroke-dasharray:1.000000,3.000000;stroke-dashoffset:0.0;"/>
     </g>
     <g id="line2d_26">
      <g>
       <use style="stroke:#000000;stroke-width:0.5;" x="51.338125" xlink:href="#m155ac6bead" y="147.539605224"/>
      </g>
     </g>
     <g id="text_7">
      <!-- 0.1 -->
      <g transform="translate(29.8446875 150.574917724)scale(0.11 -0.11)">
       <use xlink:href="#DejaVuSans-30"/>
       <use x="63.623046875" xlink:href="#DejaVuSans-2e"/>
       <use x="95.41015625" xlink:href="#DejaVuSans-31"/>
      </g>
     </g>
    </g>
    <g id="ytick_4">
     <g id="line2d_27">
      <path clip-path="url(#p5c7e454ea3)" d="M 51.338125 20.558281 
L 373.898125 20.558281 
" style="fill:none;stroke:#000000;stroke-dasharray:1.000000,3.000000;stroke-dashoffset:0.0;"/>
     </g>
     <g id="line2d_28">
      <g>
       <use style="stroke:#000000;stroke-width:0.5;" x="51.338125" xlink:href="#m155ac6bead" y="20.55828125"/>
      </g>
     </g>
     <g id="text_8">
      <!-- 1 -->
      <g transform="translate(40.339375 23.59359375)scale(0.11 -0.11)">
       <use xlink:href="#DejaVuSans-31"/>
      </g>
     </g>
    </g>
    <g id="ytick_5">
     <g id="line2d_29">
      <defs>
       <path d="M 0 0 
L 4 0 
" id="m587c8923ae" style="stroke:#000000;stroke-width:0.5;"/>
      </defs>
      <g>
       <use style="stroke:#000000;stroke-width:0.5;" x="51.338125" xlink:href="#m587c8923ae" y="236.295741793"/>
      </g>
     </g>
    </g>
    <g id="ytick_6">
     <g id="line2d_30">
      <g>
       <use style="stroke:#000000;stroke-width:0.5;" x="51.338125" xlink:href="#m587c8923ae" y="213.935440578"/>
      </g>
     </g>
    </g>
    <g id="ytick_7">
     <g id="line2d_31">
      <g>
       <use style="stroke:#000000;stroke-width:0.5;" x="51.338125" xlink:href="#m587c8923ae" y="198.070554388"/>
      </g>
     </g>
    </g>
    <g id="ytick_8">
     <g id="line2d_32">
      <g>
       <use style="stroke:#000000;stroke-width:0.5;" x="51.338125" xlink:href="#m587c8923ae" y="185.764792629"/>
      </g>
     </g>
    </g>
    <g id="ytick_9">
     <g id="line2d_33">
      <g>
       <use style="stroke:#000000;stroke-width:0.5;" x="51.338125" xlink:href="#m587c8923ae" y="175.710253172"/>
      </g>
     </g>
    </g>
    <g id="ytick_10">
     <g id="line2d_34">
      <g>
       <use style="stroke:#000000;stroke-width:0.5;" x="51.338125" xlink:href="#m587c8923ae" y="167.209261189"/>
      </g>
     </g>
    </g>
    <g id="ytick_11">
     <g id="line2d_35">
      <g>
       <use style="stroke:#000000;stroke-width:0.5;" x="51.338125" xlink:href="#m587c8923ae" y="159.845366982"/>
      </g>
     </g>
    </g>
    <g id="ytick_12">
     <g id="line2d_36">
      <g>
       <use style="stroke:#000000;stroke-width:0.5;" x="51.338125" xlink:href="#m587c8923ae" y="153.349951957"/>
      </g>
     </g>
    </g>
    <g id="ytick_13">
     <g id="line2d_37">
      <g>
       <use style="stroke:#000000;stroke-width:0.5;" x="51.338125" xlink:href="#m587c8923ae" y="109.314417819"/>
      </g>
     </g>
    </g>
    <g id="ytick_14">
     <g id="line2d_38">
      <g>
       <use style="stroke:#000000;stroke-width:0.5;" x="51.338125" xlink:href="#m587c8923ae" y="86.9541166036"/>
      </g>
     </g>
    </g>
    <g id="ytick_15">
     <g id="line2d_39">
      <g>
       <use style="stroke:#000000;stroke-width:0.5;" x="51.338125" xlink:href="#m587c8923ae" y="71.0892304135"/>
      </g>
     </g>
    </g>
    <g id="ytick_16">
     <g id="line2d_40">
      <g>
       <use style="stroke:#000000;stroke-width:0.5;" x="51.338125" xlink:href="#m587c8923ae" y="58.7834686553"/>
      </g>
     </g>
    </g>
    <g id="ytick_17">
     <g id="line2d_41">
      <g>
       <use style="stroke:#000000;stroke-width:0.5;" x="51.338125" xlink:href="#m587c8923ae" y="48.7289291983"/>
      </g>
     </g>
    </g>
    <g id="ytick_18">
     <g id="line2d_42">
      <g>
       <use style="stroke:#000000;stroke-width:0.5;" x="51.338125" xlink:href="#m587c8923ae" y="40.2279372152"/>
      </g>
     </g>
    </g>
    <g id="ytick_19">
     <g id="line2d_43">
      <g>
       <use style="stroke:#000000;stroke-width:0.5;" x="51.338125" xlink:href="#m587c8923ae" y="32.8640430081"/>
      </g>
     </g>
    </g>
    <g id="ytick_20">
     <g id="line2d_44">
      <g>
       <use style="stroke:#000000;stroke-width:0.5;" x="51.338125" xlink:href="#m587c8923ae" y="26.3686279831"/>
      </g>
     </g>
    </g>
    <g id="text_9">
     <!-- Response -->
     <defs>
      <path d="M 30.609375 48.390625 
Q 23.390625 48.390625 19.1875 42.75 
Q 14.984375 37.109375 14.984375 27.296875 
Q 14.984375 17.484375 19.15625 11.84375 
Q 23.34375 6.203125 30.609375 6.203125 
Q 37.796875 6.203125 41.984375 11.859375 
Q 46.1875 17.53125 46.1875 27.296875 
Q 46.1875 37.015625 41.984375 42.703125 
Q 37.796875 48.390625 30.609375 48.390625 
M 30.609375 56 
Q 42.328125 56 49.015625 48.375 
Q 55.71875 40.765625 55.71875 27.296875 
Q 55.71875 13.875 49.015625 6.21875 
Q 42.328125 -1.421875 30.609375 -1.421875 
Q 18.84375 -1.421875 12.171875 6.21875 
Q 5.515625 13.875 5.515625 27.296875 
Q 5.515625 40.765625 12.171875 48.375 
Q 18.84375 56 30.609375 56 
" id="DejaVuSans-6f"/>
      <path d="M 44.390625 34.1875 
Q 47.5625 33.109375 50.5625 29.59375 
Q 53.5625 26.078125 56.59375 19.921875 
L 66.609375 0 
L 56 0 
L 46.6875 18.703125 
Q 43.0625 26.03125 39.671875 28.421875 
Q 36.28125 30.8125 30.421875 30.8125 
L 19.671875 30.8125 
L 19.671875 0 
L 9.8125 0 
L 9.8125 72.90625 
L 32.078125 72.90625 
Q 44.578125 72.90625 50.734375 67.671875 
Q 56.890625 62.453125 56.890625 51.90625 
Q 56.890625 45.015625 53.6875 40.46875 
Q 50.484375 35.9375 44.390625 34.1875 
M 19.671875 64.796875 
L 19.671875 38.921875 
L 32.078125 38.921875 
Q 39.203125 38.921875 42.84375 42.21875 
Q 46.484375 45.515625 46.484375 51.90625 
Q 46.484375 58.296875 42.84375 61.546875 
Q 39.203125 64.796875 32.078125 64.796875 
z
" id="DejaVuSans-52"/>
     </defs>
     <g transform="translate(15.55828125 174.199136474)rotate(-90.0)scale(0.11 -0.11)">
      <use xlink:href="#DejaVuSans-52"/>
      <use x="69.419921875" xlink:href="#DejaVuSans-65"/>
      <use x="130.943359375" xlink:href="#DejaVuSans-73"/>
      <use x="183.04296875" xlink:href="#DejaVuSans-70"/>
      <use x="246.51953125" xlink:href="#DejaVuSans-6f"/>
      <use x="307.701171875" xlink:href="#DejaVuSans-6e"/>
      <use x="371.080078125" xlink:href="#DejaVuSans-73"/>
      <use x="423.1796875" xlink:href="#DejaVuSans-65"/>
     </g>
    </g>
   </g>
   <g id="line2d_45">
    <path clip-path="url(#p5c7e454ea3)" d="M -54369.229292 38241.936797 
M -1 260.770788 
L 105.945536 186.059579 
L 160.552946 128.6923 
L 192.496234 99.995693 
L 215.160357 81.332846 
L 232.740016 68.592408 
L 247.103644 61.216528 
L 259.247918 60.082479 
L 269.767767 60.471695 
L 279.046932 60.496821 
L 287.347427 57.946244 
L 294.856138 55.977044 
L 301.711055 57.465025 
L 308.016967 59.728621 
L 313.855329 61.940451 
L 319.290714 65.606441 
L 324.375178 68.026597 
L 329.151297 70.059692 
L 333.654342 76.09848 
L 337.913857 88.277557 
L 341.954838 103.675098 
L 345.798616 113.826242 
L 349.463549 120.961442 
L 352.965541 129.578925 
L 356.318465 141.805292 
L 359.534497 157.349221 
" style="fill:none;stroke:#d1d1d1;stroke-width:2.0;"/>
   </g>
   <g id="line2d_46">
    <path clip-path="url(#p5c7e454ea3)" d="M -54369.229292 38241.936797 
M -1 250.887146 
L 105.945536 176.156495 
L 160.552946 121.647912 
L 192.496234 94.527579 
L 215.160357 76.731288 
L 232.740016 64.538974 
L 247.103644 57.621589 
L 259.247918 57.004468 
L 269.767767 57.734213 
L 279.046932 57.902863 
L 287.347427 55.234638 
L 294.856138 53.039564 
L 301.711055 54.34781 
L 308.016967 56.329284 
L 313.855329 58.078136 
L 319.290714 61.170331 
L 324.375178 62.621976 
L 329.151297 63.214921 
L 333.654342 67.884483 
L 337.913857 79.445792 
L 341.954838 94.805369 
L 345.798616 104.105717 
L 349.463549 109.83933 
L 352.965541 117.273787 
L 356.318465 128.864694 
L 359.534497 143.820384 
" style="fill:none;stroke:#bdbdbd;stroke-width:2.0;"/>
   </g>
   <g id="patch_3">
    <path d="M 51.338125 20.558281 
L 373.898125 20.558281 
" style="fill:none;stroke:#000000;stroke-linecap:square;stroke-linejoin:miter;"/>
   </g>
   <g id="patch_4">
    <path d="M 373.898125 274.520929 
L 373.898125 20.558281 
" style="fill:none;stroke:#000000;stroke-linecap:square;stroke-linejoin:miter;"/>
   </g>
   <g id="patch_5">
    <path d="M 51.338125 274.520929 
L 373.898125 274.520929 
" style="fill:none;stroke:#000000;stroke-linecap:square;stroke-linejoin:miter;"/>
   </g>
   <g id="patch_6">
    <path d="M 51.338125 274.520929 
L 51.338125 20.558281 
" style="fill:none;stroke:#000000;stroke-linecap:square;stroke-linejoin:miter;"/>
   </g>
   <g id="line2d_47">
    <path clip-path="url(#p5c7e454ea3)" d="M -54369.229292 38241.936797 
M -1 245.188748 
L 105.945536 170.446889 
L 160.552946 117.756762 
L 192.496234 91.575772 
L 215.160357 74.278026 
L 232.740016 62.394764 
L 247.103644 55.73224 
L 259.247918 55.398545 
L 269.767767 56.312768 
L 279.046932 56.558647 
L 287.347427 53.827139 
L 294.856138 51.509986 
L 301.711055 52.720536 
L 308.016967 54.547666 
L 313.855329 56.040564 
L 319.290714 58.810861 
L 324.375178 59.70712 
L 329.151297 59.445115 
L 333.654342 63.267901 
L 337.913857 74.43582 
L 341.954838 89.770986 
L 345.798616 98.516928 
L 349.463549 103.30561 
L 352.965541 109.910338 
L 356.318465 121.042829 
L 359.534497 135.565953 
" style="fill:none;stroke:#a0a0a0;stroke-width:2.0;"/>
   </g>
   <g id="text_10">
    <!-- LGN Frequency Tuning -->
    <defs>
     <path d="M -0.296875 72.90625 
L 61.375 72.90625 
L 61.375 64.59375 
L 35.5 64.59375 
L 35.5 0 
L 25.59375 0 
L 25.59375 64.59375 
L -0.296875 64.59375 
z
" id="DejaVuSans-54"/>
     <path d="M 9.8125 72.90625 
L 23.09375 72.90625 
L 55.421875 11.921875 
L 55.421875 72.90625 
L 64.984375 72.90625 
L 64.984375 0 
L 51.703125 0 
L 19.390625 60.984375 
L 19.390625 0 
L 9.8125 0 
z
" id="DejaVuSans-4e"/>
     <path d="M 45.40625 27.984375 
Q 45.40625 37.75 41.375 43.109375 
Q 37.359375 48.484375 30.078125 48.484375 
Q 22.859375 48.484375 18.828125 43.109375 
Q 14.796875 37.75 14.796875 27.984375 
Q 14.796875 18.265625 18.828125 12.890625 
Q 22.859375 7.515625 30.078125 7.515625 
Q 37.359375 7.515625 41.375 12.890625 
Q 45.40625 18.265625 45.40625 27.984375 
M 54.390625 6.78125 
Q 54.390625 -7.171875 48.1875 -13.984375 
Q 42 -20.796875 29.203125 -20.796875 
Q 24.46875 -20.796875 20.265625 -20.09375 
Q 16.0625 -19.390625 12.109375 -17.921875 
L 12.109375 -9.1875 
Q 16.0625 -11.328125 19.921875 -12.34375 
Q 23.78125 -13.375 27.78125 -13.375 
Q 36.625 -13.375 41.015625 -8.765625 
Q 45.40625 -4.15625 45.40625 5.171875 
L 45.40625 9.625 
Q 42.625 4.78125 38.28125 2.390625 
Q 33.9375 0 27.875 0 
Q 17.828125 0 11.671875 7.65625 
Q 5.515625 15.328125 5.515625 27.984375 
Q 5.515625 40.671875 11.671875 48.328125 
Q 17.828125 56 27.875 56 
Q 33.9375 56 38.28125 53.609375 
Q 42.625 51.21875 45.40625 46.390625 
L 45.40625 54.6875 
L 54.390625 54.6875 
z
" id="DejaVuSans-67"/>
     <path d="M 59.515625 10.40625 
L 59.515625 29.984375 
L 43.40625 29.984375 
L 43.40625 38.09375 
L 69.28125 38.09375 
L 69.28125 6.78125 
Q 63.578125 2.734375 56.6875 0.65625 
Q 49.8125 -1.421875 42 -1.421875 
Q 24.90625 -1.421875 15.25 8.5625 
Q 5.609375 18.5625 5.609375 36.375 
Q 5.609375 54.25 15.25 64.234375 
Q 24.90625 74.21875 42 74.21875 
Q 49.125 74.21875 55.546875 72.453125 
Q 61.96875 70.703125 67.390625 67.28125 
L 67.390625 56.78125 
Q 61.921875 61.421875 55.765625 63.765625 
Q 49.609375 66.109375 42.828125 66.109375 
Q 29.4375 66.109375 22.71875 58.640625 
Q 16.015625 51.171875 16.015625 36.375 
Q 16.015625 21.625 22.71875 14.15625 
Q 29.4375 6.6875 42.828125 6.6875 
Q 48.046875 6.6875 52.140625 7.59375 
Q 56.25 8.5 59.515625 10.40625 
" id="DejaVuSans-47"/>
     <path d="M 9.8125 72.90625 
L 19.671875 72.90625 
L 19.671875 8.296875 
L 55.171875 8.296875 
L 55.171875 0 
L 9.8125 0 
z
" id="DejaVuSans-4c"/>
    </defs>
    <g transform="translate(149.931015625 15.55828125)scale(0.11 -0.11)">
     <use xlink:href="#DejaVuSans-4c"/>
     <use x="55.712890625" xlink:href="#DejaVuSans-47"/>
     <use x="133.203125" xlink:href="#DejaVuSans-4e"/>
     <use x="208.0078125" xlink:href="#DejaVuSans-20"/>
     <use x="239.794921875" xlink:href="#DejaVuSans-46"/>
     <use x="297.205078125" xlink:href="#DejaVuSans-72"/>
     <use x="338.287109375" xlink:href="#DejaVuSans-65"/>
     <use x="399.810546875" xlink:href="#DejaVuSans-71"/>
     <use x="463.287109375" xlink:href="#DejaVuSans-75"/>
     <use x="526.666015625" xlink:href="#DejaVuSans-65"/>
     <use x="588.189453125" xlink:href="#DejaVuSans-6e"/>
     <use x="651.568359375" xlink:href="#DejaVuSans-63"/>
     <use x="706.548828125" xlink:href="#DejaVuSans-79"/>
     <use x="765.728515625" xlink:href="#DejaVuSans-20"/>
     <use x="797.515625" xlink:href="#DejaVuSans-54"/>
     <use x="858.365234375" xlink:href="#DejaVuSans-75"/>
     <use x="921.744140625" xlink:href="#DejaVuSans-6e"/>
     <use x="985.123046875" xlink:href="#DejaVuSans-69"/>
     <use x="1012.90625" xlink:href="#DejaVuSans-6e"/>
     <use x="1076.28515625" xlink:href="#DejaVuSans-67"/>
    </g>
   </g>
   <g id="line2d_48">
    <path clip-path="url(#p5c7e454ea3)" d="M -54369.229292 38241.936797 
M -1 241.463152 
L 105.945536 166.713964 
L 160.552946 115.283073 
L 192.496234 89.725745 
L 215.160357 72.751914 
L 232.740016 61.067044 
L 247.103644 54.56676 
L 259.247918 54.412053 
L 269.767767 55.441976 
L 279.046932 55.736104 
L 287.347427 52.965068 
L 294.856138 50.571452 
L 301.711055 51.720613 
L 308.016967 53.450396 
L 313.855329 54.780876 
L 319.290714 57.345151 
L 324.375178 57.881266 
L 329.151297 57.052991 
L 333.654342 60.300271 
L 337.913857 71.195718 
L 341.954838 86.513866 
L 345.798616 94.86987 
L 349.463549 98.978274 
L 352.965541 104.968805 
L 356.318465 115.75497 
L 359.534497 129.946616 
" style="fill:none;stroke:#868686;stroke-width:2.0;"/>
   </g>
   <g id="line2d_49">
    <path clip-path="url(#p5c7e454ea3)" d="M -54369.229292 38241.936797 
M -1 238.831505 
L 105.945536 164.07714 
L 160.552946 113.57007 
L 192.496234 88.456989 
L 215.160357 71.710527 
L 232.740016 60.163799 
L 247.103644 53.77586 
L 259.247918 53.74445 
L 269.767767 54.853714 
L 279.046932 55.180846 
L 287.347427 52.382775 
L 294.856138 49.93677 
L 301.711055 51.043781 
L 308.016967 52.706563 
L 313.855329 53.92481 
L 319.290714 56.345912 
L 324.375178 56.629556 
L 329.151297 55.398578 
L 333.654342 58.229245 
L 337.913857 68.924811 
L 341.954838 84.230419 
L 345.798616 92.297214 
L 349.463549 95.892428 
L 352.965541 101.40994 
L 356.318465 111.925232 
L 359.534497 125.854757 
" style="fill:none;stroke:#6e6e6e;stroke-width:2.0;"/>
   </g>
   <g id="line2d_50">
    <path clip-path="url(#p5c7e454ea3)" d="M -54369.229292 38241.936797 
M -1 236.871609 
L 105.945536 162.113389 
L 160.552946 112.313077 
L 192.496234 87.532523 
L 215.160357 70.954452 
L 232.740016 59.509445 
L 247.103644 53.203905 
L 259.247918 53.262594 
L 269.767767 54.429651 
L 279.046932 54.780782 
L 287.347427 51.963054 
L 294.856138 49.478911 
L 301.711055 50.555192 
L 308.016967 52.169044 
L 313.855329 53.305094 
L 319.290714 55.620919 
L 324.375178 55.717758 
L 329.151297 54.18571 
L 333.654342 56.700827 
L 337.913857 67.243503 
L 341.954838 82.539486 
L 345.798616 90.383231 
L 349.463549 93.577503 
L 352.965541 98.719503 
L 356.318465 109.017136 
L 359.534497 122.734187 
" style="fill:none;stroke:#565656;stroke-width:2.0;"/>
   </g>
   <g id="line2d_51">
    <path clip-path="url(#p5c7e454ea3)" d="M -54369.229292 38241.936797 
M -1 235.354483 
L 105.945536 160.593279 
L 160.552946 111.351166 
L 192.496234 86.82886 
L 215.160357 70.380514 
L 232.740016 59.013533 
L 247.103644 52.771012 
L 259.247918 52.898418 
L 269.767767 54.10945 
L 279.046932 54.478818 
L 287.347427 51.646154 
L 294.856138 49.133005 
L 301.711055 50.185889 
L 308.016967 51.762437 
L 313.855329 52.835693 
L 319.290714 55.07085 
L 324.375178 55.023877 
L 329.151297 53.258226 
L 333.654342 55.526056 
L 337.913857 65.948004 
L 341.954838 81.236367 
L 345.798616 88.902851 
L 349.463549 91.775222 
L 352.965541 96.611877 
L 356.318465 106.730786 
L 359.534497 120.272124 
" style="fill:none;stroke:#383838;stroke-width:2.0;"/>
   </g>
   <g id="line2d_52">
    <path clip-path="url(#p5c7e454ea3)" d="M -54369.229292 38241.936797 
M -1 234.144889 
L 105.945536 159.381305 
L 160.552946 110.591237 
L 192.496234 86.27529 
L 215.160357 69.929952 
L 232.740016 58.624717 
L 247.103644 52.431952 
L 259.247918 52.613498 
L 269.767767 53.859113 
L 279.046932 54.242808 
L 287.347427 51.398411 
L 294.856138 48.862459 
L 301.711055 49.896934 
L 308.016967 51.444102 
L 313.855329 52.467822 
L 319.290714 54.639193 
L 324.375178 54.478091 
L 329.151297 52.525908 
L 333.654342 54.594723 
L 337.913857 64.918924 
L 341.954838 80.201104 
L 345.798616 87.723325 
L 349.463549 90.331557 
L 352.965541 94.915045 
L 356.318465 104.884574 
L 359.534497 118.27818 
" style="fill:none;stroke:#1a1a1a;stroke-width:2.0;"/>
   </g>
   <g id="line2d_53">
    <path clip-path="url(#p5c7e454ea3)" d="M -54369.229292 38241.936797 
M -1 233.157701 
L 105.945536 158.392175 
L 160.552946 109.975664 
L 192.496234 85.828399 
L 215.160357 69.566832 
L 232.740016 58.311678 
L 247.103644 52.159195 
L 259.247918 52.384498 
L 269.767767 53.658022 
L 279.046932 54.053271 
L 287.347427 51.199413 
L 294.856138 48.645062 
L 301.711055 49.664675 
L 308.016967 51.188104 
L 313.855329 52.171747 
L 319.290714 54.291418 
L 324.375178 54.037539 
L 329.151297 51.932971 
L 333.654342 53.838164 
L 337.913857 64.081605 
L 341.954838 79.358668 
L 345.798616 86.761196 
L 349.463549 89.148782 
L 352.965541 93.518957 
L 356.318465 103.361771 
L 359.534497 116.629434 
" style="fill:none;stroke:#000000;stroke-width:2.0;"/>
   </g>
   <g id="legend_1">
    <g id="patch_7">
     <path d="M 54.087025 357.89917 
L 371.149225 357.89917 
Q 372.981825 357.89917 372.981825 356.06657 
L 372.981825 314.856301 
Q 372.981825 313.023701 371.149225 313.023701 
L 54.087025 313.023701 
Q 52.254425 313.023701 52.254425 314.856301 
L 52.254425 356.06657 
Q 52.254425 357.89917 54.087025 357.89917 
z
" style="fill:#ffffff;stroke:#000000;stroke-linejoin:miter;"/>
    </g>
    <g id="text_11">
     <!-- Contrast -->
     <defs>
      <path d="M 64.40625 67.28125 
L 64.40625 56.890625 
Q 59.421875 61.53125 53.78125 63.8125 
Q 48.140625 66.109375 41.796875 66.109375 
Q 29.296875 66.109375 22.65625 58.46875 
Q 16.015625 50.828125 16.015625 36.375 
Q 16.015625 21.96875 22.65625 14.328125 
Q 29.296875 6.6875 41.796875 6.6875 
Q 48.140625 6.6875 53.78125 8.984375 
Q 59.421875 11.28125 64.40625 15.921875 
L 64.40625 5.609375 
Q 59.234375 2.09375 53.4375 0.328125 
Q 47.65625 -1.421875 41.21875 -1.421875 
Q 24.65625 -1.421875 15.125 8.703125 
Q 5.609375 18.84375 5.609375 36.375 
Q 5.609375 53.953125 15.125 64.078125 
Q 24.65625 74.21875 41.21875 74.21875 
Q 47.75 74.21875 53.53125 72.484375 
Q 59.328125 70.75 64.40625 67.28125 
" id="DejaVuSans-43"/>
     </defs>
     <g transform="translate(189.11765625 325.047182345)scale(0.11 -0.11)">
      <use xlink:href="#DejaVuSans-43"/>
      <use x="69.82421875" xlink:href="#DejaVuSans-6f"/>
      <use x="131.005859375" xlink:href="#DejaVuSans-6e"/>
      <use x="194.384765625" xlink:href="#DejaVuSans-74"/>
      <use x="233.59375" xlink:href="#DejaVuSans-72"/>
      <use x="274.70703125" xlink:href="#DejaVuSans-61"/>
      <use x="335.986328125" xlink:href="#DejaVuSans-73"/>
      <use x="388.0859375" xlink:href="#DejaVuSans-74"/>
     </g>
    </g>
    <g id="line2d_54">
     <path d="M 58.668525 335.671737 
L 71.496725 335.671737 
" style="fill:none;stroke:#e2e2e2;stroke-width:2.0;"/>
    </g>
    <g id="line2d_55"/>
    <g id="text_12">
     <!-- 10% -->
     <defs>
      <path d="M 72.703125 32.078125 
Q 68.453125 32.078125 66.03125 28.46875 
Q 63.625 24.859375 63.625 18.40625 
Q 63.625 12.0625 66.03125 8.421875 
Q 68.453125 4.78125 72.703125 4.78125 
Q 76.859375 4.78125 79.265625 8.421875 
Q 81.6875 12.0625 81.6875 18.40625 
Q 81.6875 24.8125 79.265625 28.4375 
Q 76.859375 32.078125 72.703125 32.078125 
M 72.703125 38.28125 
Q 80.421875 38.28125 84.953125 32.90625 
Q 89.5 27.546875 89.5 18.40625 
Q 89.5 9.28125 84.9375 3.921875 
Q 80.375 -1.421875 72.703125 -1.421875 
Q 64.890625 -1.421875 60.34375 3.921875 
Q 55.8125 9.28125 55.8125 18.40625 
Q 55.8125 27.59375 60.375 32.9375 
Q 64.9375 38.28125 72.703125 38.28125 
M 22.3125 68.015625 
Q 18.109375 68.015625 15.6875 64.375 
Q 13.28125 60.75 13.28125 54.390625 
Q 13.28125 47.953125 15.671875 44.328125 
Q 18.0625 40.71875 22.3125 40.71875 
Q 26.5625 40.71875 28.96875 44.328125 
Q 31.390625 47.953125 31.390625 54.390625 
Q 31.390625 60.6875 28.953125 64.34375 
Q 26.515625 68.015625 22.3125 68.015625 
M 66.40625 74.21875 
L 74.21875 74.21875 
L 28.609375 -1.421875 
L 20.796875 -1.421875 
z
M 22.3125 74.21875 
Q 30.03125 74.21875 34.609375 68.875 
Q 39.203125 63.53125 39.203125 54.390625 
Q 39.203125 45.171875 34.640625 39.84375 
Q 30.078125 34.515625 22.3125 34.515625 
Q 14.546875 34.515625 10.03125 39.859375 
Q 5.515625 45.21875 5.515625 54.390625 
Q 5.515625 63.484375 10.046875 68.84375 
Q 14.59375 74.21875 22.3125 74.21875 
" id="DejaVuSans-25"/>
     </defs>
     <g transform="translate(81.576025 338.878786876)scale(0.09163 -0.09163)">
      <use xlink:href="#DejaVuSans-31"/>
      <use x="63.623046875" xlink:href="#DejaVuSans-30"/>
      <use x="127.24609375" xlink:href="#DejaVuSans-25"/>
     </g>
    </g>
    <g id="line2d_56">
     <path d="M 58.668525 349.121303 
L 71.496725 349.121303 
" style="fill:none;stroke:#d1d1d1;stroke-width:2.0;"/>
    </g>
    <g id="line2d_57"/>
    <g id="text_13">
     <!-- 20% -->
     <defs>
      <path d="M 19.1875 8.296875 
L 53.609375 8.296875 
L 53.609375 0 
L 7.328125 0 
L 7.328125 8.296875 
Q 12.9375 14.109375 22.625 23.890625 
Q 32.328125 33.6875 34.8125 36.53125 
Q 39.546875 41.84375 41.421875 45.53125 
Q 43.3125 49.21875 43.3125 52.78125 
Q 43.3125 58.59375 39.234375 62.25 
Q 35.15625 65.921875 28.609375 65.921875 
Q 23.96875 65.921875 18.8125 64.3125 
Q 13.671875 62.703125 7.8125 59.421875 
L 7.8125 69.390625 
Q 13.765625 71.78125 18.9375 73 
Q 24.125 74.21875 28.421875 74.21875 
Q 39.75 74.21875 46.484375 68.546875 
Q 53.21875 62.890625 53.21875 53.421875 
Q 53.21875 48.921875 51.53125 44.890625 
Q 49.859375 40.875 45.40625 35.40625 
Q 44.1875 33.984375 37.640625 27.21875 
Q 31.109375 20.453125 19.1875 8.296875 
" id="DejaVuSans-32"/>
     </defs>
     <g transform="translate(81.576025 352.328352813)scale(0.09163 -0.09163)">
      <use xlink:href="#DejaVuSans-32"/>
      <use x="63.623046875" xlink:href="#DejaVuSans-30"/>
      <use x="127.24609375" xlink:href="#DejaVuSans-25"/>
     </g>
    </g>
    <g id="line2d_58">
     <path d="M 124.054636 335.671737 
L 136.882836 335.671737 
" style="fill:none;stroke:#bdbdbd;stroke-width:2.0;"/>
    </g>
    <g id="line2d_59"/>
    <g id="text_14">
     <!-- 30% -->
     <defs>
      <path d="M 40.578125 39.3125 
Q 47.65625 37.796875 51.625 33 
Q 55.609375 28.21875 55.609375 21.1875 
Q 55.609375 10.40625 48.1875 4.484375 
Q 40.765625 -1.421875 27.09375 -1.421875 
Q 22.515625 -1.421875 17.65625 -0.515625 
Q 12.796875 0.390625 7.625 2.203125 
L 7.625 11.71875 
Q 11.71875 9.328125 16.59375 8.109375 
Q 21.484375 6.890625 26.8125 6.890625 
Q 36.078125 6.890625 40.9375 10.546875 
Q 45.796875 14.203125 45.796875 21.1875 
Q 45.796875 27.640625 41.28125 31.265625 
Q 36.765625 34.90625 28.71875 34.90625 
L 20.21875 34.90625 
L 20.21875 43.015625 
L 29.109375 43.015625 
Q 36.375 43.015625 40.234375 45.921875 
Q 44.09375 48.828125 44.09375 54.296875 
Q 44.09375 59.90625 40.109375 62.90625 
Q 36.140625 65.921875 28.71875 65.921875 
Q 24.65625 65.921875 20.015625 65.03125 
Q 15.375 64.15625 9.8125 62.3125 
L 9.8125 71.09375 
Q 15.4375 72.65625 20.34375 73.4375 
Q 25.25 74.21875 29.59375 74.21875 
Q 40.828125 74.21875 47.359375 69.109375 
Q 53.90625 64.015625 53.90625 55.328125 
Q 53.90625 49.265625 50.4375 45.09375 
Q 46.96875 40.921875 40.578125 39.3125 
" id="DejaVuSans-33"/>
     </defs>
     <g transform="translate(146.962135508 338.878786876)scale(0.09163 -0.09163)">
      <use xlink:href="#DejaVuSans-33"/>
      <use x="63.623046875" xlink:href="#DejaVuSans-30"/>
      <use x="127.24609375" xlink:href="#DejaVuSans-25"/>
     </g>
    </g>
    <g id="line2d_60">
     <path d="M 124.054636 349.121303 
L 136.882836 349.121303 
" style="fill:none;stroke:#a0a0a0;stroke-width:2.0;"/>
    </g>
    <g id="line2d_61"/>
    <g id="text_15">
     <!-- 40% -->
     <defs>
      <path d="M 37.796875 64.3125 
L 12.890625 25.390625 
L 37.796875 25.390625 
z
M 35.203125 72.90625 
L 47.609375 72.90625 
L 47.609375 25.390625 
L 58.015625 25.390625 
L 58.015625 17.1875 
L 47.609375 17.1875 
L 47.609375 0 
L 37.796875 0 
L 37.796875 17.1875 
L 4.890625 17.1875 
L 4.890625 26.703125 
z
" id="DejaVuSans-34"/>
     </defs>
     <g transform="translate(146.962135508 352.328352813)scale(0.09163 -0.09163)">
      <use xlink:href="#DejaVuSans-34"/>
      <use x="63.623046875" xlink:href="#DejaVuSans-30"/>
      <use x="127.24609375" xlink:href="#DejaVuSans-25"/>
     </g>
    </g>
    <g id="line2d_62">
     <path d="M 189.440746 335.671737 
L 202.268946 335.671737 
" style="fill:none;stroke:#868686;stroke-width:2.0;"/>
    </g>
    <g id="line2d_63"/>
    <g id="text_16">
     <!-- 50% -->
     <g transform="translate(212.348246016 338.878786876)scale(0.09163 -0.09163)">
      <use xlink:href="#DejaVuSans-35"/>
      <use x="63.623046875" xlink:href="#DejaVuSans-30"/>
      <use x="127.24609375" xlink:href="#DejaVuSans-25"/>
     </g>
    </g>
    <g id="line2d_64">
     <path d="M 189.440746 349.121303 
L 202.268946 349.121303 
" style="fill:none;stroke:#6e6e6e;stroke-width:2.0;"/>
    </g>
    <g id="line2d_65"/>
    <g id="text_17">
     <!-- 60% -->
     <defs>
      <path d="M 33.015625 40.375 
Q 26.375 40.375 22.484375 35.828125 
Q 18.609375 31.296875 18.609375 23.390625 
Q 18.609375 15.53125 22.484375 10.953125 
Q 26.375 6.390625 33.015625 6.390625 
Q 39.65625 6.390625 43.53125 10.953125 
Q 47.40625 15.53125 47.40625 23.390625 
Q 47.40625 31.296875 43.53125 35.828125 
Q 39.65625 40.375 33.015625 40.375 
M 52.59375 71.296875 
L 52.59375 62.3125 
Q 48.875 64.0625 45.09375 64.984375 
Q 41.3125 65.921875 37.59375 65.921875 
Q 27.828125 65.921875 22.671875 59.328125 
Q 17.53125 52.734375 16.796875 39.40625 
Q 19.671875 43.65625 24.015625 45.921875 
Q 28.375 48.1875 33.59375 48.1875 
Q 44.578125 48.1875 50.953125 41.515625 
Q 57.328125 34.859375 57.328125 23.390625 
Q 57.328125 12.15625 50.6875 5.359375 
Q 44.046875 -1.421875 33.015625 -1.421875 
Q 20.359375 -1.421875 13.671875 8.265625 
Q 6.984375 17.96875 6.984375 36.375 
Q 6.984375 53.65625 15.1875 63.9375 
Q 23.390625 74.21875 37.203125 74.21875 
Q 40.921875 74.21875 44.703125 73.484375 
Q 48.484375 72.75 52.59375 71.296875 
" id="DejaVuSans-36"/>
     </defs>
     <g transform="translate(212.348246016 352.328352813)scale(0.09163 -0.09163)">
      <use xlink:href="#DejaVuSans-36"/>
      <use x="63.623046875" xlink:href="#DejaVuSans-30"/>
      <use x="127.24609375" xlink:href="#DejaVuSans-25"/>
     </g>
    </g>
    <g id="line2d_66">
     <path d="M 254.826857 335.671737 
L 267.655057 335.671737 
" style="fill:none;stroke:#565656;stroke-width:2.0;"/>
    </g>
    <g id="line2d_67"/>
    <g id="text_18">
     <!-- 70% -->
     <defs>
      <path d="M 8.203125 72.90625 
L 55.078125 72.90625 
L 55.078125 68.703125 
L 28.609375 0 
L 18.3125 0 
L 43.21875 64.59375 
L 8.203125 64.59375 
z
" id="DejaVuSans-37"/>
     </defs>
     <g transform="translate(277.734356523 338.878786876)scale(0.09163 -0.09163)">
      <use xlink:href="#DejaVuSans-37"/>
      <use x="63.623046875" xlink:href="#DejaVuSans-30"/>
      <use x="127.24609375" xlink:href="#DejaVuSans-25"/>
     </g>
    </g>
    <g id="line2d_68">
     <path d="M 254.826857 349.121303 
L 267.655057 349.121303 
" style="fill:none;stroke:#383838;stroke-width:2.0;"/>
    </g>
    <g id="line2d_69"/>
    <g id="text_19">
     <!-- 80% -->
     <defs>
      <path d="M 31.78125 34.625 
Q 24.75 34.625 20.71875 30.859375 
Q 16.703125 27.09375 16.703125 20.515625 
Q 16.703125 13.921875 20.71875 10.15625 
Q 24.75 6.390625 31.78125 6.390625 
Q 38.8125 6.390625 42.859375 10.171875 
Q 46.921875 13.96875 46.921875 20.515625 
Q 46.921875 27.09375 42.890625 30.859375 
Q 38.875 34.625 31.78125 34.625 
M 21.921875 38.8125 
Q 15.578125 40.375 12.03125 44.71875 
Q 8.5 49.078125 8.5 55.328125 
Q 8.5 64.0625 14.71875 69.140625 
Q 20.953125 74.21875 31.78125 74.21875 
Q 42.671875 74.21875 48.875 69.140625 
Q 55.078125 64.0625 55.078125 55.328125 
Q 55.078125 49.078125 51.53125 44.71875 
Q 48 40.375 41.703125 38.8125 
Q 48.828125 37.15625 52.796875 32.3125 
Q 56.78125 27.484375 56.78125 20.515625 
Q 56.78125 9.90625 50.3125 4.234375 
Q 43.84375 -1.421875 31.78125 -1.421875 
Q 19.734375 -1.421875 13.25 4.234375 
Q 6.78125 9.90625 6.78125 20.515625 
Q 6.78125 27.484375 10.78125 32.3125 
Q 14.796875 37.15625 21.921875 38.8125 
M 18.3125 54.390625 
Q 18.3125 48.734375 21.84375 45.5625 
Q 25.390625 42.390625 31.78125 42.390625 
Q 38.140625 42.390625 41.71875 45.5625 
Q 45.3125 48.734375 45.3125 54.390625 
Q 45.3125 60.0625 41.71875 63.234375 
Q 38.140625 66.40625 31.78125 66.40625 
Q 25.390625 66.40625 21.84375 63.234375 
Q 18.3125 60.0625 18.3125 54.390625 
" id="DejaVuSans-38"/>
     </defs>
     <g transform="translate(277.734356523 352.328352813)scale(0.09163 -0.09163)">
      <use xlink:href="#DejaVuSans-38"/>
      <use x="63.623046875" xlink:href="#DejaVuSans-30"/>
      <use x="127.24609375" xlink:href="#DejaVuSans-25"/>
     </g>
    </g>
    <g id="line2d_70">
     <path d="M 320.212967 335.671737 
L 333.041167 335.671737 
" style="fill:none;stroke:#1a1a1a;stroke-width:2.0;"/>
    </g>
    <g id="line2d_71"/>
    <g id="text_20">
     <!-- 90% -->
     <defs>
      <path d="M 10.984375 1.515625 
L 10.984375 10.5 
Q 14.703125 8.734375 18.5 7.8125 
Q 22.3125 6.890625 25.984375 6.890625 
Q 35.75 6.890625 40.890625 13.453125 
Q 46.046875 20.015625 46.78125 33.40625 
Q 43.953125 29.203125 39.59375 26.953125 
Q 35.25 24.703125 29.984375 24.703125 
Q 19.046875 24.703125 12.671875 31.3125 
Q 6.296875 37.9375 6.296875 49.421875 
Q 6.296875 60.640625 12.9375 67.421875 
Q 19.578125 74.21875 30.609375 74.21875 
Q 43.265625 74.21875 49.921875 64.515625 
Q 56.59375 54.828125 56.59375 36.375 
Q 56.59375 19.140625 48.40625 8.859375 
Q 40.234375 -1.421875 26.421875 -1.421875 
Q 22.703125 -1.421875 18.890625 -0.6875 
Q 15.09375 0.046875 10.984375 1.515625 
M 30.609375 32.421875 
Q 37.25 32.421875 41.125 36.953125 
Q 45.015625 41.5 45.015625 49.421875 
Q 45.015625 57.28125 41.125 61.84375 
Q 37.25 66.40625 30.609375 66.40625 
Q 23.96875 66.40625 20.09375 61.84375 
Q 16.21875 57.28125 16.21875 49.421875 
Q 16.21875 41.5 20.09375 36.953125 
Q 23.96875 32.421875 30.609375 32.421875 
" id="DejaVuSans-39"/>
     </defs>
     <g transform="translate(343.120467031 338.878786876)scale(0.09163 -0.09163)">
      <use xlink:href="#DejaVuSans-39"/>
      <use x="63.623046875" xlink:href="#DejaVuSans-30"/>
      <use x="127.24609375" xlink:href="#DejaVuSans-25"/>
     </g>
    </g>
    <g id="line2d_72">
     <path d="M 320.212967 349.121303 
L 333.041167 349.121303 
" style="fill:none;stroke:#000000;stroke-width:2.0;"/>
    </g>
    <g id="line2d_73"/>
    <g id="text_21">
     <!-- 100% -->
     <g transform="translate(343.120467031 352.328352813)scale(0.09163 -0.09163)">
      <use xlink:href="#DejaVuSans-31"/>
      <use x="63.623046875" xlink:href="#DejaVuSans-30"/>
      <use x="127.24609375" xlink:href="#DejaVuSans-30"/>
      <use x="190.869140625" xlink:href="#DejaVuSans-25"/>
     </g>
    </g>
   </g>
  </g>
 </g>
 <defs>
  <clipPath id="p5c7e454ea3">
   <rect height="253.962647948" width="322.56" x="51.338125" y="20.55828125"/>
  </clipPath>
 </defs>
</svg>
