<?xml version="1.0" encoding="utf-8" standalone="no"?>
<!DOCTYPE svg PUBLIC "-//W3C//DTD SVG 1.1//EN"
  "http://www.w3.org/Graphics/SVG/1.1/DTD/svg11.dtd">
<!-- Created with matplotlib (http://matplotlib.org/) -->
<svg height="272pt" version="1.1" viewBox="0 0 599 272" width="599pt" xmlns="http://www.w3.org/2000/svg" xmlns:xlink="http://www.w3.org/1999/xlink">
 <defs>
  <style type="text/css">
*{stroke-linecap:butt;stroke-linejoin:round;stroke-miterlimit:100000;}
  </style>
 </defs>
 <g id="figure_1">
  <g id="patch_1">
   <path d="M 0 272.522563 
L 599.875375 272.522563 
L 599.875375 0 
L 0 0 
z
" style="fill:#ffffff;"/>
  </g>
  <g id="axes_1">
   <g id="patch_2">
    <path d="M 70.776 224.276625 
L 278.136 224.276625 
L 278.136 16.916625 
L 70.776 16.916625 
z
" style="fill:#ffffff;"/>
   </g>
   <g id="LineCollection_1">
    <path clip-path="url(#p7c4f810457)" d="M -31033.224 31328.276625 
M 21.530063 273.522563 
L 278.136 16.916625 
" style="fill:none;stroke:#000000;stroke-dasharray:6.000000,6.000000;stroke-dashoffset:0.0;stroke-width:0.8;"/>
   </g>
   <g id="matplotlib.axis_1">
    <g id="xtick_1">
     <g id="line2d_1">
      <defs>
       <path d="M 0 0 
L 0 -8 
" id="md3127e1974" style="stroke:#000000;stroke-width:0.5;"/>
      </defs>
      <g>
       <use style="stroke:#000000;stroke-width:0.5;" x="70.776" xlink:href="#md3127e1974" y="224.276625"/>
      </g>
     </g>
     <g id="text_1">
      <!-- 0.1 -->
      <defs>
       <path d="M 12.40625 8.296875 
L 28.515625 8.296875 
L 28.515625 63.921875 
L 10.984375 60.40625 
L 10.984375 69.390625 
L 28.421875 72.90625 
L 38.28125 72.90625 
L 38.28125 8.296875 
L 54.390625 8.296875 
L 54.390625 0 
L 12.40625 0 
z
" id="DejaVuSans-31"/>
       <path d="M 31.78125 66.40625 
Q 24.171875 66.40625 20.328125 58.90625 
Q 16.5 51.421875 16.5 36.375 
Q 16.5 21.390625 20.328125 13.890625 
Q 24.171875 6.390625 31.78125 6.390625 
Q 39.453125 6.390625 43.28125 13.890625 
Q 47.125 21.390625 47.125 36.375 
Q 47.125 51.421875 43.28125 58.90625 
Q 39.453125 66.40625 31.78125 66.40625 
M 31.78125 74.21875 
Q 44.046875 74.21875 50.515625 64.515625 
Q 56.984375 54.828125 56.984375 36.375 
Q 56.984375 17.96875 50.515625 8.265625 
Q 44.046875 -1.421875 31.78125 -1.421875 
Q 19.53125 -1.421875 13.0625 8.265625 
Q 6.59375 17.96875 6.59375 36.375 
Q 6.59375 54.828125 13.0625 64.515625 
Q 19.53125 74.21875 31.78125 74.21875 
" id="DejaVuSans-30"/>
       <path d="M 10.6875 12.40625 
L 21 12.40625 
L 21 0 
L 10.6875 0 
z
" id="DejaVuSans-2e"/>
      </defs>
      <g transform="translate(62.02928125 236.63490625)scale(0.11 -0.11)">
       <use xlink:href="#DejaVuSans-30"/>
       <use x="63.623046875" xlink:href="#DejaVuSans-2e"/>
       <use x="95.41015625" xlink:href="#DejaVuSans-31"/>
      </g>
     </g>
    </g>
    <g id="xtick_2">
     <g id="line2d_2">
      <g>
       <use style="stroke:#000000;stroke-width:0.5;" x="174.456" xlink:href="#md3127e1974" y="224.276625"/>
      </g>
     </g>
     <g id="text_2">
      <!-- 1 -->
      <g transform="translate(170.956625 236.63490625)scale(0.11 -0.11)">
       <use xlink:href="#DejaVuSans-31"/>
      </g>
     </g>
    </g>
    <g id="xtick_3">
     <g id="line2d_3">
      <g>
       <use style="stroke:#000000;stroke-width:0.5;" x="278.136" xlink:href="#md3127e1974" y="224.276625"/>
      </g>
     </g>
     <g id="text_3">
      <!-- 10 -->
      <g transform="translate(271.13725 236.63490625)scale(0.11 -0.11)">
       <use xlink:href="#DejaVuSans-31"/>
       <use x="63.623046875" xlink:href="#DejaVuSans-30"/>
      </g>
     </g>
    </g>
    <g id="xtick_4">
     <g id="line2d_4">
      <defs>
       <path d="M 0 0 
L 0 -4 
" id="md4ee464a5a" style="stroke:#000000;stroke-width:0.5;"/>
      </defs>
      <g>
       <use style="stroke:#000000;stroke-width:0.5;" x="101.98678995" xlink:href="#md4ee464a5a" y="224.276625"/>
      </g>
     </g>
    </g>
    <g id="xtick_5">
     <g id="line2d_5">
      <g>
       <use style="stroke:#000000;stroke-width:0.5;" x="120.243931689" xlink:href="#md4ee464a5a" y="224.276625"/>
      </g>
     </g>
    </g>
    <g id="xtick_6">
     <g id="line2d_6">
      <g>
       <use style="stroke:#000000;stroke-width:0.5;" x="133.197579901" xlink:href="#md4ee464a5a" y="224.276625"/>
      </g>
     </g>
    </g>
    <g id="xtick_7">
     <g id="line2d_7">
      <g>
       <use style="stroke:#000000;stroke-width:0.5;" x="143.24521005" xlink:href="#md4ee464a5a" y="224.276625"/>
      </g>
     </g>
    </g>
    <g id="xtick_8">
     <g id="line2d_8">
      <g>
       <use style="stroke:#000000;stroke-width:0.5;" x="151.45472164" xlink:href="#md4ee464a5a" y="224.276625"/>
      </g>
     </g>
    </g>
    <g id="xtick_9">
     <g id="line2d_9">
      <g>
       <use style="stroke:#000000;stroke-width:0.5;" x="158.395764789" xlink:href="#md4ee464a5a" y="224.276625"/>
      </g>
     </g>
    </g>
    <g id="xtick_10">
     <g id="line2d_10">
      <g>
       <use style="stroke:#000000;stroke-width:0.5;" x="164.408369851" xlink:href="#md4ee464a5a" y="224.276625"/>
      </g>
     </g>
    </g>
    <g id="xtick_11">
     <g id="line2d_11">
      <g>
       <use style="stroke:#000000;stroke-width:0.5;" x="169.711863379" xlink:href="#md4ee464a5a" y="224.276625"/>
      </g>
     </g>
    </g>
    <g id="xtick_12">
     <g id="line2d_12">
      <g>
       <use style="stroke:#000000;stroke-width:0.5;" x="205.66678995" xlink:href="#md4ee464a5a" y="224.276625"/>
      </g>
     </g>
    </g>
    <g id="xtick_13">
     <g id="line2d_13">
      <g>
       <use style="stroke:#000000;stroke-width:0.5;" x="223.923931689" xlink:href="#md4ee464a5a" y="224.276625"/>
      </g>
     </g>
    </g>
    <g id="xtick_14">
     <g id="line2d_14">
      <g>
       <use style="stroke:#000000;stroke-width:0.5;" x="236.877579901" xlink:href="#md4ee464a5a" y="224.276625"/>
      </g>
     </g>
    </g>
    <g id="xtick_15">
     <g id="line2d_15">
      <g>
       <use style="stroke:#000000;stroke-width:0.5;" x="246.92521005" xlink:href="#md4ee464a5a" y="224.276625"/>
      </g>
     </g>
    </g>
    <g id="xtick_16">
     <g id="line2d_16">
      <g>
       <use style="stroke:#000000;stroke-width:0.5;" x="255.13472164" xlink:href="#md4ee464a5a" y="224.276625"/>
      </g>
     </g>
    </g>
    <g id="xtick_17">
     <g id="line2d_17">
      <g>
       <use style="stroke:#000000;stroke-width:0.5;" x="262.075764789" xlink:href="#md4ee464a5a" y="224.276625"/>
      </g>
     </g>
    </g>
    <g id="xtick_18">
     <g id="line2d_18">
      <g>
       <use style="stroke:#000000;stroke-width:0.5;" x="268.088369851" xlink:href="#md4ee464a5a" y="224.276625"/>
      </g>
     </g>
    </g>
    <g id="xtick_19">
     <g id="line2d_19">
      <g>
       <use style="stroke:#000000;stroke-width:0.5;" x="273.391863379" xlink:href="#md4ee464a5a" y="224.276625"/>
      </g>
     </g>
    </g>
    <g id="text_4">
     <!-- $a_{low}$ -->
     <defs>
      <path d="M 17.390625 -1.125 
Q 11.078125 -1.125 7.4375 3.640625 
Q 3.8125 8.40625 3.8125 14.890625 
Q 3.8125 21.296875 7.125 28.171875 
Q 10.453125 35.0625 16.09375 39.625 
Q 21.734375 44.1875 28.21875 44.1875 
Q 31.203125 44.1875 33.546875 42.578125 
Q 35.890625 40.96875 37.203125 38.1875 
Q 38.328125 42.1875 41.609375 42.1875 
Q 42.875 42.1875 43.71875 41.421875 
Q 44.578125 40.671875 44.578125 39.40625 
Q 44.578125 39.109375 44.546875 38.953125 
Q 44.53125 38.8125 44.484375 38.625 
L 37.5 10.6875 
Q 36.8125 7.71875 36.8125 5.8125 
Q 36.8125 1.515625 39.703125 1.515625 
Q 42.828125 1.515625 44.453125 5.484375 
Q 46.09375 9.46875 47.21875 14.703125 
Q 47.40625 15.28125 48 15.28125 
L 49.21875 15.28125 
Q 49.609375 15.28125 49.84375 14.9375 
Q 50.09375 14.59375 50.09375 14.3125 
Q 48.34375 7.328125 46.265625 3.09375 
Q 44.1875 -1.125 39.5 -1.125 
Q 36.140625 -1.125 33.546875 0.84375 
Q 30.953125 2.828125 30.328125 6.109375 
Q 23.875 -1.125 17.390625 -1.125 
M 17.484375 1.515625 
Q 21.09375 1.515625 24.484375 4.21875 
Q 27.875 6.9375 30.328125 10.59375 
Q 30.421875 10.6875 30.421875 10.890625 
L 35.796875 32.625 
L 35.890625 32.90625 
Q 35.296875 36.46875 33.3125 39.03125 
Q 31.34375 41.609375 27.984375 41.609375 
Q 24.609375 41.609375 21.703125 38.84375 
Q 18.796875 36.078125 16.796875 32.328125 
Q 14.84375 28.328125 13.0625 21.34375 
Q 11.28125 14.359375 11.28125 10.5 
Q 11.28125 7.03125 12.765625 4.265625 
Q 14.265625 1.515625 17.484375 1.515625 
" id="Cmmi10-61"/>
      <path d="M 4.390625 8.109375 
Q 4.390625 8.40625 4.46875 8.984375 
Q 4.546875 9.578125 4.609375 10.125 
Q 4.6875 10.6875 4.6875 10.984375 
L 17.09375 60.5 
Q 17.484375 62.203125 17.578125 63.1875 
Q 17.578125 64.796875 11.078125 64.796875 
Q 10.109375 64.796875 10.109375 66.109375 
Q 10.15625 66.359375 10.328125 66.984375 
Q 10.5 67.625 10.765625 67.96875 
Q 11.03125 68.3125 11.53125 68.3125 
L 25 69.390625 
Q 26.21875 69.390625 26.21875 68.109375 
L 11.8125 10.59375 
Q 11.078125 8.984375 11.078125 5.8125 
Q 11.078125 1.515625 14.015625 1.515625 
Q 17.09375 1.515625 18.625 5.34375 
Q 20.171875 9.1875 21.390625 14.703125 
Q 21.578125 15.28125 22.21875 15.28125 
L 23.390625 15.28125 
Q 23.78125 15.28125 24.046875 14.96875 
Q 24.3125 14.65625 24.3125 14.3125 
Q 23.140625 9.46875 22.1875 6.65625 
Q 21.234375 3.859375 19.140625 1.359375 
Q 17.046875 -1.125 13.8125 -1.125 
Q 9.8125 -1.125 7.09375 1.453125 
Q 4.390625 4.046875 4.390625 8.109375 
" id="Cmmi10-6c"/>
      <path d="M 10.796875 11.625 
Q 10.796875 13.71875 11.359375 16.453125 
Q 11.921875 19.1875 12.59375 21.3125 
Q 13.28125 23.4375 14.90625 27.828125 
Q 16.546875 32.234375 16.703125 32.625 
Q 18.015625 36.28125 18.015625 38.625 
Q 18.015625 41.609375 15.828125 41.609375 
Q 11.859375 41.609375 9.296875 37.53125 
Q 6.734375 33.453125 5.515625 28.421875 
Q 5.328125 27.78125 4.6875 27.78125 
L 3.515625 27.78125 
Q 2.6875 27.78125 2.6875 28.71875 
L 2.6875 29 
Q 4.296875 34.96875 7.609375 39.578125 
Q 10.9375 44.1875 16.015625 44.1875 
Q 19.578125 44.1875 22.046875 41.84375 
Q 24.515625 39.5 24.515625 35.890625 
Q 24.515625 34.03125 23.6875 31.984375 
Q 22.515625 28.953125 20.921875 24.703125 
Q 19.34375 20.453125 18.453125 16.984375 
Q 17.578125 13.53125 17.578125 10.296875 
Q 17.578125 6.390625 19.625 3.953125 
Q 21.6875 1.515625 25.59375 1.515625 
Q 30.90625 1.515625 34.421875 9.625 
Q 34.28125 10.203125 34.28125 11.28125 
Q 34.28125 13.96875 35.109375 17.390625 
L 40.71875 39.890625 
Q 41.0625 41.21875 42.28125 42.15625 
Q 43.5 43.109375 44.921875 43.109375 
Q 46.09375 43.109375 47 42.328125 
Q 47.90625 41.546875 47.90625 40.28125 
Q 47.90625 39.703125 47.796875 39.5 
L 42.1875 17.1875 
Q 41.21875 13.1875 41.21875 10.015625 
Q 41.21875 6.25 42.9375 3.875 
Q 44.671875 1.515625 48.390625 1.515625 
Q 54.828125 1.515625 58.984375 10.015625 
Q 60.546875 13.03125 62.46875 18.9375 
Q 64.40625 24.859375 64.40625 27.984375 
Q 64.40625 30.859375 63.46875 32.546875 
Q 62.546875 34.234375 60.90625 36.1875 
Q 59.28125 38.140625 59.28125 39.109375 
Q 59.28125 41.015625 60.90625 42.640625 
Q 62.546875 44.28125 64.5 44.28125 
Q 66.890625 44.28125 67.9375 42.078125 
Q 69 39.890625 69 37.109375 
Q 69 33.734375 67.875 28.53125 
Q 66.75 23.34375 65.03125 18.09375 
Q 63.328125 12.84375 61.8125 9.71875 
Q 56.34375 -1.125 48.1875 -1.125 
Q 44 -1.125 40.53125 0.484375 
Q 37.0625 2.09375 35.40625 5.609375 
Q 33.796875 2.734375 31.171875 0.796875 
Q 28.5625 -1.125 25.390625 -1.125 
Q 18.796875 -1.125 14.796875 2.015625 
Q 10.796875 5.171875 10.796875 11.625 
" id="Cmmi10-77"/>
      <path d="M 20.125 -1.125 
Q 15.375 -1.125 11.6875 1.125 
Q 8.015625 3.375 6 7.171875 
Q 4 10.984375 4 15.828125 
Q 4 22.609375 7.78125 29.25 
Q 11.578125 35.890625 17.84375 40.03125 
Q 24.125 44.1875 31 44.1875 
Q 34.71875 44.1875 37.625 42.921875 
Q 40.53125 41.65625 42.671875 39.359375 
Q 44.828125 37.0625 45.96875 33.984375 
Q 47.125 30.90625 47.125 27.296875 
Q 47.125 22.078125 44.921875 17.015625 
Q 42.71875 11.96875 38.890625 7.84375 
Q 35.0625 3.71875 30.125 1.296875 
Q 25.203125 -1.125 20.125 -1.125 
M 20.3125 1.515625 
Q 24.75 1.515625 28.4375 4.53125 
Q 32.125 7.5625 34.484375 12.171875 
Q 36.859375 16.796875 38.125 21.921875 
Q 39.40625 27.046875 39.40625 31.203125 
Q 39.40625 35.546875 37.234375 38.578125 
Q 35.0625 41.609375 30.8125 41.609375 
Q 24.953125 41.609375 20.546875 36.59375 
Q 16.15625 31.59375 13.9375 24.625 
Q 11.71875 17.671875 11.71875 11.921875 
Q 11.71875 7.5625 13.9375 4.53125 
Q 16.15625 1.515625 20.3125 1.515625 
" id="Cmmi10-6f"/>
     </defs>
     <g transform="translate(158.056 259.1194375)scale(0.2 -0.2)">
      <use transform="translate(0.0 0.8125)" xlink:href="#Cmmi10-61"/>
      <use transform="translate(52.783203125 -16.19375)scale(0.7)" xlink:href="#Cmmi10-6c"/>
      <use transform="translate(73.6328125 -16.19375)scale(0.7)" xlink:href="#Cmmi10-6f"/>
      <use transform="translate(107.504882812 -16.19375)scale(0.7)" xlink:href="#Cmmi10-77"/>
     </g>
    </g>
   </g>
   <g id="matplotlib.axis_2">
    <g id="ytick_1">
     <g id="line2d_20">
      <defs>
       <path d="M 0 0 
L 8 0 
" id="m7cd2d1387c" style="stroke:#000000;stroke-width:0.5;"/>
      </defs>
      <g>
       <use style="stroke:#000000;stroke-width:0.5;" x="70.776" xlink:href="#m7cd2d1387c" y="224.276625"/>
      </g>
     </g>
     <g id="text_5">
      <!-- 0.1 -->
      <g transform="translate(49.2825625 227.3119375)scale(0.11 -0.11)">
       <use xlink:href="#DejaVuSans-30"/>
       <use x="63.623046875" xlink:href="#DejaVuSans-2e"/>
       <use x="95.41015625" xlink:href="#DejaVuSans-31"/>
      </g>
     </g>
    </g>
    <g id="ytick_2">
     <g id="line2d_21">
      <g>
       <use style="stroke:#000000;stroke-width:0.5;" x="70.776" xlink:href="#m7cd2d1387c" y="120.596625"/>
      </g>
     </g>
     <g id="text_6">
      <!-- 1 -->
      <g transform="translate(59.77725 123.6319375)scale(0.11 -0.11)">
       <use xlink:href="#DejaVuSans-31"/>
      </g>
     </g>
    </g>
    <g id="ytick_3">
     <g id="line2d_22">
      <g>
       <use style="stroke:#000000;stroke-width:0.5;" x="70.776" xlink:href="#m7cd2d1387c" y="16.916625"/>
      </g>
     </g>
     <g id="text_7">
      <!-- 10 -->
      <g transform="translate(52.7785 19.9519375)scale(0.11 -0.11)">
       <use xlink:href="#DejaVuSans-31"/>
       <use x="63.623046875" xlink:href="#DejaVuSans-30"/>
      </g>
     </g>
    </g>
    <g id="ytick_4">
     <g id="line2d_23">
      <defs>
       <path d="M 0 0 
L 4 0 
" id="m4a4c73ee54" style="stroke:#000000;stroke-width:0.5;"/>
      </defs>
      <g>
       <use style="stroke:#000000;stroke-width:0.5;" x="70.776" xlink:href="#m4a4c73ee54" y="193.06583505"/>
      </g>
     </g>
    </g>
    <g id="ytick_5">
     <g id="line2d_24">
      <g>
       <use style="stroke:#000000;stroke-width:0.5;" x="70.776" xlink:href="#m4a4c73ee54" y="174.808693311"/>
      </g>
     </g>
    </g>
    <g id="ytick_6">
     <g id="line2d_25">
      <g>
       <use style="stroke:#000000;stroke-width:0.5;" x="70.776" xlink:href="#m4a4c73ee54" y="161.855045099"/>
      </g>
     </g>
    </g>
    <g id="ytick_7">
     <g id="line2d_26">
      <g>
       <use style="stroke:#000000;stroke-width:0.5;" x="70.776" xlink:href="#m4a4c73ee54" y="151.80741495"/>
      </g>
     </g>
    </g>
    <g id="ytick_8">
     <g id="line2d_27">
      <g>
       <use style="stroke:#000000;stroke-width:0.5;" x="70.776" xlink:href="#m4a4c73ee54" y="143.59790336"/>
      </g>
     </g>
    </g>
    <g id="ytick_9">
     <g id="line2d_28">
      <g>
       <use style="stroke:#000000;stroke-width:0.5;" x="70.776" xlink:href="#m4a4c73ee54" y="136.656860211"/>
      </g>
     </g>
    </g>
    <g id="ytick_10">
     <g id="line2d_29">
      <g>
       <use style="stroke:#000000;stroke-width:0.5;" x="70.776" xlink:href="#m4a4c73ee54" y="130.644255149"/>
      </g>
     </g>
    </g>
    <g id="ytick_11">
     <g id="line2d_30">
      <g>
       <use style="stroke:#000000;stroke-width:0.5;" x="70.776" xlink:href="#m4a4c73ee54" y="125.340761621"/>
      </g>
     </g>
    </g>
    <g id="ytick_12">
     <g id="line2d_31">
      <g>
       <use style="stroke:#000000;stroke-width:0.5;" x="70.776" xlink:href="#m4a4c73ee54" y="89.3858350496"/>
      </g>
     </g>
    </g>
    <g id="ytick_13">
     <g id="line2d_32">
      <g>
       <use style="stroke:#000000;stroke-width:0.5;" x="70.776" xlink:href="#m4a4c73ee54" y="71.1286933107"/>
      </g>
     </g>
    </g>
    <g id="ytick_14">
     <g id="line2d_33">
      <g>
       <use style="stroke:#000000;stroke-width:0.5;" x="70.776" xlink:href="#m4a4c73ee54" y="58.1750450991"/>
      </g>
     </g>
    </g>
    <g id="ytick_15">
     <g id="line2d_34">
      <g>
       <use style="stroke:#000000;stroke-width:0.5;" x="70.776" xlink:href="#m4a4c73ee54" y="48.1274149504"/>
      </g>
     </g>
    </g>
    <g id="ytick_16">
     <g id="line2d_35">
      <g>
       <use style="stroke:#000000;stroke-width:0.5;" x="70.776" xlink:href="#m4a4c73ee54" y="39.9179033602"/>
      </g>
     </g>
    </g>
    <g id="ytick_17">
     <g id="line2d_36">
      <g>
       <use style="stroke:#000000;stroke-width:0.5;" x="70.776" xlink:href="#m4a4c73ee54" y="32.9768602113"/>
      </g>
     </g>
    </g>
    <g id="ytick_18">
     <g id="line2d_37">
      <g>
       <use style="stroke:#000000;stroke-width:0.5;" x="70.776" xlink:href="#m4a4c73ee54" y="26.9642551487"/>
      </g>
     </g>
    </g>
    <g id="ytick_19">
     <g id="line2d_38">
      <g>
       <use style="stroke:#000000;stroke-width:0.5;" x="70.776" xlink:href="#m4a4c73ee54" y="21.6607616213"/>
      </g>
     </g>
    </g>
    <g id="text_8">
     <!-- $a_{high}$ -->
     <defs>
      <path d="M 7.8125 7.171875 
Q 7.8125 9.03125 8.59375 11.078125 
L 16.703125 32.625 
Q 18.015625 36.28125 18.015625 38.625 
Q 18.015625 41.609375 15.828125 41.609375 
Q 11.859375 41.609375 9.296875 37.53125 
Q 6.734375 33.453125 5.515625 28.421875 
Q 5.328125 27.78125 4.6875 27.78125 
L 3.515625 27.78125 
Q 2.6875 27.78125 2.6875 28.71875 
L 2.6875 29 
Q 4.296875 34.96875 7.609375 39.578125 
Q 10.9375 44.1875 16.015625 44.1875 
Q 19.578125 44.1875 22.046875 41.84375 
Q 24.515625 39.5 24.515625 35.890625 
Q 24.515625 34.03125 23.6875 31.984375 
L 15.578125 10.5 
Q 14.203125 7.171875 14.203125 4.5 
Q 14.203125 1.515625 16.5 1.515625 
Q 20.40625 1.515625 23.015625 5.6875 
Q 25.640625 9.859375 26.703125 14.703125 
Q 26.90625 15.28125 27.484375 15.28125 
L 28.71875 15.28125 
Q 29.109375 15.28125 29.34375 15.015625 
Q 29.59375 14.75 29.59375 14.40625 
Q 29.59375 14.3125 29.5 14.109375 
Q 28.125 8.453125 24.734375 3.65625 
Q 21.34375 -1.125 16.3125 -1.125 
Q 12.796875 -1.125 10.296875 1.296875 
Q 7.8125 3.71875 7.8125 7.171875 
M 19.09375 60.59375 
Q 19.09375 62.703125 20.84375 64.40625 
Q 22.609375 66.109375 24.703125 66.109375 
Q 26.421875 66.109375 27.515625 65.0625 
Q 28.609375 64.015625 28.609375 62.40625 
Q 28.609375 60.15625 26.828125 58.46875 
Q 25.046875 56.78125 22.90625 56.78125 
Q 21.296875 56.78125 20.1875 57.875 
Q 19.09375 58.984375 19.09375 60.59375 
" id="Cmmi10-69"/>
      <path d="M 5.328125 1.8125 
Q 5.328125 2.390625 5.421875 2.6875 
L 19.921875 60.5 
Q 20.3125 62.203125 20.40625 63.1875 
Q 20.40625 64.796875 13.921875 64.796875 
Q 12.890625 64.796875 12.890625 66.109375 
Q 12.9375 66.359375 13.109375 66.984375 
Q 13.28125 67.625 13.546875 67.96875 
Q 13.8125 68.3125 14.3125 68.3125 
L 27.78125 69.390625 
L 28.078125 69.390625 
Q 28.078125 69.28125 28.421875 69.109375 
Q 28.765625 68.953125 28.8125 68.890625 
Q 29 68.40625 29 68.109375 
L 21.1875 36.921875 
Q 27.34375 44.1875 35.796875 44.1875 
Q 39.3125 44.1875 41.875 42.96875 
Q 44.4375 41.75 45.875 39.28125 
Q 47.3125 36.8125 47.3125 33.40625 
Q 47.3125 29.296875 45.484375 23.484375 
Q 43.65625 17.671875 40.921875 10.5 
Q 39.5 7.234375 39.5 4.5 
Q 39.5 1.515625 41.796875 1.515625 
Q 45.703125 1.515625 48.3125 5.6875 
Q 50.921875 9.859375 52 14.703125 
Q 52.203125 15.28125 52.78125 15.28125 
L 54 15.28125 
Q 54.390625 15.28125 54.640625 15.015625 
Q 54.890625 14.75 54.890625 14.40625 
Q 54.890625 14.3125 54.78125 14.109375 
Q 53.90625 10.5 52.171875 7 
Q 50.4375 3.515625 47.796875 1.1875 
Q 45.171875 -1.125 41.609375 -1.125 
Q 38.09375 -1.125 35.59375 1.296875 
Q 33.109375 3.71875 33.109375 7.171875 
Q 33.109375 9.03125 33.890625 11.078125 
Q 36.71875 18.609375 38.59375 24.515625 
Q 40.484375 30.421875 40.484375 34.90625 
Q 40.484375 37.796875 39.359375 39.703125 
Q 38.234375 41.609375 35.59375 41.609375 
Q 30.21875 41.609375 26.21875 38.3125 
Q 22.21875 35.015625 19.28125 29.59375 
L 12.5 2.296875 
Q 12.109375 0.78125 10.984375 -0.171875 
Q 9.859375 -1.125 8.40625 -1.125 
Q 7.125 -1.125 6.21875 -0.265625 
Q 5.328125 0.59375 5.328125 1.8125 
" id="Cmmi10-68"/>
      <path d="M 1.421875 -14.3125 
Q 1.421875 -11.859375 3.09375 -10.03125 
Q 4.78125 -8.203125 7.171875 -8.203125 
Q 8.796875 -8.203125 9.890625 -9.203125 
Q 10.984375 -10.203125 10.984375 -11.8125 
Q 10.984375 -13.625 9.953125 -15.0625 
Q 8.9375 -16.5 7.328125 -17.09375 
Q 10.015625 -17.921875 15.71875 -17.921875 
Q 20.3125 -17.921875 24.125 -14.375 
Q 27.9375 -10.84375 29.109375 -6.203125 
L 31.984375 5.515625 
Q 26.5625 0 20.703125 0 
Q 16.40625 0 13.34375 2.1875 
Q 10.296875 4.390625 8.6875 8.046875 
Q 7.078125 11.71875 7.078125 15.828125 
Q 7.078125 20.40625 8.953125 25.4375 
Q 10.84375 30.46875 14.234375 34.765625 
Q 17.625 39.0625 22.015625 41.625 
Q 26.421875 44.1875 31.296875 44.1875 
Q 34.234375 44.1875 36.578125 42.578125 
Q 38.921875 40.96875 40.28125 38.28125 
Q 41.265625 42.1875 44.578125 42.1875 
Q 45.84375 42.1875 46.71875 41.421875 
Q 47.609375 40.671875 47.609375 39.40625 
Q 47.609375 39.109375 47.578125 38.953125 
Q 47.5625 38.8125 47.515625 38.625 
L 36.078125 -6.78125 
Q 35.296875 -9.90625 33.203125 -12.5 
Q 31.109375 -15.09375 28.265625 -16.828125 
Q 25.4375 -18.5625 22.0625 -19.53125 
Q 18.703125 -20.515625 15.578125 -20.515625 
Q 9.859375 -20.515625 5.640625 -19.40625 
Q 1.421875 -18.3125 1.421875 -14.3125 
M 20.90625 2.59375 
Q 27.296875 2.59375 33.5 11.375 
L 39.015625 33.203125 
Q 38.328125 36.671875 36.28125 39.140625 
Q 34.234375 41.609375 31.109375 41.609375 
Q 27.78125 41.609375 24.828125 38.890625 
Q 21.875 36.1875 19.921875 32.421875 
Q 18.0625 28.8125 16.328125 22.046875 
Q 14.59375 15.28125 14.59375 11.375 
Q 14.59375 7.953125 16.15625 5.265625 
Q 17.71875 2.59375 20.90625 2.59375 
" id="Cmmi10-67"/>
     </defs>
     <g transform="translate(37.8825625 140.396625)rotate(-90.0)scale(0.2 -0.2)">
      <use transform="translate(0.0 0.8125)" xlink:href="#Cmmi10-61"/>
      <use transform="translate(52.783203125 -16.19375)scale(0.7)" xlink:href="#Cmmi10-68"/>
      <use transform="translate(93.115234375 -16.19375)scale(0.7)" xlink:href="#Cmmi10-69"/>
      <use transform="translate(117.211914062 -16.19375)scale(0.7)" xlink:href="#Cmmi10-67"/>
      <use transform="translate(150.60546875 -16.19375)scale(0.7)" xlink:href="#Cmmi10-68"/>
     </g>
    </g>
   </g>
   <g id="PathCollection_1">
    <defs>
     <path d="M 0 2.5 
C 0.663008 2.5 1.29895 2.236584 1.767767 1.767767 
C 2.236584 1.29895 2.5 0.663008 2.5 0 
C 2.5 -0.663008 2.236584 -1.29895 1.767767 -1.767767 
C 1.29895 -2.236584 0.663008 -2.5 0 -2.5 
C -0.663008 -2.5 -1.29895 -2.236584 -1.767767 -1.767767 
C -2.236584 -1.29895 -2.5 -0.663008 -2.5 0 
C -2.5 0.663008 -2.236584 1.29895 -1.767767 1.767767 
C -1.29895 2.236584 -0.663008 2.5 0 2.5 
z
" id="C0_0_1b0bd0099f"/>
    </defs>
    <g clip-path="url(#p7c4f810457)">
     <use style="fill:none;stroke:#000000;stroke-width:0.5;" x="183.304024414" xlink:href="#C0_0_1b0bd0099f" y="106.416251593"/>
    </g>
    <g clip-path="url(#p7c4f810457)">
     <use style="fill:none;stroke:#000000;stroke-width:0.5;" x="152.587558421" xlink:href="#C0_0_1b0bd0099f" y="106.027573091"/>
    </g>
    <g clip-path="url(#p7c4f810457)">
     <use style="fill:none;stroke:#000000;stroke-width:0.5;" x="178.526307018" xlink:href="#C0_0_1b0bd0099f" y="111.05053494"/>
    </g>
    <g clip-path="url(#p7c4f810457)">
     <use style="fill:none;stroke:#000000;stroke-width:0.5;" x="140.417660086" xlink:href="#C0_0_1b0bd0099f" y="126.25657415"/>
    </g>
    <g clip-path="url(#p7c4f810457)">
     <use style="fill:none;stroke:#000000;stroke-width:0.5;" x="125.773467918" xlink:href="#C0_0_1b0bd0099f" y="148.575952193"/>
    </g>
    <g clip-path="url(#p7c4f810457)">
     <use style="fill:none;stroke:#000000;stroke-width:0.5;" x="142.35326848" xlink:href="#C0_0_1b0bd0099f" y="134.279841936"/>
    </g>
    <g clip-path="url(#p7c4f810457)">
     <use style="fill:none;stroke:#000000;stroke-width:0.5;" x="125.965050456" xlink:href="#C0_0_1b0bd0099f" y="148.320463698"/>
    </g>
    <g clip-path="url(#p7c4f810457)">
     <use style="fill:none;stroke:#000000;stroke-width:0.5;" x="117.389424386" xlink:href="#C0_0_1b0bd0099f" y="157.790954342"/>
    </g>
    <g clip-path="url(#p7c4f810457)">
     <use style="fill:none;stroke:#000000;stroke-width:0.5;" x="118.552354364" xlink:href="#C0_0_1b0bd0099f" y="153.055656564"/>
    </g>
    <g clip-path="url(#p7c4f810457)">
     <use style="fill:none;stroke:#000000;stroke-width:0.5;" x="129.130784652" xlink:href="#C0_0_1b0bd0099f" y="138.39853591"/>
    </g>
    <g clip-path="url(#p7c4f810457)">
     <use style="fill:none;stroke:#000000;stroke-width:0.5;" x="130.878418867" xlink:href="#C0_0_1b0bd0099f" y="144.681981672"/>
    </g>
    <g clip-path="url(#p7c4f810457)">
     <use style="fill:none;stroke:#000000;stroke-width:0.5;" x="122.046167297" xlink:href="#C0_0_1b0bd0099f" y="148.744921783"/>
    </g>
    <g clip-path="url(#p7c4f810457)">
     <use style="fill:none;stroke:#000000;stroke-width:0.5;" x="124.089147805" xlink:href="#C0_0_1b0bd0099f" y="144.956750732"/>
    </g>
    <g clip-path="url(#p7c4f810457)">
     <use style="fill:none;stroke:#000000;stroke-width:0.5;" x="132.703791275" xlink:href="#C0_0_1b0bd0099f" y="137.872426903"/>
    </g>
    <g clip-path="url(#p7c4f810457)">
     <use style="fill:none;stroke:#000000;stroke-width:0.5;" x="171.785386939" xlink:href="#C0_0_1b0bd0099f" y="103.315090456"/>
    </g>
    <g clip-path="url(#p7c4f810457)">
     <use style="fill:none;stroke:#000000;stroke-width:0.5;" x="132.709982147" xlink:href="#C0_0_1b0bd0099f" y="136.304614884"/>
    </g>
    <g clip-path="url(#p7c4f810457)">
     <use style="fill:none;stroke:#000000;stroke-width:0.5;" x="140.714510512" xlink:href="#C0_0_1b0bd0099f" y="129.5628167"/>
    </g>
    <g clip-path="url(#p7c4f810457)">
     <use style="fill:none;stroke:#000000;stroke-width:0.5;" x="144.353276359" xlink:href="#C0_0_1b0bd0099f" y="123.599072395"/>
    </g>
    <g clip-path="url(#p7c4f810457)">
     <use style="fill:none;stroke:#000000;stroke-width:0.5;" x="175.356601844" xlink:href="#C0_0_1b0bd0099f" y="102.747548311"/>
    </g>
    <g clip-path="url(#p7c4f810457)">
     <use style="fill:none;stroke:#000000;stroke-width:0.5;" x="191.268988377" xlink:href="#C0_0_1b0bd0099f" y="157.120248111"/>
    </g>
    <g clip-path="url(#p7c4f810457)">
     <use style="fill:none;stroke:#000000;stroke-width:0.5;" x="154.949187244" xlink:href="#C0_0_1b0bd0099f" y="112.348277032"/>
    </g>
    <g clip-path="url(#p7c4f810457)">
     <use style="fill:none;stroke:#000000;stroke-width:0.5;" x="158.19326202" xlink:href="#C0_0_1b0bd0099f" y="109.80761972"/>
    </g>
    <g clip-path="url(#p7c4f810457)">
     <use style="fill:none;stroke:#000000;stroke-width:0.5;" x="167.954910148" xlink:href="#C0_0_1b0bd0099f" y="107.670958358"/>
    </g>
    <g clip-path="url(#p7c4f810457)">
     <use style="fill:none;stroke:#000000;stroke-width:0.5;" x="189.21407006" xlink:href="#C0_0_1b0bd0099f" y="100.481560514"/>
    </g>
    <g clip-path="url(#p7c4f810457)">
     <use style="fill:none;stroke:#000000;stroke-width:0.5;" x="191.858960901" xlink:href="#C0_0_1b0bd0099f" y="97.6740283834"/>
    </g>
    <g clip-path="url(#p7c4f810457)">
     <use style="fill:none;stroke:#000000;stroke-width:0.5;" x="197.075935354" xlink:href="#C0_0_1b0bd0099f" y="92.886722466"/>
    </g>
    <g clip-path="url(#p7c4f810457)">
     <use style="fill:none;stroke:#000000;stroke-width:0.5;" x="170.594752908" xlink:href="#C0_0_1b0bd0099f" y="117.329113175"/>
    </g>
    <g clip-path="url(#p7c4f810457)">
     <use style="fill:none;stroke:#000000;stroke-width:0.5;" x="190.063328753" xlink:href="#C0_0_1b0bd0099f" y="100.807465785"/>
    </g>
    <g clip-path="url(#p7c4f810457)">
     <use style="fill:none;stroke:#000000;stroke-width:0.5;" x="193.790582618" xlink:href="#C0_0_1b0bd0099f" y="96.2776384108"/>
    </g>
    <g clip-path="url(#p7c4f810457)">
     <use style="fill:none;stroke:#000000;stroke-width:0.5;" x="185.857481692" xlink:href="#C0_0_1b0bd0099f" y="103.482611881"/>
    </g>
    <g clip-path="url(#p7c4f810457)">
     <use style="fill:none;stroke:#000000;stroke-width:0.5;" x="102.597434815" xlink:href="#C0_0_1b0bd0099f" y="168.676412072"/>
    </g>
    <g clip-path="url(#p7c4f810457)">
     <use style="fill:none;stroke:#000000;stroke-width:0.5;" x="109.43762098" xlink:href="#C0_0_1b0bd0099f" y="166.859684079"/>
    </g>
    <g clip-path="url(#p7c4f810457)">
     <use style="fill:none;stroke:#000000;stroke-width:0.5;" x="106.151027644" xlink:href="#C0_0_1b0bd0099f" y="167.237289274"/>
    </g>
    <g clip-path="url(#p7c4f810457)">
     <use style="fill:none;stroke:#000000;stroke-width:0.5;" x="109.488737092" xlink:href="#C0_0_1b0bd0099f" y="163.445348247"/>
    </g>
    <g clip-path="url(#p7c4f810457)">
     <use style="fill:none;stroke:#000000;stroke-width:0.5;" x="134.954231879" xlink:href="#C0_0_1b0bd0099f" y="145.591624228"/>
    </g>
    <g clip-path="url(#p7c4f810457)">
     <use style="fill:none;stroke:#000000;stroke-width:0.5;" x="124.106667271" xlink:href="#C0_0_1b0bd0099f" y="152.418416318"/>
    </g>
    <g clip-path="url(#p7c4f810457)">
     <use style="fill:none;stroke:#000000;stroke-width:0.5;" x="113.32354405" xlink:href="#C0_0_1b0bd0099f" y="163.000583731"/>
    </g>
    <g clip-path="url(#p7c4f810457)">
     <use style="fill:none;stroke:#000000;stroke-width:0.5;" x="115.817920947" xlink:href="#C0_0_1b0bd0099f" y="160.427073856"/>
    </g>
    <g clip-path="url(#p7c4f810457)">
     <use style="fill:none;stroke:#000000;stroke-width:0.5;" x="126.912764663" xlink:href="#C0_0_1b0bd0099f" y="150.615171459"/>
    </g>
    <g clip-path="url(#p7c4f810457)">
     <use style="fill:none;stroke:#000000;stroke-width:0.5;" x="142.956603739" xlink:href="#C0_0_1b0bd0099f" y="135.421660921"/>
    </g>
    <g clip-path="url(#p7c4f810457)">
     <use style="fill:none;stroke:#000000;stroke-width:0.5;" x="158.004515301" xlink:href="#C0_0_1b0bd0099f" y="113.847829199"/>
    </g>
    <g clip-path="url(#p7c4f810457)">
     <use style="fill:none;stroke:#000000;stroke-width:0.5;" x="153.671926458" xlink:href="#C0_0_1b0bd0099f" y="123.517528977"/>
    </g>
    <g clip-path="url(#p7c4f810457)">
     <use style="fill:none;stroke:#000000;stroke-width:0.5;" x="133.620215861" xlink:href="#C0_0_1b0bd0099f" y="144.849048195"/>
    </g>
    <g clip-path="url(#p7c4f810457)">
     <use style="fill:none;stroke:#000000;stroke-width:0.5;" x="148.098092121" xlink:href="#C0_0_1b0bd0099f" y="128.668688534"/>
    </g>
    <g clip-path="url(#p7c4f810457)">
     <use style="fill:none;stroke:#000000;stroke-width:0.5;" x="161.181121909" xlink:href="#C0_0_1b0bd0099f" y="112.219672391"/>
    </g>
    <g clip-path="url(#p7c4f810457)">
     <use style="fill:none;stroke:#000000;stroke-width:0.5;" x="166.301649395" xlink:href="#C0_0_1b0bd0099f" y="120.873856902"/>
    </g>
    <g clip-path="url(#p7c4f810457)">
     <use style="fill:none;stroke:#000000;stroke-width:0.5;" x="171.874981157" xlink:href="#C0_0_1b0bd0099f" y="116.197240325"/>
    </g>
    <g clip-path="url(#p7c4f810457)">
     <use style="fill:none;stroke:#000000;stroke-width:0.5;" x="157.37305506" xlink:href="#C0_0_1b0bd0099f" y="121.429938681"/>
    </g>
    <g clip-path="url(#p7c4f810457)">
     <use style="fill:none;stroke:#000000;stroke-width:0.5;" x="138.428872567" xlink:href="#C0_0_1b0bd0099f" y="135.008059953"/>
    </g>
    <g clip-path="url(#p7c4f810457)">
     <use style="fill:none;stroke:#000000;stroke-width:0.5;" x="134.176391808" xlink:href="#C0_0_1b0bd0099f" y="143.969864692"/>
    </g>
    <g clip-path="url(#p7c4f810457)">
     <use style="fill:none;stroke:#000000;stroke-width:0.5;" x="120.912809252" xlink:href="#C0_0_1b0bd0099f" y="153.569241922"/>
    </g>
    <g clip-path="url(#p7c4f810457)">
     <use style="fill:none;stroke:#000000;stroke-width:0.5;" x="113.502904144" xlink:href="#C0_0_1b0bd0099f" y="160.647382086"/>
    </g>
    <g clip-path="url(#p7c4f810457)">
     <use style="fill:none;stroke:#000000;stroke-width:0.5;" x="110.119653166" xlink:href="#C0_0_1b0bd0099f" y="164.749330142"/>
    </g>
    <g clip-path="url(#p7c4f810457)">
     <use style="fill:none;stroke:#000000;stroke-width:0.5;" x="112.138894077" xlink:href="#C0_0_1b0bd0099f" y="167.010351598"/>
    </g>
    <g clip-path="url(#p7c4f810457)">
     <use style="fill:none;stroke:#000000;stroke-width:0.5;" x="177.68429903" xlink:href="#C0_0_1b0bd0099f" y="111.601321913"/>
    </g>
    <g clip-path="url(#p7c4f810457)">
     <use style="fill:none;stroke:#000000;stroke-width:0.5;" x="108.481117154" xlink:href="#C0_0_1b0bd0099f" y="167.246055127"/>
    </g>
    <g clip-path="url(#p7c4f810457)">
     <use style="fill:none;stroke:#000000;stroke-width:0.5;" x="109.870636549" xlink:href="#C0_0_1b0bd0099f" y="167.666757703"/>
    </g>
    <g clip-path="url(#p7c4f810457)">
     <use style="fill:none;stroke:#000000;stroke-width:0.5;" x="114.532634678" xlink:href="#C0_0_1b0bd0099f" y="165.438204993"/>
    </g>
    <g clip-path="url(#p7c4f810457)">
     <use style="fill:none;stroke:#000000;stroke-width:0.5;" x="121.279396499" xlink:href="#C0_0_1b0bd0099f" y="159.948537266"/>
    </g>
    <g clip-path="url(#p7c4f810457)">
     <use style="fill:none;stroke:#000000;stroke-width:0.5;" x="181.639685231" xlink:href="#C0_0_1b0bd0099f" y="110.207493341"/>
    </g>
    <g clip-path="url(#p7c4f810457)">
     <use style="fill:none;stroke:#000000;stroke-width:0.5;" x="137.787274935" xlink:href="#C0_0_1b0bd0099f" y="134.19944825"/>
    </g>
    <g clip-path="url(#p7c4f810457)">
     <use style="fill:none;stroke:#000000;stroke-width:0.5;" x="134.351553427" xlink:href="#C0_0_1b0bd0099f" y="138.840346716"/>
    </g>
    <g clip-path="url(#p7c4f810457)">
     <use style="fill:none;stroke:#000000;stroke-width:0.5;" x="136.823903026" xlink:href="#C0_0_1b0bd0099f" y="149.476127896"/>
    </g>
    <g clip-path="url(#p7c4f810457)">
     <use style="fill:none;stroke:#000000;stroke-width:0.5;" x="180.723996377" xlink:href="#C0_0_1b0bd0099f" y="111.896265613"/>
    </g>
    <g clip-path="url(#p7c4f810457)">
     <use style="fill:none;stroke:#000000;stroke-width:0.5;" x="179.086366216" xlink:href="#C0_0_1b0bd0099f" y="112.450839756"/>
    </g>
    <g clip-path="url(#p7c4f810457)">
     <use style="fill:none;stroke:#000000;stroke-width:0.5;" x="169.442918246" xlink:href="#C0_0_1b0bd0099f" y="115.712751246"/>
    </g>
    <g clip-path="url(#p7c4f810457)">
     <use style="fill:none;stroke:#000000;stroke-width:0.5;" x="177.90232356" xlink:href="#C0_0_1b0bd0099f" y="114.354667034"/>
    </g>
    <g clip-path="url(#p7c4f810457)">
     <use style="fill:none;stroke:#000000;stroke-width:0.5;" x="171.656621679" xlink:href="#C0_0_1b0bd0099f" y="114.510295869"/>
    </g>
    <g clip-path="url(#p7c4f810457)">
     <use style="fill:none;stroke:#000000;stroke-width:0.5;" x="171.28768053" xlink:href="#C0_0_1b0bd0099f" y="116.506814061"/>
    </g>
    <g clip-path="url(#p7c4f810457)">
     <use style="fill:none;stroke:#000000;stroke-width:0.5;" x="160.528384018" xlink:href="#C0_0_1b0bd0099f" y="116.798712595"/>
    </g>
    <g clip-path="url(#p7c4f810457)">
     <use style="fill:none;stroke:#000000;stroke-width:0.5;" x="154.009292337" xlink:href="#C0_0_1b0bd0099f" y="119.125720769"/>
    </g>
    <g clip-path="url(#p7c4f810457)">
     <use style="fill:none;stroke:#000000;stroke-width:0.5;" x="148.312579928" xlink:href="#C0_0_1b0bd0099f" y="127.488871579"/>
    </g>
    <g clip-path="url(#p7c4f810457)">
     <use style="fill:none;stroke:#000000;stroke-width:0.5;" x="128.554193777" xlink:href="#C0_0_1b0bd0099f" y="142.598429671"/>
    </g>
    <g clip-path="url(#p7c4f810457)">
     <use style="fill:none;stroke:#000000;stroke-width:0.5;" x="134.609479521" xlink:href="#C0_0_1b0bd0099f" y="139.589687889"/>
    </g>
    <g clip-path="url(#p7c4f810457)">
     <use style="fill:none;stroke:#000000;stroke-width:0.5;" x="118.096742371" xlink:href="#C0_0_1b0bd0099f" y="158.704963622"/>
    </g>
    <g clip-path="url(#p7c4f810457)">
     <use style="fill:none;stroke:#000000;stroke-width:0.5;" x="124.720231016" xlink:href="#C0_0_1b0bd0099f" y="151.690307246"/>
    </g>
    <g clip-path="url(#p7c4f810457)">
     <use style="fill:none;stroke:#000000;stroke-width:0.5;" x="115.063659861" xlink:href="#C0_0_1b0bd0099f" y="169.005774621"/>
    </g>
    <g clip-path="url(#p7c4f810457)">
     <use style="fill:none;stroke:#000000;stroke-width:0.5;" x="124.202405792" xlink:href="#C0_0_1b0bd0099f" y="157.428032768"/>
    </g>
    <g clip-path="url(#p7c4f810457)">
     <use style="fill:none;stroke:#000000;stroke-width:0.5;" x="130.070129603" xlink:href="#C0_0_1b0bd0099f" y="147.909025909"/>
    </g>
    <g clip-path="url(#p7c4f810457)">
     <use style="fill:none;stroke:#000000;stroke-width:0.5;" x="129.179280046" xlink:href="#C0_0_1b0bd0099f" y="152.293820861"/>
    </g>
    <g clip-path="url(#p7c4f810457)">
     <use style="fill:none;stroke:#000000;stroke-width:0.5;" x="107.844644958" xlink:href="#C0_0_1b0bd0099f" y="168.589155472"/>
    </g>
    <g clip-path="url(#p7c4f810457)">
     <use style="fill:none;stroke:#000000;stroke-width:0.5;" x="113.784421113" xlink:href="#C0_0_1b0bd0099f" y="161.939278178"/>
    </g>
    <g clip-path="url(#p7c4f810457)">
     <use style="fill:none;stroke:#000000;stroke-width:0.5;" x="131.2041323" xlink:href="#C0_0_1b0bd0099f" y="143.948552325"/>
    </g>
    <g clip-path="url(#p7c4f810457)">
     <use style="fill:none;stroke:#000000;stroke-width:0.5;" x="152.751036833" xlink:href="#C0_0_1b0bd0099f" y="118.35296744"/>
    </g>
    <g clip-path="url(#p7c4f810457)">
     <use style="fill:none;stroke:#000000;stroke-width:0.5;" x="135.820223845" xlink:href="#C0_0_1b0bd0099f" y="139.347751911"/>
    </g>
    <g clip-path="url(#p7c4f810457)">
     <use style="fill:none;stroke:#000000;stroke-width:0.5;" x="160.124441966" xlink:href="#C0_0_1b0bd0099f" y="114.812638988"/>
    </g>
    <g clip-path="url(#p7c4f810457)">
     <use style="fill:none;stroke:#000000;stroke-width:0.5;" x="180.834982853" xlink:href="#C0_0_1b0bd0099f" y="111.245079941"/>
    </g>
   </g>
   <g id="patch_3">
    <path d="M 70.776 224.276625 
L 278.136 224.276625 
" style="fill:none;stroke:#000000;stroke-linecap:square;stroke-linejoin:miter;"/>
   </g>
   <g id="patch_4">
    <path d="M 70.776 224.276625 
L 70.776 16.916625 
" style="fill:none;stroke:#000000;stroke-linecap:square;stroke-linejoin:miter;"/>
   </g>
   <g id="text_9">
    <!-- A -->
    <defs>
     <path d="M 34.1875 63.1875 
L 20.796875 26.90625 
L 47.609375 26.90625 
z
M 28.609375 72.90625 
L 39.796875 72.90625 
L 67.578125 0 
L 57.328125 0 
L 50.6875 18.703125 
L 17.828125 18.703125 
L 11.1875 0 
L 0.78125 0 
z
" id="DejaVuSans-41"/>
    </defs>
    <g transform="translate(14.4 28.0771875)scale(0.18 -0.18)">
     <use xlink:href="#DejaVuSans-41"/>
    </g>
   </g>
  </g>
  <g id="axes_2">
   <g id="patch_5">
    <path d="M 381.816 224.276625 
L 589.176 224.276625 
L 589.176 16.916625 
L 381.816 16.916625 
z
" style="fill:#ffffff;"/>
   </g>
   <g id="patch_6">
    <path clip-path="url(#p46a661cbdb)" d="M 381.816 224.276625 
L 400.666909 224.276625 
L 400.666909 215.982225 
L 381.816 215.982225 
z
" style="fill:#ffffff;stroke:#000000;stroke-linejoin:miter;stroke-width:0.5;"/>
   </g>
   <g id="patch_7">
    <path clip-path="url(#p46a661cbdb)" d="M 400.666909 224.276625 
L 419.517818 224.276625 
L 419.517818 224.276625 
L 400.666909 224.276625 
z
" style="fill:#ffffff;stroke:#000000;stroke-linejoin:miter;stroke-width:0.5;"/>
   </g>
   <g id="patch_8">
    <path clip-path="url(#p46a661cbdb)" d="M 419.517818 224.276625 
L 438.368727 224.276625 
L 438.368727 16.916625 
L 419.517818 16.916625 
z
" style="fill:#ffffff;stroke:#000000;stroke-linejoin:miter;stroke-width:0.5;"/>
   </g>
   <g id="patch_9">
    <path clip-path="url(#p46a661cbdb)" d="M 438.368727 224.276625 
L 457.219636 224.276625 
L 457.219636 50.094225 
L 438.368727 50.094225 
z
" style="fill:#ffffff;stroke:#000000;stroke-linejoin:miter;stroke-width:0.5;"/>
   </g>
   <g id="patch_10">
    <path clip-path="url(#p46a661cbdb)" d="M 457.219636 224.276625 
L 476.070545 224.276625 
L 476.070545 33.505425 
L 457.219636 33.505425 
z
" style="fill:#ffffff;stroke:#000000;stroke-linejoin:miter;stroke-width:0.5;"/>
   </g>
   <g id="patch_11">
    <path clip-path="url(#p46a661cbdb)" d="M 476.070545 224.276625 
L 494.921455 224.276625 
L 494.921455 141.332625 
L 476.070545 141.332625 
z
" style="fill:#ffffff;stroke:#000000;stroke-linejoin:miter;stroke-width:0.5;"/>
   </g>
   <g id="patch_12">
    <path clip-path="url(#p46a661cbdb)" d="M 494.921455 224.276625 
L 513.772364 224.276625 
L 513.772364 182.804625 
L 494.921455 182.804625 
z
" style="fill:#ffffff;stroke:#000000;stroke-linejoin:miter;stroke-width:0.5;"/>
   </g>
   <g id="patch_13">
    <path clip-path="url(#p46a661cbdb)" d="M 513.772364 224.276625 
L 532.623273 224.276625 
L 532.623273 215.982225 
L 513.772364 215.982225 
z
" style="fill:#ffffff;stroke:#000000;stroke-linejoin:miter;stroke-width:0.5;"/>
   </g>
   <g id="patch_14">
    <path clip-path="url(#p46a661cbdb)" d="M 532.623273 224.276625 
L 551.474182 224.276625 
L 551.474182 215.982225 
L 532.623273 215.982225 
z
" style="fill:#ffffff;stroke:#000000;stroke-linejoin:miter;stroke-width:0.5;"/>
   </g>
   <g id="patch_15">
    <path clip-path="url(#p46a661cbdb)" d="M 551.474182 224.276625 
L 570.325091 224.276625 
L 570.325091 224.276625 
L 551.474182 224.276625 
z
" style="fill:#ffffff;stroke:#000000;stroke-linejoin:miter;stroke-width:0.5;"/>
   </g>
   <g id="patch_16">
    <path clip-path="url(#p46a661cbdb)" d="M 570.325091 224.276625 
L 589.176 224.276625 
L 589.176 224.276625 
L 570.325091 224.276625 
z
" style="fill:#ffffff;stroke:#000000;stroke-linejoin:miter;stroke-width:0.5;"/>
   </g>
   <g id="matplotlib.axis_3">
    <g id="xtick_20">
     <g id="line2d_39">
      <defs>
       <path d="M 0 0 
L 0 -0.1 
" id="m274bc307f2" style="stroke:#000000;stroke-width:0.5;"/>
      </defs>
      <g>
       <use style="stroke:#000000;stroke-width:0.5;" x="381.816" xlink:href="#m274bc307f2" y="224.276625"/>
      </g>
     </g>
     <g id="text_10">
      <!-- 0 -->
      <g transform="translate(378.316625 236.63490625)scale(0.11 -0.11)">
       <use xlink:href="#DejaVuSans-30"/>
      </g>
     </g>
    </g>
    <g id="xtick_21">
     <g id="line2d_40">
      <g>
       <use style="stroke:#000000;stroke-width:0.5;" x="423.288" xlink:href="#m274bc307f2" y="224.276625"/>
      </g>
     </g>
     <g id="text_11">
      <!-- 1 -->
      <g transform="translate(419.788625 236.63490625)scale(0.11 -0.11)">
       <use xlink:href="#DejaVuSans-31"/>
      </g>
     </g>
    </g>
    <g id="xtick_22">
     <g id="line2d_41">
      <g>
       <use style="stroke:#000000;stroke-width:0.5;" x="464.76" xlink:href="#m274bc307f2" y="224.276625"/>
      </g>
     </g>
     <g id="text_12">
      <!-- 2 -->
      <defs>
       <path d="M 19.1875 8.296875 
L 53.609375 8.296875 
L 53.609375 0 
L 7.328125 0 
L 7.328125 8.296875 
Q 12.9375 14.109375 22.625 23.890625 
Q 32.328125 33.6875 34.8125 36.53125 
Q 39.546875 41.84375 41.421875 45.53125 
Q 43.3125 49.21875 43.3125 52.78125 
Q 43.3125 58.59375 39.234375 62.25 
Q 35.15625 65.921875 28.609375 65.921875 
Q 23.96875 65.921875 18.8125 64.3125 
Q 13.671875 62.703125 7.8125 59.421875 
L 7.8125 69.390625 
Q 13.765625 71.78125 18.9375 73 
Q 24.125 74.21875 28.421875 74.21875 
Q 39.75 74.21875 46.484375 68.546875 
Q 53.21875 62.890625 53.21875 53.421875 
Q 53.21875 48.921875 51.53125 44.890625 
Q 49.859375 40.875 45.40625 35.40625 
Q 44.1875 33.984375 37.640625 27.21875 
Q 31.109375 20.453125 19.1875 8.296875 
" id="DejaVuSans-32"/>
      </defs>
      <g transform="translate(461.260625 236.63490625)scale(0.11 -0.11)">
       <use xlink:href="#DejaVuSans-32"/>
      </g>
     </g>
    </g>
    <g id="xtick_23">
     <g id="line2d_42">
      <g>
       <use style="stroke:#000000;stroke-width:0.5;" x="506.232" xlink:href="#m274bc307f2" y="224.276625"/>
      </g>
     </g>
     <g id="text_13">
      <!-- 3 -->
      <defs>
       <path d="M 40.578125 39.3125 
Q 47.65625 37.796875 51.625 33 
Q 55.609375 28.21875 55.609375 21.1875 
Q 55.609375 10.40625 48.1875 4.484375 
Q 40.765625 -1.421875 27.09375 -1.421875 
Q 22.515625 -1.421875 17.65625 -0.515625 
Q 12.796875 0.390625 7.625 2.203125 
L 7.625 11.71875 
Q 11.71875 9.328125 16.59375 8.109375 
Q 21.484375 6.890625 26.8125 6.890625 
Q 36.078125 6.890625 40.9375 10.546875 
Q 45.796875 14.203125 45.796875 21.1875 
Q 45.796875 27.640625 41.28125 31.265625 
Q 36.765625 34.90625 28.71875 34.90625 
L 20.21875 34.90625 
L 20.21875 43.015625 
L 29.109375 43.015625 
Q 36.375 43.015625 40.234375 45.921875 
Q 44.09375 48.828125 44.09375 54.296875 
Q 44.09375 59.90625 40.109375 62.90625 
Q 36.140625 65.921875 28.71875 65.921875 
Q 24.65625 65.921875 20.015625 65.03125 
Q 15.375 64.15625 9.8125 62.3125 
L 9.8125 71.09375 
Q 15.4375 72.65625 20.34375 73.4375 
Q 25.25 74.21875 29.59375 74.21875 
Q 40.828125 74.21875 47.359375 69.109375 
Q 53.90625 64.015625 53.90625 55.328125 
Q 53.90625 49.265625 50.4375 45.09375 
Q 46.96875 40.921875 40.578125 39.3125 
" id="DejaVuSans-33"/>
      </defs>
      <g transform="translate(502.732625 236.63490625)scale(0.11 -0.11)">
       <use xlink:href="#DejaVuSans-33"/>
      </g>
     </g>
    </g>
    <g id="xtick_24">
     <g id="line2d_43">
      <g>
       <use style="stroke:#000000;stroke-width:0.5;" x="547.704" xlink:href="#m274bc307f2" y="224.276625"/>
      </g>
     </g>
     <g id="text_14">
      <!-- 4 -->
      <defs>
       <path d="M 37.796875 64.3125 
L 12.890625 25.390625 
L 37.796875 25.390625 
z
M 35.203125 72.90625 
L 47.609375 72.90625 
L 47.609375 25.390625 
L 58.015625 25.390625 
L 58.015625 17.1875 
L 47.609375 17.1875 
L 47.609375 0 
L 37.796875 0 
L 37.796875 17.1875 
L 4.890625 17.1875 
L 4.890625 26.703125 
z
" id="DejaVuSans-34"/>
      </defs>
      <g transform="translate(544.204625 236.63490625)scale(0.11 -0.11)">
       <use xlink:href="#DejaVuSans-34"/>
      </g>
     </g>
    </g>
    <g id="xtick_25">
     <g id="line2d_44">
      <g>
       <use style="stroke:#000000;stroke-width:0.5;" x="589.176" xlink:href="#m274bc307f2" y="224.276625"/>
      </g>
     </g>
     <g id="text_15">
      <!-- 5 -->
      <defs>
       <path d="M 10.796875 72.90625 
L 49.515625 72.90625 
L 49.515625 64.59375 
L 19.828125 64.59375 
L 19.828125 46.734375 
Q 21.96875 47.46875 24.109375 47.828125 
Q 26.265625 48.1875 28.421875 48.1875 
Q 40.625 48.1875 47.75 41.5 
Q 54.890625 34.8125 54.890625 23.390625 
Q 54.890625 11.625 47.5625 5.09375 
Q 40.234375 -1.421875 26.90625 -1.421875 
Q 22.3125 -1.421875 17.546875 -0.640625 
Q 12.796875 0.140625 7.71875 1.703125 
L 7.71875 11.625 
Q 12.109375 9.234375 16.796875 8.0625 
Q 21.484375 6.890625 26.703125 6.890625 
Q 35.15625 6.890625 40.078125 11.328125 
Q 45.015625 15.765625 45.015625 23.390625 
Q 45.015625 31 40.078125 35.4375 
Q 35.15625 39.890625 26.703125 39.890625 
Q 22.75 39.890625 18.8125 39.015625 
Q 14.890625 38.140625 10.796875 36.28125 
z
" id="DejaVuSans-35"/>
      </defs>
      <g transform="translate(585.676625 236.63490625)scale(0.11 -0.11)">
       <use xlink:href="#DejaVuSans-35"/>
      </g>
     </g>
    </g>
    <g id="text_16">
     <!-- $a_{low}/a_{high}$ -->
     <defs>
      <path d="M 5.609375 -23 
Q 5.609375 -22.703125 5.71875 -22.609375 
L 40.484375 73.78125 
Q 40.671875 74.359375 41.15625 74.671875 
Q 41.65625 75 42.28125 75 
Q 43.171875 75 43.71875 74.453125 
Q 44.28125 73.921875 44.28125 73 
L 44.28125 72.609375 
L 9.515625 -23.78125 
Q 8.9375 -25 7.625 -25 
Q 6.78125 -25 6.1875 -24.40625 
Q 5.609375 -23.828125 5.609375 -23 
" id="Cmmi10-3d"/>
     </defs>
     <g transform="translate(444.296 258.9225625)scale(0.2 -0.2)">
      <use xlink:href="#Cmmi10-61"/>
      <use transform="translate(52.783203125 -17.00625)scale(0.7)" xlink:href="#Cmmi10-6c"/>
      <use transform="translate(73.6328125 -17.00625)scale(0.7)" xlink:href="#Cmmi10-6f"/>
      <use transform="translate(107.504882812 -17.00625)scale(0.7)" xlink:href="#Cmmi10-77"/>
      <use transform="translate(163.921289062 0.0)" xlink:href="#Cmmi10-3d"/>
      <use transform="translate(213.921289062 0.0)" xlink:href="#Cmmi10-61"/>
      <use transform="translate(266.704492188 -17.00625)scale(0.7)" xlink:href="#Cmmi10-68"/>
      <use transform="translate(307.036523438 -17.00625)scale(0.7)" xlink:href="#Cmmi10-69"/>
      <use transform="translate(331.133203125 -17.00625)scale(0.7)" xlink:href="#Cmmi10-67"/>
      <use transform="translate(364.526757813 -17.00625)scale(0.7)" xlink:href="#Cmmi10-68"/>
     </g>
    </g>
   </g>
   <g id="line2d_45">
    <path clip-path="url(#p46a661cbdb)" d="M 423.288 224.276625 
L 423.288 16.916625 
" style="fill:none;stroke:#000000;stroke-dasharray:6.000000,6.000000;stroke-dashoffset:0.0;stroke-width:2.0;"/>
   </g>
   <g id="patch_17">
    <path d="M 381.816 224.276625 
L 589.176 224.276625 
" style="fill:none;stroke:#000000;stroke-linecap:square;stroke-linejoin:miter;"/>
   </g>
   <g id="text_17">
    <!-- $\overline{CSS} = 1.807$ -->
    <defs>
     <path d="M 9.28125 0 
L 9.28125 3.515625 
Q 21.78125 3.515625 21.78125 6.6875 
L 21.78125 59.1875 
Q 16.609375 56.6875 8.6875 56.6875 
L 8.6875 60.203125 
Q 20.953125 60.203125 27.203125 66.609375 
L 28.609375 66.609375 
Q 28.953125 66.609375 29.265625 66.328125 
Q 29.59375 66.0625 29.59375 65.71875 
L 29.59375 6.6875 
Q 29.59375 3.515625 42.09375 3.515625 
L 42.09375 0 
z
" id="Cmr10-31"/>
     <path d="M 6.109375 -2.203125 
Q 5.8125 -2.203125 5.5625 -1.859375 
Q 5.328125 -1.515625 5.328125 -1.21875 
L 11.078125 22.125 
Q 11.28125 22.703125 11.921875 22.703125 
L 13.09375 22.703125 
Q 13.484375 22.703125 13.703125 22.40625 
Q 13.921875 22.125 13.921875 21.6875 
Q 13.09375 18.265625 13.09375 15.578125 
Q 13.09375 8.34375 18.0625 4.828125 
Q 23.046875 1.3125 30.609375 1.3125 
Q 33.890625 1.3125 37.0625 2.921875 
Q 40.234375 4.546875 42.59375 7.125 
Q 44.96875 9.71875 46.375 12.90625 
Q 47.796875 16.109375 47.796875 19.390625 
Q 47.796875 22.90625 45.9375 25.65625 
Q 44.09375 28.421875 40.828125 29.203125 
L 28.609375 32.421875 
Q 23.6875 33.734375 20.75 37.71875 
Q 17.828125 41.703125 17.828125 46.6875 
Q 17.828125 52.6875 21.390625 58.25 
Q 24.953125 63.8125 30.6875 67.15625 
Q 36.421875 70.515625 42.390625 70.515625 
Q 46.96875 70.515625 50.796875 68.828125 
Q 54.640625 67.140625 56.6875 63.484375 
L 62.40625 70.21875 
Q 62.984375 70.515625 63.09375 70.515625 
L 63.71875 70.515625 
Q 64.109375 70.515625 64.34375 70.171875 
Q 64.59375 69.828125 64.59375 69.484375 
L 58.796875 46.296875 
Q 58.640625 45.609375 58.015625 45.609375 
L 56.78125 45.609375 
Q 55.90625 45.609375 55.90625 46.6875 
Q 56.390625 49.859375 56.390625 52.203125 
Q 56.390625 56.84375 54.796875 60.28125 
Q 53.21875 63.71875 50.015625 65.5 
Q 46.828125 67.28125 42.09375 67.28125 
Q 38.09375 67.28125 34.125 64.984375 
Q 30.171875 62.703125 27.734375 58.890625 
Q 25.296875 55.078125 25.296875 50.984375 
Q 25.296875 47.75 27.171875 45.265625 
Q 29.046875 42.78125 32.171875 41.890625 
L 44.390625 38.71875 
Q 47.703125 37.84375 50.171875 35.625 
Q 52.640625 33.40625 53.90625 30.34375 
Q 55.171875 27.296875 55.171875 23.6875 
Q 55.171875 18.953125 53.171875 14.328125 
Q 51.171875 9.71875 47.578125 5.90625 
Q 44 2.09375 39.453125 -0.046875 
Q 34.90625 -2.203125 30.171875 -2.203125 
Q 18.265625 -2.203125 13.09375 4.78125 
L 7.515625 -1.90625 
Q 6.9375 -2.203125 6.78125 -2.203125 
z
" id="Cmmi10-53"/>
     <path d="M 17.390625 2.59375 
Q 17.390625 8.15625 18.359375 13.46875 
Q 19.34375 18.796875 21.21875 24 
Q 23.09375 29.203125 25.75 34.203125 
Q 28.421875 39.203125 31.59375 43.609375 
L 40.71875 56.296875 
L 29.296875 56.296875 
Q 11.53125 56.296875 10.984375 55.8125 
Q 9.671875 54.203125 8.5 46.578125 
L 5.609375 46.578125 
L 8.890625 67.578125 
L 11.8125 67.578125 
L 11.8125 67.28125 
Q 11.8125 65.484375 17.921875 64.9375 
Q 24.03125 64.40625 29.890625 64.40625 
L 48.484375 64.40625 
L 48.484375 61.8125 
Q 48.484375 61.71875 48.453125 61.671875 
Q 48.4375 61.625 48.390625 61.53125 
L 34.625 42.1875 
Q 29.546875 34.671875 28.265625 25.484375 
Q 27 16.3125 27 2.59375 
Q 27 0.640625 25.578125 -0.78125 
Q 24.171875 -2.203125 22.21875 -2.203125 
Q 20.21875 -2.203125 18.796875 -0.78125 
Q 17.390625 0.640625 17.390625 2.59375 
" id="Cmr10-37"/>
     <path d="M 4.203125 15.1875 
Q 4.203125 21.1875 8.15625 25.796875 
Q 12.109375 30.421875 18.3125 33.5 
L 14.59375 35.890625 
Q 11.1875 38.140625 9.03125 41.875 
Q 6.890625 45.609375 6.890625 49.703125 
Q 6.890625 54.5 9.40625 58.34375 
Q 11.921875 62.203125 16.09375 64.40625 
Q 20.265625 66.609375 25 66.609375 
Q 29.4375 66.609375 33.5625 64.796875 
Q 37.703125 62.984375 40.359375 59.609375 
Q 43.015625 56.25 43.015625 51.609375 
Q 43.015625 48.25 41.421875 45.359375 
Q 39.84375 42.484375 37.078125 40.1875 
Q 34.328125 37.890625 31.203125 36.28125 
L 36.921875 32.625 
Q 40.875 30.03125 43.28125 25.828125 
Q 45.703125 21.625 45.703125 17 
Q 45.703125 11.578125 42.796875 7.125 
Q 39.890625 2.6875 35.109375 0.234375 
Q 30.328125 -2.203125 25 -2.203125 
Q 19.828125 -2.203125 15.015625 -0.09375 
Q 10.203125 2 7.203125 5.984375 
Q 4.203125 9.96875 4.203125 15.1875 
M 9.625 15.1875 
Q 9.625 11.234375 11.796875 7.953125 
Q 13.96875 4.6875 17.53125 2.828125 
Q 21.09375 0.984375 25 0.984375 
Q 30.8125 0.984375 35.546875 4.375 
Q 40.28125 7.765625 40.28125 13.375 
Q 40.28125 15.28125 39.515625 17.15625 
Q 38.765625 19.046875 37.421875 20.578125 
Q 36.078125 22.125 34.421875 23.09375 
L 21 31.78125 
Q 17.875 30.125 15.25 27.578125 
Q 12.640625 25.046875 11.125 21.875 
Q 9.625 18.703125 9.625 15.1875 
M 16.5 45.703125 
L 28.609375 37.890625 
Q 32.8125 40.328125 35.5 43.796875 
Q 38.1875 47.265625 38.1875 51.609375 
Q 38.1875 54.984375 36.296875 57.78125 
Q 34.421875 60.59375 31.390625 62.15625 
Q 28.375 63.71875 24.90625 63.71875 
Q 21.875 63.71875 18.796875 62.546875 
Q 15.71875 61.375 13.71875 59.046875 
Q 11.71875 56.734375 11.71875 53.609375 
Q 11.71875 48.921875 16.5 45.703125 
" id="Cmr10-38"/>
     <path d="M 25 -2.203125 
Q 12.75 -2.203125 8.328125 7.875 
Q 3.90625 17.96875 3.90625 31.890625 
Q 3.90625 40.578125 5.484375 48.234375 
Q 7.078125 55.90625 11.78125 61.25 
Q 16.5 66.609375 25 66.609375 
Q 31.59375 66.609375 35.78125 63.375 
Q 39.984375 60.15625 42.1875 55.046875 
Q 44.390625 49.953125 45.1875 44.109375 
Q 46 38.28125 46 31.890625 
Q 46 23.296875 44.40625 15.796875 
Q 42.828125 8.296875 38.1875 3.046875 
Q 33.546875 -2.203125 25 -2.203125 
M 25 0.390625 
Q 30.5625 0.390625 33.296875 6.09375 
Q 36.03125 11.8125 36.671875 18.75 
Q 37.3125 25.6875 37.3125 33.5 
Q 37.3125 41.015625 36.671875 47.359375 
Q 36.03125 53.71875 33.3125 58.859375 
Q 30.609375 64.015625 25 64.015625 
Q 19.34375 64.015625 16.609375 58.828125 
Q 13.875 53.65625 13.234375 47.328125 
Q 12.59375 41.015625 12.59375 33.5 
Q 12.59375 27.9375 12.859375 23 
Q 13.140625 18.0625 14.3125 12.8125 
Q 15.484375 7.5625 18.09375 3.96875 
Q 20.703125 0.390625 25 0.390625 
" id="Cmr10-30"/>
     <path d="M 14.59375 21.578125 
Q 14.59375 15.578125 16.90625 11.015625 
Q 19.234375 6.453125 23.65625 3.875 
Q 28.078125 1.3125 34.078125 1.3125 
Q 40.375 1.3125 46.203125 4.53125 
Q 52.046875 7.765625 56.171875 13.15625 
Q 60.296875 18.5625 61.8125 24.609375 
Q 62.015625 25.203125 62.59375 25.203125 
L 63.8125 25.203125 
Q 64.203125 25.203125 64.453125 24.921875 
Q 64.703125 24.65625 64.703125 24.3125 
Q 64.703125 24.21875 64.59375 24.03125 
Q 62.890625 17.09375 57.984375 11.015625 
Q 53.078125 4.9375 46.234375 1.359375 
Q 39.40625 -2.203125 32.171875 -2.203125 
Q 24.359375 -2.203125 18.15625 1.3125 
Q 11.96875 4.828125 8.515625 11.078125 
Q 5.078125 17.328125 5.078125 25.203125 
Q 5.078125 33.59375 8.828125 41.8125 
Q 12.59375 50.046875 18.9375 56.46875 
Q 25.296875 62.890625 33.421875 66.703125 
Q 41.546875 70.515625 49.90625 70.515625 
Q 53.21875 70.515625 56.25 69.5 
Q 59.28125 68.5 61.859375 66.453125 
Q 64.453125 64.40625 66.109375 61.71875 
L 74.03125 70.3125 
Q 74.03125 70.515625 74.515625 70.515625 
L 75.09375 70.515625 
Q 75.484375 70.515625 75.734375 70.171875 
Q 75.984375 69.828125 75.984375 69.484375 
L 69.1875 42.484375 
Q 69.1875 41.796875 68.40625 41.796875 
L 66.609375 41.796875 
Q 65.828125 41.796875 65.828125 42.921875 
Q 66.21875 45.125 66.21875 48.1875 
Q 66.21875 53.078125 64.546875 57.390625 
Q 62.890625 61.71875 59.390625 64.359375 
Q 55.90625 67 50.875 67 
Q 42.71875 67 35.9375 62.890625 
Q 29.15625 58.796875 24.4375 52.125 
Q 19.734375 45.453125 17.15625 37.328125 
Q 14.59375 29.203125 14.59375 21.578125 
" id="Cmmi10-43"/>
     <path d="M 7.515625 13.28125 
Q 6.6875 13.28125 6.140625 13.90625 
Q 5.609375 14.546875 5.609375 15.28125 
Q 5.609375 16.109375 6.140625 16.6875 
Q 6.6875 17.28125 7.515625 17.28125 
L 70.3125 17.28125 
Q 71.046875 17.28125 71.578125 16.6875 
Q 72.125 16.109375 72.125 15.28125 
Q 72.125 14.546875 71.578125 13.90625 
Q 71.046875 13.28125 70.3125 13.28125 
z
M 7.515625 32.71875 
Q 6.6875 32.71875 6.140625 33.296875 
Q 5.609375 33.890625 5.609375 34.71875 
Q 5.609375 35.453125 6.140625 36.078125 
Q 6.6875 36.71875 7.515625 36.71875 
L 70.3125 36.71875 
Q 71.046875 36.71875 71.578125 36.078125 
Q 72.125 35.453125 72.125 34.71875 
Q 72.125 33.890625 71.578125 33.296875 
Q 71.046875 32.71875 70.3125 32.71875 
z
" id="Cmr10-3d"/>
     <path d="M 8.40625 5.515625 
Q 8.40625 7.765625 10.0625 9.375 
Q 11.71875 10.984375 13.921875 10.984375 
Q 15.28125 10.984375 16.59375 10.25 
Q 17.921875 9.515625 18.65625 8.203125 
Q 19.390625 6.890625 19.390625 5.515625 
Q 19.390625 3.328125 17.765625 1.65625 
Q 16.15625 0 13.921875 0 
Q 11.71875 0 10.0625 1.65625 
Q 8.40625 3.328125 8.40625 5.515625 
" id="Cmmi10-3a"/>
    </defs>
    <g transform="translate(493.848 96.5186727273)scale(0.12 -0.12)">
     <use transform="translate(0.0 0.234375)" xlink:href="#Cmmi10-43"/>
     <use transform="translate(71.38671875 0.234375)" xlink:href="#Cmmi10-53"/>
     <use transform="translate(132.666015625 0.234375)" xlink:href="#Cmmi10-53"/>
     <use transform="translate(211.50390625 0.734375)" xlink:href="#Cmr10-3d"/>
     <use transform="translate(306.748046875 0.734375)" xlink:href="#Cmr10-31"/>
     <use transform="translate(356.748046875 0.734375)" xlink:href="#Cmmi10-3a"/>
     <use transform="translate(401.9921875 0.734375)" xlink:href="#Cmr10-38"/>
     <use transform="translate(451.9921875 0.734375)" xlink:href="#Cmr10-30"/>
     <use transform="translate(501.9921875 0.734375)" xlink:href="#Cmr10-37"/>
     <path d="M 0 83.5 
L 0 89.75 
L 193.945312 89.75 
L 193.945312 83.5 
L 0 83.5 
z
"/>
    </g>
   </g>
   <g id="text_18">
    <!-- B -->
    <defs>
     <path d="M 19.671875 34.8125 
L 19.671875 8.109375 
L 35.5 8.109375 
Q 43.453125 8.109375 47.28125 11.40625 
Q 51.125 14.703125 51.125 21.484375 
Q 51.125 28.328125 47.28125 31.5625 
Q 43.453125 34.8125 35.5 34.8125 
z
M 19.671875 64.796875 
L 19.671875 42.828125 
L 34.28125 42.828125 
Q 41.5 42.828125 45.03125 45.53125 
Q 48.578125 48.25 48.578125 53.8125 
Q 48.578125 59.328125 45.03125 62.0625 
Q 41.5 64.796875 34.28125 64.796875 
z
M 9.8125 72.90625 
L 35.015625 72.90625 
Q 46.296875 72.90625 52.390625 68.21875 
Q 58.5 63.53125 58.5 54.890625 
Q 58.5 48.1875 55.375 44.234375 
Q 52.25 40.28125 46.1875 39.3125 
Q 53.46875 37.75 57.5 32.78125 
Q 61.53125 27.828125 61.53125 20.40625 
Q 61.53125 10.640625 54.890625 5.3125 
Q 48.25 0 35.984375 0 
L 9.8125 0 
z
" id="DejaVuSans-42"/>
    </defs>
    <g transform="translate(325.44 28.0771875)scale(0.18 -0.18)">
     <use xlink:href="#DejaVuSans-42"/>
    </g>
   </g>
  </g>
 </g>
 <defs>
  <clipPath id="p7c4f810457">
   <rect height="207.36" width="207.36" x="70.776" y="16.916625"/>
  </clipPath>
  <clipPath id="p46a661cbdb">
   <rect height="207.36" width="207.36" x="381.816" y="16.916625"/>
  </clipPath>
 </defs>
</svg>
